<?xml version="1.0" encoding="UTF-8" standalone="no"?>
<!-- Created with Inkscape (http://www.inkscape.org/) -->

<svg
   xmlns:dc="http://purl.org/dc/elements/1.1/"
   xmlns:cc="http://creativecommons.org/ns#"
   xmlns:rdf="http://www.w3.org/1999/02/22-rdf-syntax-ns#"
   xmlns:svg="http://www.w3.org/2000/svg"
   xmlns="http://www.w3.org/2000/svg"
   xmlns:sodipodi="http://sodipodi.sourceforge.net/DTD/sodipodi-0.dtd"
   xmlns:inkscape="http://www.inkscape.org/namespaces/inkscape"
   width="297mm"
   height="210mm"
   viewBox="0 0 297 210"
   version="1.1"
   id="svg2681"
   inkscape:version="0.92.5 (2060ec1f9f, 2020-04-08)"
   sodipodi:docname="app_arch.svg">
  <defs
     id="defs2675" />
  <sodipodi:namedview
     id="base"
     pagecolor="#ffffff"
     bordercolor="#666666"
     borderopacity="1.0"
     inkscape:pageopacity="0.0"
     inkscape:pageshadow="2"
     inkscape:zoom="0.98994949"
     inkscape:cx="198.04252"
     inkscape:cy="421.46709"
     inkscape:document-units="mm"
     inkscape:current-layer="layer1"
     showgrid="false"
     inkscape:window-width="3840"
     inkscape:window-height="2032"
     inkscape:window-x="0"
     inkscape:window-y="54"
     inkscape:window-maximized="1" />
  <metadata
     id="metadata2678">
    <rdf:RDF>
      <cc:Work
         rdf:about="">
        <dc:format>image/svg+xml</dc:format>
        <dc:type
           rdf:resource="http://purl.org/dc/dcmitype/StillImage" />
        <dc:title></dc:title>
      </cc:Work>
    </rdf:RDF>
  </metadata>
  <g
     inkscape:label="Layer 1"
     inkscape:groupmode="layer"
     id="layer1"
     transform="translate(0,-87)">
    <rect
       style="opacity:1;fill:#e66969;fill-opacity:1;fill-rule:nonzero;stroke:none;stroke-width:0.5;stroke-linecap:round;stroke-linejoin:round;stroke-miterlimit:11.60000038;stroke-dasharray:2.99999996, 0.99999998999999995;stroke-dashoffset:0;stroke-opacity:0.98300967"
       id="rect3226"
       width="63.877415"
       height="169.18161"
       x="10.15624"
       y="106.43684"
       rx="5"
       ry="5" />
    <g
       aria-label="app.R"
       transform="matrix(0.26458333,0,0,0.26458333,-0.26726954,64.81663)"
       style="font-style:normal;font-weight:normal;font-size:40px;line-height:1.25;font-family:sans-serif;letter-spacing:0px;word-spacing:0px;fill:#000000;fill-opacity:1;stroke:none"
       id="flowRoot3244">
      <path
         d="m 76.359609,200.36523 v -2.68 q -3.56,3.32 -7.64,3.32 -2.8,0 -4.52,-1.4 -1.72,-1.44 -1.72,-3.72 0,-2.6 2.32,-4.2 2.36,-1.64 6.12,-1.64 2.36,0 5.44,0.84 v -2.84 q 0,-1.48 -1.36,-2.36 -1.36,-0.92 -3.56,-0.92 -1.76,0 -5.68,1.2 -0.32,0.08 -0.4,0.08 -0.32,0 -0.56,-0.24 -0.2,-0.24 -0.2,-0.56 0,-0.6 0.68,-0.84 3.72,-1.28 6.28,-1.28 2.8,0 4.6,1.4 1.84,1.4 1.84,3.52 v 10.68 h 2.16 q 1.08,0 1.08,0.8 0,0.84 -1.08,0.84 z m 0,-4.48 v -3.6 q -2.4,-0.6 -5.12,-0.6 -3.16,0 -5.16,1.2 -1.96,1.16 -1.96,3.04 0,1.56 1.24,2.52 1.24,0.92 3.32,0.92 2.12,0 3.88,-0.8 1.8,-0.8 3.8,-2.68 z"
         style="font-style:normal;font-variant:normal;font-weight:normal;font-stretch:normal;font-family:'Tlwg Mono';-inkscape-font-specification:'Tlwg Mono'"
         id="path4377" />
      <path
         d="m 96.479548,184.76523 q -2.96,0 -5.04,2.12 -2.08,2.12 -2.08,5.16 0,3.04 2.08,5.2 2.08,2.12 5.04,2.12 2.92,0 5.000002,-2.12 2.12,-2.12 2.12,-5.08 0,-3.12 -2.08,-5.24 -2.040002,-2.16 -5.040002,-2.16 z m -7.12,12.08 v 9.32 h 3.92 q 1.08,0 1.08,0.8 0,0.84 -1.08,0.84 h -7.72 q -1.08,0 -1.08,-0.84 0,-0.8 1.08,-0.8 h 2.16 v -20.84 h -2.16 q -1.08,0 -1.08,-0.84 0,-0.8 1.08,-0.8 h 3.8 v 3.56 q 2.88,-4.12 7.2,-4.12 3.640002,0 6.160002,2.56 2.52,2.56 2.52,6.28 0,3.76 -2.56,6.4 -2.52,2.64 -6.120002,2.64 -4.36,0 -7.2,-4.16 z"
         style="font-style:normal;font-variant:normal;font-weight:normal;font-stretch:normal;font-family:'Tlwg Mono';-inkscape-font-specification:'Tlwg Mono'"
         id="path4379" />
      <path
         d="m 120.47949,184.76523 q -2.96,0 -5.04,2.12 -2.08,2.12 -2.08,5.16 0,3.04 2.08,5.2 2.08,2.12 5.04,2.12 2.92,0 5,-2.12 2.12,-2.12 2.12,-5.08 0,-3.12 -2.08,-5.24 -2.04,-2.16 -5.04,-2.16 z m -7.12,12.08 v 9.32 h 3.92 q 1.08,0 1.08,0.8 0,0.84 -1.08,0.84 h -7.72 q -1.08,0 -1.08,-0.84 0,-0.8 1.08,-0.8 h 2.16 v -20.84 h -2.16 q -1.08,0 -1.08,-0.84 0,-0.8 1.08,-0.8 h 3.8 v 3.56 q 2.88,-4.12 7.2,-4.12 3.64,0 6.16,2.56 2.52,2.56 2.52,6.28 0,3.76 -2.56,6.4 -2.52,2.64 -6.12,2.64 -4.36,0 -7.2,-4.16 z"
         style="font-style:normal;font-variant:normal;font-weight:normal;font-stretch:normal;font-family:'Tlwg Mono';-inkscape-font-specification:'Tlwg Mono'"
         id="path4381" />
      <path
         d="m 143.39943,195.72523 h 0.4 q 1.16,0 1.96,0.76 0.8,0.72 0.8,1.84 0,1.12 -0.8,1.88 -0.8,0.76 -1.96,0.76 h -0.4 q -1.16,0 -1.96,-0.76 -0.8,-0.76 -0.8,-1.88 0,-1.12 0.8,-1.84 0.8,-0.76 1.96,-0.76 z"
         style="font-style:normal;font-variant:normal;font-weight:normal;font-stretch:normal;font-family:'Tlwg Mono';-inkscape-font-specification:'Tlwg Mono'"
         id="path4383" />
      <path
         d="m 162.19937,190.32523 v 8.4 h 3 q 1.08,0 1.08,0.8 0,0.84 -1.08,0.84 h -6.8 q -1.08,0 -1.08,-0.84 0,-0.8 1.08,-0.8 h 2.16 v -19.24 h -2.16 q -1.08,0 -1.08,-0.84 0,-0.8 1.08,-0.8 h 9.92 q 2.92,0 5.04,1.88 2.16,1.84 2.16,4.36 0,3.88 -5.56,5.8 1.88,1.28 3.16,2.92 1.28,1.64 3.72,5.92 h 1.24 q 1.08,0 1.08,0.8 0,0.84 -1.08,0.84 h -2.28 q -2.64,-4.88 -4.36,-6.92 -1.68,-2.08 -3.96,-3.12 z m 0,-1.64 h 4.56 q 2.96,0 5.04,-1.36 2.08,-1.36 2.08,-3.28 0,-1.8 -1.72,-3.16 -1.68,-1.4 -3.84,-1.4 h -6.12 z"
         style="font-style:normal;font-variant:normal;font-weight:normal;font-stretch:normal;font-family:'Tlwg Mono';-inkscape-font-specification:'Tlwg Mono'"
         id="path4385" />
    </g>
    <rect
       ry="5"
       rx="5"
       y="106.97136"
       x="82.586281"
       height="80.180855"
       width="63.877415"
       id="rect3228"
       style="opacity:1;fill:#e66969;fill-opacity:1;fill-rule:nonzero;stroke:none;stroke-width:0.5;stroke-linecap:round;stroke-linejoin:round;stroke-miterlimit:11.60000038;stroke-dasharray:2.99999997, 0.99999998999999995;stroke-dashoffset:0;stroke-opacity:0.98300967" />
    <rect
       style="opacity:1;fill:#e66969;fill-opacity:1;fill-rule:nonzero;stroke:none;stroke-width:0.5;stroke-linecap:round;stroke-linejoin:round;stroke-miterlimit:11.60000038;stroke-dasharray:2.99999997, 0.99999998999999995;stroke-dashoffset:0;stroke-opacity:0.98300967"
       id="rect3230"
       width="63.877415"
       height="80.180855"
       x="82.586281"
       y="195.17032"
       rx="5"
       ry="5" />
    <g
       aria-label="ui.R"
       transform="matrix(0.26458333,0,0,0.26458333,71.628233,66.039005)"
       style="font-style:normal;font-weight:normal;font-size:40px;line-height:1.25;font-family:sans-serif;letter-spacing:0px;word-spacing:0px;fill:#000000;fill-opacity:1;stroke:none"
       id="flowRoot3258">
      <path
         d="m 77.159609,200.36523 v -2.64 q -3.36,3.28 -7.28,3.28 -2.4,0 -3.88,-1.44 -1.44,-1.44 -1.44,-3.8 v -10.44 h -2.16 q -1.08,0 -1.08,-0.84 0,-0.8 1.08,-0.8 h 3.8 v 12.08 q 0,1.52 1.04,2.56 1.08,1.04 2.6,1.04 4,0 7.32,-3.6 v -10.44 h -2.96 q -1.12,0 -1.12,-0.84 0,-0.8 1.12,-0.8 h 4.6 v 15.04 h 1.36 q 1.08,0 1.08,0.8 0,0.84 -1.08,0.84 z"
         style="font-style:normal;font-variant:normal;font-weight:normal;font-stretch:normal;font-family:'Tlwg Mono';-inkscape-font-specification:'Tlwg Mono'"
         id="path4368" />
      <path
         d="m 96.399548,183.68523 v 15.04 h 6.400002 q 1.12,0 1.12,0.8 0,0.84 -1.12,0.84 H 88.359548 q -1.08,0 -1.08,-0.84 0,-0.8 1.08,-0.8 h 6.4 v -13.4 h -4.72 q -1.08,0 -1.08,-0.84 0,-0.8 1.08,-0.8 z m -0.08,-8.28 v 4.16 h -2.36 v -4.16 z"
         style="font-style:normal;font-variant:normal;font-weight:normal;font-stretch:normal;font-family:'Tlwg Mono';-inkscape-font-specification:'Tlwg Mono'"
         id="path4370" />
      <path
         d="m 119.39949,195.72523 h 0.4 q 1.16,0 1.96,0.76 0.8,0.72 0.8,1.84 0,1.12 -0.8,1.88 -0.8,0.76 -1.96,0.76 h -0.4 q -1.16,0 -1.96,-0.76 -0.8,-0.76 -0.8,-1.88 0,-1.12 0.8,-1.84 0.8,-0.76 1.96,-0.76 z"
         style="font-style:normal;font-variant:normal;font-weight:normal;font-stretch:normal;font-family:'Tlwg Mono';-inkscape-font-specification:'Tlwg Mono'"
         id="path4372" />
      <path
         d="m 138.19943,190.32523 v 8.4 h 3 q 1.08,0 1.08,0.8 0,0.84 -1.08,0.84 h -6.8 q -1.08,0 -1.08,-0.84 0,-0.8 1.08,-0.8 h 2.16 v -19.24 h -2.16 q -1.08,0 -1.08,-0.84 0,-0.8 1.08,-0.8 h 9.92 q 2.92,0 5.04,1.88 2.16,1.84 2.16,4.36 0,3.88 -5.56,5.8 1.88,1.28 3.16,2.92 1.28,1.64 3.72,5.92 h 1.24 q 1.08,0 1.08,0.8 0,0.84 -1.08,0.84 h -2.28 q -2.64,-4.88 -4.36,-6.92 -1.68,-2.08 -3.96,-3.12 z m 0,-1.64 h 4.56 q 2.96,0 5.04,-1.36 2.08,-1.36 2.08,-3.28 0,-1.8 -1.72,-3.16 -1.68,-1.4 -3.84,-1.4 h -6.12 z"
         style="font-style:normal;font-variant:normal;font-weight:normal;font-stretch:normal;font-family:'Tlwg Mono';-inkscape-font-specification:'Tlwg Mono'"
         id="path4374" />
    </g>
    <g
       aria-label="server.R"
       transform="matrix(0.26458333,0,0,0.26458333,70.826424,154.61919)"
       style="font-style:normal;font-weight:normal;font-size:40px;line-height:1.25;font-family:sans-serif;letter-spacing:0px;word-spacing:0px;fill:#000000;fill-opacity:1;stroke:none"
       id="flowRoot3266">
      <path
         d="m 76.879609,184.96523 v -0.16 q 0,-1.12 0.84,-1.12 0.8,0 0.8,1.12 v 2.76 q 0,1.08 -0.8,1.08 -0.72,0 -0.84,-0.92 -0.16,-1.36 -1.6,-2.16 -1.44,-0.8 -3.72,-0.8 -2.24,0 -3.72,0.88 -1.48,0.84 -1.48,2.12 0,1.08 1.28,1.8 0.68,0.44 1.36,0.6 0.68,0.12 3.28,0.4 3.44,0.4 5.2,1.56 2,1.36 2,3.6 0,2.28 -2.24,3.8 -2.2,1.48 -5.6,1.48 -3.84,0 -6.28,-2.16 v 0.44 q 0,1.08 -0.8,1.08 -0.84,0 -0.84,-1.08 v -3.32 q 0,-1.08 0.84,-1.08 0.8,0 0.8,0.88 v 0.28 q 0,1.36 1.8,2.36 1.8,0.96 4.36,0.96 2.64,0 4.4,-1.04 1.76,-1.04 1.76,-2.64 0,-1.56 -1.76,-2.52 -1.4,-0.76 -4.32,-1.08 -3.76,-0.4 -5.2,-1.28 -1.84,-1.2 -1.84,-3.16 0,-1.96 1.92,-3.24 1.96,-1.28 4.92,-1.28 3.4,0 5.48,1.84 z"
         style="font-style:normal;font-variant:normal;font-weight:normal;font-stretch:normal;font-family:'Tlwg Mono';-inkscape-font-specification:'Tlwg Mono'"
         id="path4237" />
      <path
         d="M 104.39955,192.40523 H 87.759548 q 0.44,3.16 2.64,5.08 2.2,1.88 5.44,1.88 1.88,0 3.84,-0.6 1.960002,-0.6 3.160002,-1.56 0.4,-0.28 0.64,-0.28 0.32,0 0.52,0.24 0.24,0.24 0.24,0.56 0,1.04 -2.88,2.16 -2.840002,1.12 -5.560002,1.12 -4.04,0 -6.88,-2.72 -2.8,-2.72 -2.8,-6.6 0,-3.64 2.64,-6.08 2.64,-2.48 6.48,-2.48 2.88,0 5.120002,1.44 2.28,1.44 3.36,3.92 0.68,1.6 0.68,3.92 z m -16.640002,-1.64 h 14.960002 q -0.48,-2.72 -2.52,-4.36 -2.040002,-1.64 -4.960002,-1.64 -2.92,0 -4.92,1.64 -2,1.6 -2.56,4.36 z"
         style="font-style:normal;font-variant:normal;font-weight:normal;font-stretch:normal;font-family:'Tlwg Mono';-inkscape-font-specification:'Tlwg Mono'"
         id="path4239" />
      <path
         d="m 117.51949,183.68523 v 4.08 q 2.76,-2.52 4.48,-3.48 1.72,-1 3.24,-1 1.6,0 3.08,1.24 0.92,0.76 0.92,1.24 0,0.36 -0.24,0.6 -0.24,0.24 -0.6,0.24 -0.32,0 -0.64,-0.32 -1.4,-1.36 -2.64,-1.36 -1.36,0 -2.84,0.96 -1.44,0.96 -4.76,4 v 8.84 h 7.16 q 1.08,0 1.08,0.84 0,0.8 -1.08,0.8 h -12.64 q -1.08,0 -1.08,-0.84 0,-0.8 1.08,-0.8 h 3.84 v -13.4 h -3 q -1.08,0 -1.08,-0.84 0,-0.8 1.08,-0.8 z"
         style="font-style:normal;font-variant:normal;font-weight:normal;font-stretch:normal;font-family:'Tlwg Mono';-inkscape-font-specification:'Tlwg Mono'"
         id="path4241" />
      <path
         d="m 145.03943,200.36523 h -2.8 l -6.72,-15.04 h -1.64 q -1.08,0 -1.08,-0.84 0,-0.8 1.08,-0.8 h 6.04 q 1.12,0 1.12,0.8 0,0.84 -1.12,0.84 h -2.6 l 6,13.4 h 0.76 l 5.88,-13.4 h -2.72 q -1.08,0 -1.08,-0.84 0,-0.8 1.08,-0.8 h 6.08 q 1.08,0 1.08,0.8 0,0.84 -1.08,0.84 h -1.64 z"
         style="font-style:normal;font-variant:normal;font-weight:normal;font-stretch:normal;font-family:'Tlwg Mono';-inkscape-font-specification:'Tlwg Mono'"
         id="path4243" />
      <path
         d="m 176.39937,192.40523 h -16.64 q 0.44,3.16 2.64,5.08 2.2,1.88 5.44,1.88 1.88,0 3.84,-0.6 1.96,-0.6 3.16,-1.56 0.4,-0.28 0.64,-0.28 0.32,0 0.52,0.24 0.24,0.24 0.24,0.56 0,1.04 -2.88,2.16 -2.84,1.12 -5.56,1.12 -4.04,0 -6.88,-2.72 -2.8,-2.72 -2.8,-6.6 0,-3.64 2.64,-6.08 2.64,-2.48 6.48,-2.48 2.88,0 5.12,1.44 2.28,1.44 3.36,3.92 0.68,1.6 0.68,3.92 z m -16.64,-1.64 h 14.96 q -0.48,-2.72 -2.52,-4.36 -2.04,-1.64 -4.96,-1.64 -2.92,0 -4.92,1.64 -2,1.6 -2.56,4.36 z"
         style="font-style:normal;font-variant:normal;font-weight:normal;font-stretch:normal;font-family:'Tlwg Mono';-inkscape-font-specification:'Tlwg Mono'"
         id="path4245" />
      <path
         d="m 189.5193,183.68523 v 4.08 q 2.76,-2.52 4.48,-3.48 1.72,-1 3.24,-1 1.6,0 3.08,1.24 0.92,0.76 0.92,1.24 0,0.36 -0.24,0.6 -0.24,0.24 -0.6,0.24 -0.32,0 -0.64,-0.32 -1.4,-1.36 -2.64,-1.36 -1.36,0 -2.84,0.96 -1.44,0.96 -4.76,4 v 8.84 h 7.16 q 1.08,0 1.08,0.84 0,0.8 -1.08,0.8 h -12.64 q -1.08,0 -1.08,-0.84 0,-0.8 1.08,-0.8 h 3.84 v -13.4 h -3 q -1.08,0 -1.08,-0.84 0,-0.8 1.08,-0.8 z"
         style="font-style:normal;font-variant:normal;font-weight:normal;font-stretch:normal;font-family:'Tlwg Mono';-inkscape-font-specification:'Tlwg Mono'"
         id="path4247" />
      <path
         d="m 215.39924,195.72523 h 0.4 q 1.16,0 1.96,0.76 0.8,0.72 0.8,1.84 0,1.12 -0.8,1.88 -0.8,0.76 -1.96,0.76 h -0.4 q -1.16,0 -1.96,-0.76 -0.8,-0.76 -0.8,-1.88 0,-1.12 0.8,-1.84 0.8,-0.76 1.96,-0.76 z"
         style="font-style:normal;font-variant:normal;font-weight:normal;font-stretch:normal;font-family:'Tlwg Mono';-inkscape-font-specification:'Tlwg Mono'"
         id="path4249" />
      <path
         d="m 234.19918,190.32523 v 8.4 h 3 q 1.08,0 1.08,0.8 0,0.84 -1.08,0.84 h -6.8 q -1.08,0 -1.08,-0.84 0,-0.8 1.08,-0.8 h 2.16 v -19.24 h -2.16 q -1.08,0 -1.08,-0.84 0,-0.8 1.08,-0.8 h 9.92 q 2.92,0 5.04,1.88 2.16,1.84 2.16,4.36 0,3.88 -5.56,5.8 1.88,1.28 3.16,2.92 1.28,1.64 3.72,5.92 h 1.24 q 1.08,0 1.08,0.8 0,0.84 -1.08,0.84 h -2.28 q -2.64,-4.88 -4.36,-6.92 -1.68,-2.08 -3.96,-3.12 z m 0,-1.64 h 4.56 q 2.96,0 5.04,-1.36 2.08,-1.36 2.08,-3.28 0,-1.8 -1.72,-3.16 -1.68,-1.4 -3.84,-1.4 h -6.12 z"
         style="font-style:normal;font-variant:normal;font-weight:normal;font-stretch:normal;font-family:'Tlwg Mono';-inkscape-font-specification:'Tlwg Mono'"
         id="path4251" />
    </g>
    <rect
       style="opacity:1;fill:#e66969;fill-opacity:1;fill-rule:nonzero;stroke:none;stroke-width:0.5;stroke-linecap:round;stroke-linejoin:round;stroke-miterlimit:11.60000038;stroke-dasharray:2.99999996, 0.99999998999999995;stroke-dashoffset:0;stroke-opacity:0.98300967"
       id="rect3232"
       width="63.877415"
       height="52.117554"
       x="154.4818"
       y="165.23615"
       rx="5"
       ry="5" />
    <rect
       ry="5"
       rx="5"
       y="222.96637"
       x="154.4818"
       height="52.117554"
       width="63.877415"
       id="rect3234"
       style="opacity:1;fill:#e66969;fill-opacity:1;fill-rule:nonzero;stroke:none;stroke-width:0.5;stroke-linecap:round;stroke-linejoin:round;stroke-miterlimit:11.60000038;stroke-dasharray:2.99999996, 0.99999998999999995;stroke-dashoffset:0;stroke-opacity:0.98300967" />
    <rect
       style="opacity:1;fill:#e66969;fill-opacity:1;fill-rule:nonzero;stroke:none;stroke-width:0.5;stroke-linecap:round;stroke-linejoin:round;stroke-miterlimit:11.60000038;stroke-dasharray:2.99999996, 0.99999998999999995;stroke-dashoffset:0;stroke-opacity:0.98300967"
       id="rect3236"
       width="63.877415"
       height="52.117554"
       x="154.21452"
       y="106.97139"
       rx="5"
       ry="5" />
    <g
       aria-label="ui.R"
       transform="matrix(0.26458333,0,0,0.26458333,142.18739,123.61592)"
       style="font-style:normal;font-weight:normal;font-size:40px;line-height:1.25;font-family:sans-serif;letter-spacing:0px;word-spacing:0px;fill:#000000;fill-opacity:1;stroke:none"
       id="flowRoot3274">
      <path
         d="m 77.159609,200.36523 v -2.64 q -3.36,3.28 -7.28,3.28 -2.4,0 -3.88,-1.44 -1.44,-1.44 -1.44,-3.8 v -10.44 h -2.16 q -1.08,0 -1.08,-0.84 0,-0.8 1.08,-0.8 h 3.8 v 12.08 q 0,1.52 1.04,2.56 1.08,1.04 2.6,1.04 4,0 7.32,-3.6 v -10.44 h -2.96 q -1.12,0 -1.12,-0.84 0,-0.8 1.12,-0.8 h 4.6 v 15.04 h 1.36 q 1.08,0 1.08,0.8 0,0.84 -1.08,0.84 z"
         style="font-style:normal;font-variant:normal;font-weight:normal;font-stretch:normal;font-family:'Tlwg Mono';-inkscape-font-specification:'Tlwg Mono'"
         id="path4271" />
      <path
         d="m 96.399548,183.68523 v 15.04 h 6.400002 q 1.12,0 1.12,0.8 0,0.84 -1.12,0.84 H 88.359548 q -1.08,0 -1.08,-0.84 0,-0.8 1.08,-0.8 h 6.4 v -13.4 h -4.72 q -1.08,0 -1.08,-0.84 0,-0.8 1.08,-0.8 z m -0.08,-8.28 v 4.16 h -2.36 v -4.16 z"
         style="font-style:normal;font-variant:normal;font-weight:normal;font-stretch:normal;font-family:'Tlwg Mono';-inkscape-font-specification:'Tlwg Mono'"
         id="path4273" />
      <path
         d="m 119.39949,195.72523 h 0.4 q 1.16,0 1.96,0.76 0.8,0.72 0.8,1.84 0,1.12 -0.8,1.88 -0.8,0.76 -1.96,0.76 h -0.4 q -1.16,0 -1.96,-0.76 -0.8,-0.76 -0.8,-1.88 0,-1.12 0.8,-1.84 0.8,-0.76 1.96,-0.76 z"
         style="font-style:normal;font-variant:normal;font-weight:normal;font-stretch:normal;font-family:'Tlwg Mono';-inkscape-font-specification:'Tlwg Mono'"
         id="path4275" />
      <path
         d="m 138.19943,190.32523 v 8.4 h 3 q 1.08,0 1.08,0.8 0,0.84 -1.08,0.84 h -6.8 q -1.08,0 -1.08,-0.84 0,-0.8 1.08,-0.8 h 2.16 v -19.24 h -2.16 q -1.08,0 -1.08,-0.84 0,-0.8 1.08,-0.8 h 9.92 q 2.92,0 5.04,1.88 2.16,1.84 2.16,4.36 0,3.88 -5.56,5.8 1.88,1.28 3.16,2.92 1.28,1.64 3.72,5.92 h 1.24 q 1.08,0 1.08,0.8 0,0.84 -1.08,0.84 h -2.28 q -2.64,-4.88 -4.36,-6.92 -1.68,-2.08 -3.96,-3.12 z m 0,-1.64 h 4.56 q 2.96,0 5.04,-1.36 2.08,-1.36 2.08,-3.28 0,-1.8 -1.72,-3.16 -1.68,-1.4 -3.84,-1.4 h -6.12 z"
         style="font-style:normal;font-variant:normal;font-weight:normal;font-stretch:normal;font-family:'Tlwg Mono';-inkscape-font-specification:'Tlwg Mono'"
         id="path4277" />
    </g>
    <g
       aria-label="server.R"
       transform="matrix(0.26458333,0,0,0.26458333,141.90938,180.81161)"
       style="font-style:normal;font-weight:normal;font-size:40px;line-height:1.25;font-family:sans-serif;letter-spacing:0px;word-spacing:0px;fill:#000000;fill-opacity:1;stroke:none"
       id="flowRoot3282">
      <path
         d="m 76.879609,184.96523 v -0.16 q 0,-1.12 0.84,-1.12 0.8,0 0.8,1.12 v 2.76 q 0,1.08 -0.8,1.08 -0.72,0 -0.84,-0.92 -0.16,-1.36 -1.6,-2.16 -1.44,-0.8 -3.72,-0.8 -2.24,0 -3.72,0.88 -1.48,0.84 -1.48,2.12 0,1.08 1.28,1.8 0.68,0.44 1.36,0.6 0.68,0.12 3.28,0.4 3.44,0.4 5.2,1.56 2,1.36 2,3.6 0,2.28 -2.24,3.8 -2.2,1.48 -5.6,1.48 -3.84,0 -6.28,-2.16 v 0.44 q 0,1.08 -0.8,1.08 -0.84,0 -0.84,-1.08 v -3.32 q 0,-1.08 0.84,-1.08 0.8,0 0.8,0.88 v 0.28 q 0,1.36 1.8,2.36 1.8,0.96 4.36,0.96 2.64,0 4.4,-1.04 1.76,-1.04 1.76,-2.64 0,-1.56 -1.76,-2.52 -1.4,-0.76 -4.32,-1.08 -3.76,-0.4 -5.2,-1.28 -1.84,-1.2 -1.84,-3.16 0,-1.96 1.92,-3.24 1.96,-1.28 4.92,-1.28 3.4,0 5.48,1.84 z"
         style="font-style:normal;font-variant:normal;font-weight:normal;font-stretch:normal;font-family:'Tlwg Mono';-inkscape-font-specification:'Tlwg Mono'"
         id="path4254" />
      <path
         d="M 104.39955,192.40523 H 87.759548 q 0.44,3.16 2.64,5.08 2.2,1.88 5.44,1.88 1.88,0 3.84,-0.6 1.960002,-0.6 3.160002,-1.56 0.4,-0.28 0.64,-0.28 0.32,0 0.52,0.24 0.24,0.24 0.24,0.56 0,1.04 -2.88,2.16 -2.840002,1.12 -5.560002,1.12 -4.04,0 -6.88,-2.72 -2.8,-2.72 -2.8,-6.6 0,-3.64 2.64,-6.08 2.64,-2.48 6.48,-2.48 2.88,0 5.120002,1.44 2.28,1.44 3.36,3.92 0.68,1.6 0.68,3.92 z m -16.640002,-1.64 h 14.960002 q -0.48,-2.72 -2.52,-4.36 -2.040002,-1.64 -4.960002,-1.64 -2.92,0 -4.92,1.64 -2,1.6 -2.56,4.36 z"
         style="font-style:normal;font-variant:normal;font-weight:normal;font-stretch:normal;font-family:'Tlwg Mono';-inkscape-font-specification:'Tlwg Mono'"
         id="path4256" />
      <path
         d="m 117.51949,183.68523 v 4.08 q 2.76,-2.52 4.48,-3.48 1.72,-1 3.24,-1 1.6,0 3.08,1.24 0.92,0.76 0.92,1.24 0,0.36 -0.24,0.6 -0.24,0.24 -0.6,0.24 -0.32,0 -0.64,-0.32 -1.4,-1.36 -2.64,-1.36 -1.36,0 -2.84,0.96 -1.44,0.96 -4.76,4 v 8.84 h 7.16 q 1.08,0 1.08,0.84 0,0.8 -1.08,0.8 h -12.64 q -1.08,0 -1.08,-0.84 0,-0.8 1.08,-0.8 h 3.84 v -13.4 h -3 q -1.08,0 -1.08,-0.84 0,-0.8 1.08,-0.8 z"
         style="font-style:normal;font-variant:normal;font-weight:normal;font-stretch:normal;font-family:'Tlwg Mono';-inkscape-font-specification:'Tlwg Mono'"
         id="path4258" />
      <path
         d="m 145.03943,200.36523 h -2.8 l -6.72,-15.04 h -1.64 q -1.08,0 -1.08,-0.84 0,-0.8 1.08,-0.8 h 6.04 q 1.12,0 1.12,0.8 0,0.84 -1.12,0.84 h -2.6 l 6,13.4 h 0.76 l 5.88,-13.4 h -2.72 q -1.08,0 -1.08,-0.84 0,-0.8 1.08,-0.8 h 6.08 q 1.08,0 1.08,0.8 0,0.84 -1.08,0.84 h -1.64 z"
         style="font-style:normal;font-variant:normal;font-weight:normal;font-stretch:normal;font-family:'Tlwg Mono';-inkscape-font-specification:'Tlwg Mono'"
         id="path4260" />
      <path
         d="m 176.39937,192.40523 h -16.64 q 0.44,3.16 2.64,5.08 2.2,1.88 5.44,1.88 1.88,0 3.84,-0.6 1.96,-0.6 3.16,-1.56 0.4,-0.28 0.64,-0.28 0.32,0 0.52,0.24 0.24,0.24 0.24,0.56 0,1.04 -2.88,2.16 -2.84,1.12 -5.56,1.12 -4.04,0 -6.88,-2.72 -2.8,-2.72 -2.8,-6.6 0,-3.64 2.64,-6.08 2.64,-2.48 6.48,-2.48 2.88,0 5.12,1.44 2.28,1.44 3.36,3.92 0.68,1.6 0.68,3.92 z m -16.64,-1.64 h 14.96 q -0.48,-2.72 -2.52,-4.36 -2.04,-1.64 -4.96,-1.64 -2.92,0 -4.92,1.64 -2,1.6 -2.56,4.36 z"
         style="font-style:normal;font-variant:normal;font-weight:normal;font-stretch:normal;font-family:'Tlwg Mono';-inkscape-font-specification:'Tlwg Mono'"
         id="path4262" />
      <path
         d="m 189.5193,183.68523 v 4.08 q 2.76,-2.52 4.48,-3.48 1.72,-1 3.24,-1 1.6,0 3.08,1.24 0.92,0.76 0.92,1.24 0,0.36 -0.24,0.6 -0.24,0.24 -0.6,0.24 -0.32,0 -0.64,-0.32 -1.4,-1.36 -2.64,-1.36 -1.36,0 -2.84,0.96 -1.44,0.96 -4.76,4 v 8.84 h 7.16 q 1.08,0 1.08,0.84 0,0.8 -1.08,0.8 h -12.64 q -1.08,0 -1.08,-0.84 0,-0.8 1.08,-0.8 h 3.84 v -13.4 h -3 q -1.08,0 -1.08,-0.84 0,-0.8 1.08,-0.8 z"
         style="font-style:normal;font-variant:normal;font-weight:normal;font-stretch:normal;font-family:'Tlwg Mono';-inkscape-font-specification:'Tlwg Mono'"
         id="path4264" />
      <path
         d="m 215.39924,195.72523 h 0.4 q 1.16,0 1.96,0.76 0.8,0.72 0.8,1.84 0,1.12 -0.8,1.88 -0.8,0.76 -1.96,0.76 h -0.4 q -1.16,0 -1.96,-0.76 -0.8,-0.76 -0.8,-1.88 0,-1.12 0.8,-1.84 0.8,-0.76 1.96,-0.76 z"
         style="font-style:normal;font-variant:normal;font-weight:normal;font-stretch:normal;font-family:'Tlwg Mono';-inkscape-font-specification:'Tlwg Mono'"
         id="path4266" />
      <path
         d="m 234.19918,190.32523 v 8.4 h 3 q 1.08,0 1.08,0.8 0,0.84 -1.08,0.84 h -6.8 q -1.08,0 -1.08,-0.84 0,-0.8 1.08,-0.8 h 2.16 v -19.24 h -2.16 q -1.08,0 -1.08,-0.84 0,-0.8 1.08,-0.8 h 9.92 q 2.92,0 5.04,1.88 2.16,1.84 2.16,4.36 0,3.88 -5.56,5.8 1.88,1.28 3.16,2.92 1.28,1.64 3.72,5.92 h 1.24 q 1.08,0 1.08,0.8 0,0.84 -1.08,0.84 h -2.28 q -2.64,-4.88 -4.36,-6.92 -1.68,-2.08 -3.96,-3.12 z m 0,-1.64 h 4.56 q 2.96,0 5.04,-1.36 2.08,-1.36 2.08,-3.28 0,-1.8 -1.72,-3.16 -1.68,-1.4 -3.84,-1.4 h -6.12 z"
         style="font-style:normal;font-variant:normal;font-weight:normal;font-stretch:normal;font-family:'Tlwg Mono';-inkscape-font-specification:'Tlwg Mono'"
         id="path4268" />
    </g>
    <g
       aria-label="R/"
       transform="matrix(0.26458333,0,0,0.26458333,141.92012,65.92788)"
       style="font-style:normal;font-weight:normal;font-size:40px;line-height:1.25;font-family:sans-serif;letter-spacing:0px;word-spacing:0px;fill:#000000;fill-opacity:1;stroke:none"
       id="flowRoot3290">
      <path
         d="m 66.199609,190.32523 v 8.4 h 3 q 1.08,0 1.08,0.8 0,0.84 -1.08,0.84 h -6.8 q -1.08,0 -1.08,-0.84 0,-0.8 1.08,-0.8 h 2.16 v -19.24 h -2.16 q -1.08,0 -1.08,-0.84 0,-0.8 1.08,-0.8 h 9.92 q 2.92,0 5.04,1.88 2.16,1.84 2.16,4.36 0,3.88 -5.56,5.8 1.88,1.28 3.16,2.92 1.28,1.64 3.72,5.92 h 1.24 q 1.08,0 1.08,0.8 0,0.84 -1.08,0.84 h -2.28 q -2.64,-4.88 -4.36,-6.92 -1.68,-2.08 -3.96,-3.12 z m 0,-1.64 h 4.56 q 2.96,0 5.04,-1.36 2.08,-1.36 2.08,-3.28 0,-1.8 -1.72,-3.16 -1.68,-1.4 -3.84,-1.4 h -6.12 z"
         style="font-style:normal;font-variant:normal;font-weight:normal;font-stretch:normal;font-family:'Tlwg Mono';-inkscape-font-specification:'Tlwg Mono'"
         id="path4363" />
      <path
         d="m 102.87955,175.04523 -13.080002,27.84 q -0.36,0.72 -0.88,0.72 -0.32,0 -0.56,-0.24 -0.24,-0.24 -0.24,-0.52 0,-0.28 0.2,-0.64 l 13.080002,-27.84 q 0.36,-0.72 0.88,-0.72 0.32,0 0.56,0.24 0.24,0.24 0.24,0.52 0,0.24 -0.2,0.64 z"
         style="font-style:normal;font-variant:normal;font-weight:normal;font-stretch:normal;font-family:'Tlwg Mono';-inkscape-font-specification:'Tlwg Mono'"
         id="path4365" />
    </g>
    <rect
       ry="4.99999"
       rx="4.99999"
       y="125.94751"
       x="159.29263"
       height="13.096207"
       width="53.453903"
       id="rect3364"
       style="opacity:1;fill:#0acfd3;fill-opacity:1;fill-rule:nonzero;stroke:none;stroke-width:0.5;stroke-linecap:round;stroke-linejoin:round;stroke-miterlimit:11.60000038;stroke-dasharray:2.99999997, 1;stroke-dashoffset:0;stroke-opacity:0.98300967" />
    <rect
       style="opacity:1;fill:#0acfd3;fill-opacity:1;fill-rule:nonzero;stroke:none;stroke-width:0.5;stroke-linecap:round;stroke-linejoin:round;stroke-miterlimit:11.60000038;stroke-dasharray:2.99999997, 1;stroke-dashoffset:0;stroke-opacity:0.98300967"
       id="rect3366"
       width="53.453903"
       height="13.096207"
       x="159.29263"
       y="141.68951"
       rx="4.99999"
       ry="4.99999" />
    <g
       aria-label="load()"
       transform="matrix(0.26458333,0,0,0.26458333,146.99824,81.921873)"
       style="font-style:normal;font-weight:normal;font-size:40px;line-height:1.25;font-family:sans-serif;letter-spacing:0px;word-spacing:0px;fill:#000000;fill-opacity:1;stroke:none"
       id="flowRoot3374">
      <path
         d="m 72.399609,176.20523 v 22.52 h 6.4 q 1.12,0 1.12,0.8 0,0.84 -1.12,0.84 h -14.44 q -1.08,0 -1.08,-0.84 0,-0.8 1.08,-0.8 h 6.4 v -20.88 h -4.68 q -1.08,0 -1.08,-0.84 0,-0.8 1.08,-0.8 z"
         style="font-style:normal;font-variant:normal;font-weight:normal;font-stretch:normal;font-family:'Tlwg Mono';-inkscape-font-specification:'Tlwg Mono'"
         id="path4302" />
      <path
         d="m 95.599548,183.12523 q 3.84,0 6.480002,2.64 2.64,2.6 2.64,6.4 0,3.68 -2.68,6.28 -2.680002,2.56 -6.440002,2.56 -3.8,0 -6.48,-2.6 -2.64,-2.6 -2.64,-6.36 0,-3.68 2.64,-6.28 2.68,-2.64 6.48,-2.64 z m 0,1.64 q -3.12,0 -5.32,2.12 -2.16,2.12 -2.16,5.16 0,3.04 2.16,5.2 2.2,2.12 5.32,2.12 3.08,0 5.280002,-2.12 2.2,-2.12 2.2,-5.08 0,-3.16 -2.16,-5.28 -2.160002,-2.12 -5.320002,-2.12 z"
         style="font-style:normal;font-variant:normal;font-weight:normal;font-stretch:normal;font-family:'Tlwg Mono';-inkscape-font-specification:'Tlwg Mono'"
         id="path4304" />
      <path
         d="m 124.35949,200.36523 v -2.68 q -3.56,3.32 -7.64,3.32 -2.8,0 -4.52,-1.4 -1.72,-1.44 -1.72,-3.72 0,-2.6 2.32,-4.2 2.36,-1.64 6.12,-1.64 2.36,0 5.44,0.84 v -2.84 q 0,-1.48 -1.36,-2.36 -1.36,-0.92 -3.56,-0.92 -1.76,0 -5.68,1.2 -0.32,0.08 -0.4,0.08 -0.32,0 -0.56,-0.24 -0.2,-0.24 -0.2,-0.56 0,-0.6 0.68,-0.84 3.72,-1.28 6.28,-1.28 2.8,0 4.6,1.4 1.84,1.4 1.84,3.52 v 10.68 h 2.16 q 1.08,0 1.08,0.8 0,0.84 -1.08,0.84 z m 0,-4.48 v -3.6 q -2.4,-0.6 -5.12,-0.6 -3.16,0 -5.16,1.2 -1.96,1.16 -1.96,3.04 0,1.56 1.24,2.52 1.24,0.92 3.32,0.92 2.12,0 3.88,-0.8 1.8,-0.8 3.8,-2.68 z"
         style="font-style:normal;font-variant:normal;font-weight:normal;font-stretch:normal;font-family:'Tlwg Mono';-inkscape-font-specification:'Tlwg Mono'"
         id="path4306" />
      <path
         d="m 151.67943,176.20523 v 22.52 h 2.16 q 1.08,0 1.08,0.8 0,0.84 -1.08,0.84 h -3.8 v -3.56 q -2.84,4.2 -7.28,4.2 -3.56,0 -6.12,-2.64 -2.52,-2.64 -2.52,-6.32 0,-3.68 2.52,-6.28 2.56,-2.64 6.12,-2.64 4.4,0 7.28,4.16 v -9.44 h -2.16 q -1.08,0 -1.08,-0.84 0,-0.8 1.08,-0.8 z m -8.8,8.56 q -2.96,0 -5.04,2.12 -2.08,2.12 -2.08,5.16 0,3.08 2.08,5.2 2.08,2.12 5.08,2.12 2.96,0 5.04,-2.12 2.08,-2.12 2.08,-5.12 0,-3.12 -2.08,-5.24 -2.04,-2.12 -5.08,-2.12 z"
         style="font-style:normal;font-variant:normal;font-weight:normal;font-stretch:normal;font-family:'Tlwg Mono';-inkscape-font-specification:'Tlwg Mono'"
         id="path4308" />
      <path
         d="m 173.11937,176.20523 q 0.32,0 0.56,0.24 0.24,0.24 0.24,0.56 0,0.16 -0.12,0.44 -4,7.08 -4,13.32 0,6.12 4,13.32 0.12,0.28 0.12,0.44 0,0.32 -0.28,0.56 -0.24,0.24 -0.56,0.24 -0.52,0 -1.68,-1.88 -4.04,-6.72 -4.04,-12.8 0,-6.28 4.4,-13.08 0.84,-1.36 1.36,-1.36 z"
         style="font-style:normal;font-variant:normal;font-weight:normal;font-stretch:normal;font-family:'Tlwg Mono';-inkscape-font-specification:'Tlwg Mono'"
         id="path4310" />
      <path
         d="m 186.3193,176.20523 q 0.56,0 1.68,1.88 4.04,6.64 4.04,12.8 0,6.28 -4.4,13.08 -0.84,1.36 -1.36,1.36 -0.32,0 -0.56,-0.24 -0.24,-0.24 -0.24,-0.56 0,-0.16 0.12,-0.44 4,-7.08 4,-13.32 0,-6.16 -4,-13.32 -0.12,-0.32 -0.12,-0.44 0,-0.32 0.24,-0.56 0.28,-0.24 0.6,-0.24 z"
         style="font-style:normal;font-variant:normal;font-weight:normal;font-stretch:normal;font-family:'Tlwg Mono';-inkscape-font-specification:'Tlwg Mono'"
         id="path4312" />
    </g>
    <g
       aria-label="model()"
       transform="matrix(0.26458333,0,0,0.26458333,147.26551,97.958043)"
       style="font-style:normal;font-weight:normal;font-size:40px;line-height:1.25;font-family:sans-serif;letter-spacing:0px;word-spacing:0px;fill:#000000;fill-opacity:1;stroke:none"
       id="flowRoot3382">
      <path
         d="m 64.079609,183.68523 v 2.08 q 1,-1.44 1.96,-2.04 0.96,-0.6 2.24,-0.6 2.56,0 3.88,2.84 2.2,-2.84 4.52,-2.84 1.72,0 2.96,1.28 1.24,1.28 1.24,3.04 v 11.28 h 1.36 q 1.08,0 1.08,0.8 0,0.84 -1.08,0.84 h -2.96 v -12.76 q 0,-1.12 -0.8,-1.96 -0.8,-0.88 -1.84,-0.88 -2,0 -4.16,3.28 v 10.68 h 1.36 q 1.08,0 1.08,0.8 0,0.84 -1.08,0.84 h -2.96 v -12.64 q 0,-1.16 -0.8,-2.04 -0.76,-0.92 -1.8,-0.92 -2,0 -4.2,3.28 v 10.68 h 1.36 q 1.08,0 1.08,0.8 0,0.84 -1.08,0.84 h -4.36 q -1.04,0 -1.04,-0.84 0,-0.8 1.08,-0.8 h 1.36 v -13.4 h -1.36 q -1.08,0 -1.08,-0.84 0,-0.8 1.08,-0.8 z"
         style="font-style:normal;font-variant:normal;font-weight:normal;font-stretch:normal;font-family:'Tlwg Mono';-inkscape-font-specification:'Tlwg Mono'"
         id="path4315" />
      <path
         d="m 95.599548,183.12523 q 3.84,0 6.480002,2.64 2.64,2.6 2.64,6.4 0,3.68 -2.68,6.28 -2.680002,2.56 -6.440002,2.56 -3.8,0 -6.48,-2.6 -2.64,-2.6 -2.64,-6.36 0,-3.68 2.64,-6.28 2.68,-2.64 6.48,-2.64 z m 0,1.64 q -3.12,0 -5.32,2.12 -2.16,2.12 -2.16,5.16 0,3.04 2.16,5.2 2.2,2.12 5.32,2.12 3.08,0 5.280002,-2.12 2.2,-2.12 2.2,-5.08 0,-3.16 -2.16,-5.28 -2.160002,-2.12 -5.320002,-2.12 z"
         style="font-style:normal;font-variant:normal;font-weight:normal;font-stretch:normal;font-family:'Tlwg Mono';-inkscape-font-specification:'Tlwg Mono'"
         id="path4317" />
      <path
         d="m 127.67949,176.20523 v 22.52 h 2.16 q 1.08,0 1.08,0.8 0,0.84 -1.08,0.84 h -3.8 v -3.56 q -2.84,4.2 -7.28,4.2 -3.56,0 -6.12,-2.64 -2.52,-2.64 -2.52,-6.32 0,-3.68 2.52,-6.28 2.56,-2.64 6.12,-2.64 4.4,0 7.28,4.16 v -9.44 h -2.16 q -1.08,0 -1.08,-0.84 0,-0.8 1.08,-0.8 z m -8.8,8.56 q -2.96,0 -5.04,2.12 -2.08,2.12 -2.08,5.16 0,3.08 2.08,5.2 2.08,2.12 5.08,2.12 2.96,0 5.04,-2.12 2.08,-2.12 2.08,-5.12 0,-3.12 -2.08,-5.24 -2.04,-2.12 -5.08,-2.12 z"
         style="font-style:normal;font-variant:normal;font-weight:normal;font-stretch:normal;font-family:'Tlwg Mono';-inkscape-font-specification:'Tlwg Mono'"
         id="path4319" />
      <path
         d="m 152.39943,192.40523 h -16.64 q 0.44,3.16 2.64,5.08 2.2,1.88 5.44,1.88 1.88,0 3.84,-0.6 1.96,-0.6 3.16,-1.56 0.4,-0.28 0.64,-0.28 0.32,0 0.52,0.24 0.24,0.24 0.24,0.56 0,1.04 -2.88,2.16 -2.84,1.12 -5.56,1.12 -4.04,0 -6.88,-2.72 -2.8,-2.72 -2.8,-6.6 0,-3.64 2.64,-6.08 2.64,-2.48 6.48,-2.48 2.88,0 5.12,1.44 2.28,1.44 3.36,3.92 0.68,1.6 0.68,3.92 z m -16.64,-1.64 h 14.96 q -0.48,-2.72 -2.52,-4.36 -2.04,-1.64 -4.96,-1.64 -2.92,0 -4.92,1.64 -2,1.6 -2.56,4.36 z"
         style="font-style:normal;font-variant:normal;font-weight:normal;font-stretch:normal;font-family:'Tlwg Mono';-inkscape-font-specification:'Tlwg Mono'"
         id="path4321" />
      <path
         d="m 168.39937,176.20523 v 22.52 h 6.4 q 1.12,0 1.12,0.8 0,0.84 -1.12,0.84 h -14.44 q -1.08,0 -1.08,-0.84 0,-0.8 1.08,-0.8 h 6.4 v -20.88 h -4.68 q -1.08,0 -1.08,-0.84 0,-0.8 1.08,-0.8 z"
         style="font-style:normal;font-variant:normal;font-weight:normal;font-stretch:normal;font-family:'Tlwg Mono';-inkscape-font-specification:'Tlwg Mono'"
         id="path4323" />
      <path
         d="m 197.1193,176.20523 q 0.32,0 0.56,0.24 0.24,0.24 0.24,0.56 0,0.16 -0.12,0.44 -4,7.08 -4,13.32 0,6.12 4,13.32 0.12,0.28 0.12,0.44 0,0.32 -0.28,0.56 -0.24,0.24 -0.56,0.24 -0.52,0 -1.68,-1.88 -4.04,-6.72 -4.04,-12.8 0,-6.28 4.4,-13.08 0.84,-1.36 1.36,-1.36 z"
         style="font-style:normal;font-variant:normal;font-weight:normal;font-stretch:normal;font-family:'Tlwg Mono';-inkscape-font-specification:'Tlwg Mono'"
         id="path4325" />
      <path
         d="m 210.31924,176.20523 q 0.56,0 1.68,1.88 4.04,6.64 4.04,12.8 0,6.28 -4.4,13.08 -0.84,1.36 -1.36,1.36 -0.32,0 -0.56,-0.24 -0.24,-0.24 -0.24,-0.56 0,-0.16 0.12,-0.44 4,-7.08 4,-13.32 0,-6.16 -4,-13.32 -0.12,-0.32 -0.12,-0.44 0,-0.32 0.24,-0.56 0.28,-0.24 0.6,-0.24 z"
         style="font-style:normal;font-variant:normal;font-weight:normal;font-stretch:normal;font-family:'Tlwg Mono';-inkscape-font-specification:'Tlwg Mono'"
         id="path4327" />
    </g>
    <rect
       ry="5"
       rx="5"
       y="164.96887"
       x="224.77367"
       height="52.117554"
       width="63.877415"
       id="rect3238"
       style="opacity:1;fill:#e66969;fill-opacity:1;fill-rule:nonzero;stroke:none;stroke-width:0.5;stroke-linecap:round;stroke-linejoin:round;stroke-miterlimit:11.60000038;stroke-dasharray:2.99999996, 0.99999998999999995;stroke-dashoffset:0;stroke-opacity:0.98300967" />
    <rect
       style="opacity:1;fill:#e66969;fill-opacity:1;fill-rule:nonzero;stroke:none;stroke-width:0.5;stroke-linecap:round;stroke-linejoin:round;stroke-miterlimit:11.60000038;stroke-dasharray:2.99999996, 0.99999998999999995;stroke-dashoffset:0;stroke-opacity:0.98300967"
       id="rect3240"
       width="63.877415"
       height="52.117554"
       x="224.77367"
       y="222.6991"
       rx="5"
       ry="5" />
    <rect
       ry="5"
       rx="5"
       y="106.70411"
       x="224.50639"
       height="52.117554"
       width="63.877415"
       id="rect3242"
       style="opacity:1;fill:#e66969;fill-opacity:1;fill-rule:nonzero;stroke:none;stroke-width:0.5;stroke-linecap:round;stroke-linejoin:round;stroke-miterlimit:11.60000038;stroke-dasharray:2.99999996, 0.99999998999999995;stroke-dashoffset:0;stroke-opacity:0.98300967" />
    <g
       aria-label="ui.R"
       transform="matrix(0.26458333,0,0,0.26458333,213.01382,123.61592)"
       style="font-style:normal;font-weight:normal;font-size:40px;line-height:1.25;font-family:sans-serif;letter-spacing:0px;word-spacing:0px;fill:#000000;fill-opacity:1;stroke:none"
       id="flowRoot3298">
      <path
         d="m 77.159609,200.36523 v -2.64 q -3.36,3.28 -7.28,3.28 -2.4,0 -3.88,-1.44 -1.44,-1.44 -1.44,-3.8 v -10.44 h -2.16 q -1.08,0 -1.08,-0.84 0,-0.8 1.08,-0.8 h 3.8 v 12.08 q 0,1.52 1.04,2.56 1.08,1.04 2.6,1.04 4,0 7.32,-3.6 v -10.44 h -2.96 q -1.12,0 -1.12,-0.84 0,-0.8 1.12,-0.8 h 4.6 v 15.04 h 1.36 q 1.08,0 1.08,0.8 0,0.84 -1.08,0.84 z"
         style="font-style:normal;font-variant:normal;font-weight:normal;font-stretch:normal;font-family:'Tlwg Mono';-inkscape-font-specification:'Tlwg Mono'"
         id="path4280" />
      <path
         d="m 96.399548,183.68523 v 15.04 h 6.400002 q 1.12,0 1.12,0.8 0,0.84 -1.12,0.84 H 88.359548 q -1.08,0 -1.08,-0.84 0,-0.8 1.08,-0.8 h 6.4 v -13.4 h -4.72 q -1.08,0 -1.08,-0.84 0,-0.8 1.08,-0.8 z m -0.08,-8.28 v 4.16 h -2.36 v -4.16 z"
         style="font-style:normal;font-variant:normal;font-weight:normal;font-stretch:normal;font-family:'Tlwg Mono';-inkscape-font-specification:'Tlwg Mono'"
         id="path4282" />
      <path
         d="m 119.39949,195.72523 h 0.4 q 1.16,0 1.96,0.76 0.8,0.72 0.8,1.84 0,1.12 -0.8,1.88 -0.8,0.76 -1.96,0.76 h -0.4 q -1.16,0 -1.96,-0.76 -0.8,-0.76 -0.8,-1.88 0,-1.12 0.8,-1.84 0.8,-0.76 1.96,-0.76 z"
         style="font-style:normal;font-variant:normal;font-weight:normal;font-stretch:normal;font-family:'Tlwg Mono';-inkscape-font-specification:'Tlwg Mono'"
         id="path4284" />
      <path
         d="m 138.19943,190.32523 v 8.4 h 3 q 1.08,0 1.08,0.8 0,0.84 -1.08,0.84 h -6.8 q -1.08,0 -1.08,-0.84 0,-0.8 1.08,-0.8 h 2.16 v -19.24 h -2.16 q -1.08,0 -1.08,-0.84 0,-0.8 1.08,-0.8 h 9.92 q 2.92,0 5.04,1.88 2.16,1.84 2.16,4.36 0,3.88 -5.56,5.8 1.88,1.28 3.16,2.92 1.28,1.64 3.72,5.92 h 1.24 q 1.08,0 1.08,0.8 0,0.84 -1.08,0.84 h -2.28 q -2.64,-4.88 -4.36,-6.92 -1.68,-2.08 -3.96,-3.12 z m 0,-1.64 h 4.56 q 2.96,0 5.04,-1.36 2.08,-1.36 2.08,-3.28 0,-1.8 -1.72,-3.16 -1.68,-1.4 -3.84,-1.4 h -6.12 z"
         style="font-style:normal;font-variant:normal;font-weight:normal;font-stretch:normal;font-family:'Tlwg Mono';-inkscape-font-specification:'Tlwg Mono'"
         id="path4286" />
    </g>
    <g
       aria-label="server.R"
       transform="matrix(0.26458333,0,0,0.26458333,210.07385,179.47526)"
       style="font-style:normal;font-weight:normal;font-size:40px;line-height:1.25;font-family:sans-serif;letter-spacing:0px;word-spacing:0px;fill:#000000;fill-opacity:1;stroke:none"
       id="flowRoot3306">
      <path
         d="m 76.879609,184.96523 v -0.16 q 0,-1.12 0.84,-1.12 0.8,0 0.8,1.12 v 2.76 q 0,1.08 -0.8,1.08 -0.72,0 -0.84,-0.92 -0.16,-1.36 -1.6,-2.16 -1.44,-0.8 -3.72,-0.8 -2.24,0 -3.72,0.88 -1.48,0.84 -1.48,2.12 0,1.08 1.28,1.8 0.68,0.44 1.36,0.6 0.68,0.12 3.28,0.4 3.44,0.4 5.2,1.56 2,1.36 2,3.6 0,2.28 -2.24,3.8 -2.2,1.48 -5.6,1.48 -3.84,0 -6.28,-2.16 v 0.44 q 0,1.08 -0.8,1.08 -0.84,0 -0.84,-1.08 v -3.32 q 0,-1.08 0.84,-1.08 0.8,0 0.8,0.88 v 0.28 q 0,1.36 1.8,2.36 1.8,0.96 4.36,0.96 2.64,0 4.4,-1.04 1.76,-1.04 1.76,-2.64 0,-1.56 -1.76,-2.52 -1.4,-0.76 -4.32,-1.08 -3.76,-0.4 -5.2,-1.28 -1.84,-1.2 -1.84,-3.16 0,-1.96 1.92,-3.24 1.96,-1.28 4.92,-1.28 3.4,0 5.48,1.84 z"
         style="font-style:normal;font-variant:normal;font-weight:normal;font-stretch:normal;font-family:'Tlwg Mono';-inkscape-font-specification:'Tlwg Mono'"
         id="path4220" />
      <path
         d="M 104.39955,192.40523 H 87.759548 q 0.44,3.16 2.64,5.08 2.2,1.88 5.44,1.88 1.88,0 3.84,-0.6 1.960002,-0.6 3.160002,-1.56 0.4,-0.28 0.64,-0.28 0.32,0 0.52,0.24 0.24,0.24 0.24,0.56 0,1.04 -2.88,2.16 -2.840002,1.12 -5.560002,1.12 -4.04,0 -6.88,-2.72 -2.8,-2.72 -2.8,-6.6 0,-3.64 2.64,-6.08 2.64,-2.48 6.48,-2.48 2.88,0 5.120002,1.44 2.28,1.44 3.36,3.92 0.68,1.6 0.68,3.92 z m -16.640002,-1.64 h 14.960002 q -0.48,-2.72 -2.52,-4.36 -2.040002,-1.64 -4.960002,-1.64 -2.92,0 -4.92,1.64 -2,1.6 -2.56,4.36 z"
         style="font-style:normal;font-variant:normal;font-weight:normal;font-stretch:normal;font-family:'Tlwg Mono';-inkscape-font-specification:'Tlwg Mono'"
         id="path4222" />
      <path
         d="m 117.51949,183.68523 v 4.08 q 2.76,-2.52 4.48,-3.48 1.72,-1 3.24,-1 1.6,0 3.08,1.24 0.92,0.76 0.92,1.24 0,0.36 -0.24,0.6 -0.24,0.24 -0.6,0.24 -0.32,0 -0.64,-0.32 -1.4,-1.36 -2.64,-1.36 -1.36,0 -2.84,0.96 -1.44,0.96 -4.76,4 v 8.84 h 7.16 q 1.08,0 1.08,0.84 0,0.8 -1.08,0.8 h -12.64 q -1.08,0 -1.08,-0.84 0,-0.8 1.08,-0.8 h 3.84 v -13.4 h -3 q -1.08,0 -1.08,-0.84 0,-0.8 1.08,-0.8 z"
         style="font-style:normal;font-variant:normal;font-weight:normal;font-stretch:normal;font-family:'Tlwg Mono';-inkscape-font-specification:'Tlwg Mono'"
         id="path4224" />
      <path
         d="m 145.03943,200.36523 h -2.8 l -6.72,-15.04 h -1.64 q -1.08,0 -1.08,-0.84 0,-0.8 1.08,-0.8 h 6.04 q 1.12,0 1.12,0.8 0,0.84 -1.12,0.84 h -2.6 l 6,13.4 h 0.76 l 5.88,-13.4 h -2.72 q -1.08,0 -1.08,-0.84 0,-0.8 1.08,-0.8 h 6.08 q 1.08,0 1.08,0.8 0,0.84 -1.08,0.84 h -1.64 z"
         style="font-style:normal;font-variant:normal;font-weight:normal;font-stretch:normal;font-family:'Tlwg Mono';-inkscape-font-specification:'Tlwg Mono'"
         id="path4226" />
      <path
         d="m 176.39937,192.40523 h -16.64 q 0.44,3.16 2.64,5.08 2.2,1.88 5.44,1.88 1.88,0 3.84,-0.6 1.96,-0.6 3.16,-1.56 0.4,-0.28 0.64,-0.28 0.32,0 0.52,0.24 0.24,0.24 0.24,0.56 0,1.04 -2.88,2.16 -2.84,1.12 -5.56,1.12 -4.04,0 -6.88,-2.72 -2.8,-2.72 -2.8,-6.6 0,-3.64 2.64,-6.08 2.64,-2.48 6.48,-2.48 2.88,0 5.12,1.44 2.28,1.44 3.36,3.92 0.68,1.6 0.68,3.92 z m -16.64,-1.64 h 14.96 q -0.48,-2.72 -2.52,-4.36 -2.04,-1.64 -4.96,-1.64 -2.92,0 -4.92,1.64 -2,1.6 -2.56,4.36 z"
         style="font-style:normal;font-variant:normal;font-weight:normal;font-stretch:normal;font-family:'Tlwg Mono';-inkscape-font-specification:'Tlwg Mono'"
         id="path4228" />
      <path
         d="m 189.5193,183.68523 v 4.08 q 2.76,-2.52 4.48,-3.48 1.72,-1 3.24,-1 1.6,0 3.08,1.24 0.92,0.76 0.92,1.24 0,0.36 -0.24,0.6 -0.24,0.24 -0.6,0.24 -0.32,0 -0.64,-0.32 -1.4,-1.36 -2.64,-1.36 -1.36,0 -2.84,0.96 -1.44,0.96 -4.76,4 v 8.84 h 7.16 q 1.08,0 1.08,0.84 0,0.8 -1.08,0.8 h -12.64 q -1.08,0 -1.08,-0.84 0,-0.8 1.08,-0.8 h 3.84 v -13.4 h -3 q -1.08,0 -1.08,-0.84 0,-0.8 1.08,-0.8 z"
         style="font-style:normal;font-variant:normal;font-weight:normal;font-stretch:normal;font-family:'Tlwg Mono';-inkscape-font-specification:'Tlwg Mono'"
         id="path4230" />
      <path
         d="m 215.39924,195.72523 h 0.4 q 1.16,0 1.96,0.76 0.8,0.72 0.8,1.84 0,1.12 -0.8,1.88 -0.8,0.76 -1.96,0.76 h -0.4 q -1.16,0 -1.96,-0.76 -0.8,-0.76 -0.8,-1.88 0,-1.12 0.8,-1.84 0.8,-0.76 1.96,-0.76 z"
         style="font-style:normal;font-variant:normal;font-weight:normal;font-stretch:normal;font-family:'Tlwg Mono';-inkscape-font-specification:'Tlwg Mono'"
         id="path4232" />
      <path
         d="m 234.19918,190.32523 v 8.4 h 3 q 1.08,0 1.08,0.8 0,0.84 -1.08,0.84 h -6.8 q -1.08,0 -1.08,-0.84 0,-0.8 1.08,-0.8 h 2.16 v -19.24 h -2.16 q -1.08,0 -1.08,-0.84 0,-0.8 1.08,-0.8 h 9.92 q 2.92,0 5.04,1.88 2.16,1.84 2.16,4.36 0,3.88 -5.56,5.8 1.88,1.28 3.16,2.92 1.28,1.64 3.72,5.92 h 1.24 q 1.08,0 1.08,0.8 0,0.84 -1.08,0.84 h -2.28 q -2.64,-4.88 -4.36,-6.92 -1.68,-2.08 -3.96,-3.12 z m 0,-1.64 h 4.56 q 2.96,0 5.04,-1.36 2.08,-1.36 2.08,-3.28 0,-1.8 -1.72,-3.16 -1.68,-1.4 -3.84,-1.4 h -6.12 z"
         style="font-style:normal;font-variant:normal;font-weight:normal;font-stretch:normal;font-family:'Tlwg Mono';-inkscape-font-specification:'Tlwg Mono'"
         id="path4234" />
    </g>
    <g
       aria-label="R/"
       transform="matrix(0.26458333,0,0,0.26458333,211.67747,65.92788)"
       style="font-style:normal;font-weight:normal;font-size:40px;line-height:1.25;font-family:sans-serif;letter-spacing:0px;word-spacing:0px;fill:#000000;fill-opacity:1;stroke:none"
       id="flowRoot3314">
      <path
         d="m 66.199609,190.32523 v 8.4 h 3 q 1.08,0 1.08,0.8 0,0.84 -1.08,0.84 h -6.8 q -1.08,0 -1.08,-0.84 0,-0.8 1.08,-0.8 h 2.16 v -19.24 h -2.16 q -1.08,0 -1.08,-0.84 0,-0.8 1.08,-0.8 h 9.92 q 2.92,0 5.04,1.88 2.16,1.84 2.16,4.36 0,3.88 -5.56,5.8 1.88,1.28 3.16,2.92 1.28,1.64 3.72,5.92 h 1.24 q 1.08,0 1.08,0.8 0,0.84 -1.08,0.84 h -2.28 q -2.64,-4.88 -4.36,-6.92 -1.68,-2.08 -3.96,-3.12 z m 0,-1.64 h 4.56 q 2.96,0 5.04,-1.36 2.08,-1.36 2.08,-3.28 0,-1.8 -1.72,-3.16 -1.68,-1.4 -3.84,-1.4 h -6.12 z"
         style="font-style:normal;font-variant:normal;font-weight:normal;font-stretch:normal;font-family:'Tlwg Mono';-inkscape-font-specification:'Tlwg Mono'"
         id="path4358" />
      <path
         d="m 102.87955,175.04523 -13.080002,27.84 q -0.36,0.72 -0.88,0.72 -0.32,0 -0.56,-0.24 -0.24,-0.24 -0.24,-0.52 0,-0.28 0.2,-0.64 l 13.080002,-27.84 q 0.36,-0.72 0.88,-0.72 0.32,0 0.56,0.24 0.24,0.24 0.24,0.52 0,0.24 -0.2,0.64 z"
         style="font-style:normal;font-variant:normal;font-weight:normal;font-stretch:normal;font-family:'Tlwg Mono';-inkscape-font-specification:'Tlwg Mono'"
         id="path4360" />
    </g>
    <rect
       style="opacity:1;fill:#0acfd3;fill-opacity:1;fill-rule:nonzero;stroke:none;stroke-width:0.5;stroke-linecap:round;stroke-linejoin:round;stroke-miterlimit:11.60000038;stroke-dasharray:2.99999997, 1;stroke-dashoffset:0;stroke-opacity:0.98300967"
       id="rect3316"
       width="53.453903"
       height="13.096207"
       x="229.85179"
       y="184.21227"
       rx="4.99999"
       ry="4.99999" />
    <rect
       ry="4.99999"
       rx="4.99999"
       y="199.95427"
       x="229.85179"
       height="13.096207"
       width="53.453903"
       id="rect3318"
       style="opacity:1;fill:#0acfd3;fill-opacity:1;fill-rule:nonzero;stroke:none;stroke-width:0.5;stroke-linecap:round;stroke-linejoin:round;stroke-miterlimit:11.60000038;stroke-dasharray:2.99999997, 1;stroke-dashoffset:0;stroke-opacity:0.98300967" />
    <g
       aria-label="mod1()"
       transform="matrix(0.26458333,0,0,0.26458333,217.5574,140.18663)"
       style="font-style:normal;font-weight:normal;font-size:40px;line-height:1.25;font-family:sans-serif;letter-spacing:0px;word-spacing:0px;fill:#000000;fill-opacity:1;stroke:none"
       id="flowRoot3330">
      <path
         d="m 64.079609,183.68523 v 2.08 q 1,-1.44 1.96,-2.04 0.96,-0.6 2.24,-0.6 2.56,0 3.88,2.84 2.2,-2.84 4.52,-2.84 1.72,0 2.96,1.28 1.24,1.28 1.24,3.04 v 11.28 h 1.36 q 1.08,0 1.08,0.8 0,0.84 -1.08,0.84 h -2.96 v -12.76 q 0,-1.12 -0.8,-1.96 -0.8,-0.88 -1.84,-0.88 -2,0 -4.16,3.28 v 10.68 h 1.36 q 1.08,0 1.08,0.8 0,0.84 -1.08,0.84 h -2.96 v -12.64 q 0,-1.16 -0.8,-2.04 -0.76,-0.92 -1.8,-0.92 -2,0 -4.2,3.28 v 10.68 h 1.36 q 1.08,0 1.08,0.8 0,0.84 -1.08,0.84 h -4.36 q -1.04,0 -1.04,-0.84 0,-0.8 1.08,-0.8 h 1.36 v -13.4 h -1.36 q -1.08,0 -1.08,-0.84 0,-0.8 1.08,-0.8 z"
         style="font-style:normal;font-variant:normal;font-weight:normal;font-stretch:normal;font-family:'Tlwg Mono';-inkscape-font-specification:'Tlwg Mono'"
         id="path4289" />
      <path
         d="m 95.599548,183.12523 q 3.84,0 6.480002,2.64 2.64,2.6 2.64,6.4 0,3.68 -2.68,6.28 -2.680002,2.56 -6.440002,2.56 -3.8,0 -6.48,-2.6 -2.64,-2.6 -2.64,-6.36 0,-3.68 2.64,-6.28 2.68,-2.64 6.48,-2.64 z m 0,1.64 q -3.12,0 -5.32,2.12 -2.16,2.12 -2.16,5.16 0,3.04 2.16,5.2 2.2,2.12 5.32,2.12 3.08,0 5.280002,-2.12 2.2,-2.12 2.2,-5.08 0,-3.16 -2.16,-5.28 -2.160002,-2.12 -5.320002,-2.12 z"
         style="font-style:normal;font-variant:normal;font-weight:normal;font-stretch:normal;font-family:'Tlwg Mono';-inkscape-font-specification:'Tlwg Mono'"
         id="path4291" />
      <path
         d="m 127.67949,176.20523 v 22.52 h 2.16 q 1.08,0 1.08,0.8 0,0.84 -1.08,0.84 h -3.8 v -3.56 q -2.84,4.2 -7.28,4.2 -3.56,0 -6.12,-2.64 -2.52,-2.64 -2.52,-6.32 0,-3.68 2.52,-6.28 2.56,-2.64 6.12,-2.64 4.4,0 7.28,4.16 v -9.44 h -2.16 q -1.08,0 -1.08,-0.84 0,-0.8 1.08,-0.8 z m -8.8,8.56 q -2.96,0 -5.04,2.12 -2.08,2.12 -2.08,5.16 0,3.08 2.08,5.2 2.08,2.12 5.08,2.12 2.96,0 5.04,-2.12 2.08,-2.12 2.08,-5.12 0,-3.12 -2.08,-5.24 -2.04,-2.12 -5.08,-2.12 z"
         style="font-style:normal;font-variant:normal;font-weight:normal;font-stretch:normal;font-family:'Tlwg Mono';-inkscape-font-specification:'Tlwg Mono'"
         id="path4293" />
      <path
         d="m 144.43943,175.88523 v 22.84 h 5.56 q 1.08,0 1.08,0.8 0,0.84 -1.08,0.84 h -12.76 q -1.12,0 -1.12,-0.84 0,-0.8 1.12,-0.8 h 5.56 v -20.64 l -5.28,1.68 q -0.48,0.12 -0.56,0.12 -0.28,0 -0.52,-0.24 -0.24,-0.28 -0.24,-0.56 0,-0.6 0.84,-0.88 z"
         style="font-style:normal;font-variant:normal;font-weight:normal;font-stretch:normal;font-family:'Tlwg Mono';-inkscape-font-specification:'Tlwg Mono'"
         id="path4295" />
      <path
         d="m 173.11937,176.20523 q 0.32,0 0.56,0.24 0.24,0.24 0.24,0.56 0,0.16 -0.12,0.44 -4,7.08 -4,13.32 0,6.12 4,13.32 0.12,0.28 0.12,0.44 0,0.32 -0.28,0.56 -0.24,0.24 -0.56,0.24 -0.52,0 -1.68,-1.88 -4.04,-6.72 -4.04,-12.8 0,-6.28 4.4,-13.08 0.84,-1.36 1.36,-1.36 z"
         style="font-style:normal;font-variant:normal;font-weight:normal;font-stretch:normal;font-family:'Tlwg Mono';-inkscape-font-specification:'Tlwg Mono'"
         id="path4297" />
      <path
         d="m 186.3193,176.20523 q 0.56,0 1.68,1.88 4.04,6.64 4.04,12.8 0,6.28 -4.4,13.08 -0.84,1.36 -1.36,1.36 -0.32,0 -0.56,-0.24 -0.24,-0.24 -0.24,-0.56 0,-0.16 0.12,-0.44 4,-7.08 4,-13.32 0,-6.16 -4,-13.32 -0.12,-0.32 -0.12,-0.44 0,-0.32 0.24,-0.56 0.28,-0.24 0.6,-0.24 z"
         style="font-style:normal;font-variant:normal;font-weight:normal;font-stretch:normal;font-family:'Tlwg Mono';-inkscape-font-specification:'Tlwg Mono'"
         id="path4299" />
    </g>
    <flowRoot
       transform="matrix(0.26458333,0,0,0.26458333,217.82467,156.2228)"
       style="font-style:normal;font-weight:normal;font-size:40px;line-height:1.25;font-family:sans-serif;letter-spacing:0px;word-spacing:0px;fill:#000000;fill-opacity:1;stroke:none"
       id="flowRoot3338"
       xml:space="preserve"><flowRegion
         id="flowRegion3334"><rect
           y="163.36562"
           x="59.598999"
           height="148.49243"
           width="240.41631"
           id="rect3332" /></flowRegion><flowPara
         style="font-style:normal;font-variant:normal;font-weight:normal;font-stretch:normal;font-family:'Tlwg Mono';-inkscape-font-specification:'Tlwg Mono'"
         id="flowPara3336">mod2()</flowPara></flowRoot>    <rect
       ry="4.99999"
       rx="4.99999"
       y="239.80432"
       x="230.11906"
       height="13.096207"
       width="53.453903"
       id="rect3340"
       style="opacity:1;fill:#0acfd3;fill-opacity:1;fill-rule:nonzero;stroke:none;stroke-width:0.5;stroke-linecap:round;stroke-linejoin:round;stroke-miterlimit:11.60000038;stroke-dasharray:2.99999997, 1;stroke-dashoffset:0;stroke-opacity:0.98300967" />
    <rect
       style="opacity:1;fill:#0acfd3;fill-opacity:1;fill-rule:nonzero;stroke:none;stroke-width:0.5;stroke-linecap:round;stroke-linejoin:round;stroke-miterlimit:11.60000038;stroke-dasharray:2.99999997, 1;stroke-dashoffset:0;stroke-opacity:0.98300967"
       id="rect3342"
       width="53.453903"
       height="13.096207"
       x="230.11906"
       y="255.54633"
       rx="4.99999"
       ry="4.99999" />
    <g
       aria-label="mod1()"
       transform="matrix(0.26458333,0,0,0.26458333,217.82467,195.77869)"
       style="font-style:normal;font-weight:normal;font-size:40px;line-height:1.25;font-family:sans-serif;letter-spacing:0px;word-spacing:0px;fill:#000000;fill-opacity:1;stroke:none"
       id="flowRoot3350">
      <path
         d="m 64.079609,183.68523 v 2.08 q 1,-1.44 1.96,-2.04 0.96,-0.6 2.24,-0.6 2.56,0 3.88,2.84 2.2,-2.84 4.52,-2.84 1.72,0 2.96,1.28 1.24,1.28 1.24,3.04 v 11.28 h 1.36 q 1.08,0 1.08,0.8 0,0.84 -1.08,0.84 h -2.96 v -12.76 q 0,-1.12 -0.8,-1.96 -0.8,-0.88 -1.84,-0.88 -2,0 -4.16,3.28 v 10.68 h 1.36 q 1.08,0 1.08,0.8 0,0.84 -1.08,0.84 h -2.96 v -12.64 q 0,-1.16 -0.8,-2.04 -0.76,-0.92 -1.8,-0.92 -2,0 -4.2,3.28 v 10.68 h 1.36 q 1.08,0 1.08,0.8 0,0.84 -1.08,0.84 h -4.36 q -1.04,0 -1.04,-0.84 0,-0.8 1.08,-0.8 h 1.36 v -13.4 h -1.36 q -1.08,0 -1.08,-0.84 0,-0.8 1.08,-0.8 z"
         style="font-style:normal;font-variant:normal;font-weight:normal;font-stretch:normal;font-family:'Tlwg Mono';-inkscape-font-specification:'Tlwg Mono'"
         id="path4207" />
      <path
         d="m 95.599548,183.12523 q 3.84,0 6.480002,2.64 2.64,2.6 2.64,6.4 0,3.68 -2.68,6.28 -2.680002,2.56 -6.440002,2.56 -3.8,0 -6.48,-2.6 -2.64,-2.6 -2.64,-6.36 0,-3.68 2.64,-6.28 2.68,-2.64 6.48,-2.64 z m 0,1.64 q -3.12,0 -5.32,2.12 -2.16,2.12 -2.16,5.16 0,3.04 2.16,5.2 2.2,2.12 5.32,2.12 3.08,0 5.280002,-2.12 2.2,-2.12 2.2,-5.08 0,-3.16 -2.16,-5.28 -2.160002,-2.12 -5.320002,-2.12 z"
         style="font-style:normal;font-variant:normal;font-weight:normal;font-stretch:normal;font-family:'Tlwg Mono';-inkscape-font-specification:'Tlwg Mono'"
         id="path4209" />
      <path
         d="m 127.67949,176.20523 v 22.52 h 2.16 q 1.08,0 1.08,0.8 0,0.84 -1.08,0.84 h -3.8 v -3.56 q -2.84,4.2 -7.28,4.2 -3.56,0 -6.12,-2.64 -2.52,-2.64 -2.52,-6.32 0,-3.68 2.52,-6.28 2.56,-2.64 6.12,-2.64 4.4,0 7.28,4.16 v -9.44 h -2.16 q -1.08,0 -1.08,-0.84 0,-0.8 1.08,-0.8 z m -8.8,8.56 q -2.96,0 -5.04,2.12 -2.08,2.12 -2.08,5.16 0,3.08 2.08,5.2 2.08,2.12 5.08,2.12 2.96,0 5.04,-2.12 2.08,-2.12 2.08,-5.12 0,-3.12 -2.08,-5.24 -2.04,-2.12 -5.08,-2.12 z"
         style="font-style:normal;font-variant:normal;font-weight:normal;font-stretch:normal;font-family:'Tlwg Mono';-inkscape-font-specification:'Tlwg Mono'"
         id="path4211" />
      <path
         d="m 144.43943,175.88523 v 22.84 h 5.56 q 1.08,0 1.08,0.8 0,0.84 -1.08,0.84 h -12.76 q -1.12,0 -1.12,-0.84 0,-0.8 1.12,-0.8 h 5.56 v -20.64 l -5.28,1.68 q -0.48,0.12 -0.56,0.12 -0.28,0 -0.52,-0.24 -0.24,-0.28 -0.24,-0.56 0,-0.6 0.84,-0.88 z"
         style="font-style:normal;font-variant:normal;font-weight:normal;font-stretch:normal;font-family:'Tlwg Mono';-inkscape-font-specification:'Tlwg Mono'"
         id="path4213" />
      <path
         d="m 173.11937,176.20523 q 0.32,0 0.56,0.24 0.24,0.24 0.24,0.56 0,0.16 -0.12,0.44 -4,7.08 -4,13.32 0,6.12 4,13.32 0.12,0.28 0.12,0.44 0,0.32 -0.28,0.56 -0.24,0.24 -0.56,0.24 -0.52,0 -1.68,-1.88 -4.04,-6.72 -4.04,-12.8 0,-6.28 4.4,-13.08 0.84,-1.36 1.36,-1.36 z"
         style="font-style:normal;font-variant:normal;font-weight:normal;font-stretch:normal;font-family:'Tlwg Mono';-inkscape-font-specification:'Tlwg Mono'"
         id="path4215" />
      <path
         d="m 186.3193,176.20523 q 0.56,0 1.68,1.88 4.04,6.64 4.04,12.8 0,6.28 -4.4,13.08 -0.84,1.36 -1.36,1.36 -0.32,0 -0.56,-0.24 -0.24,-0.24 -0.24,-0.56 0,-0.16 0.12,-0.44 4,-7.08 4,-13.32 0,-6.16 -4,-13.32 -0.12,-0.32 -0.12,-0.44 0,-0.32 0.24,-0.56 0.28,-0.24 0.6,-0.24 z"
         style="font-style:normal;font-variant:normal;font-weight:normal;font-stretch:normal;font-family:'Tlwg Mono';-inkscape-font-specification:'Tlwg Mono'"
         id="path4217" />
    </g>
    <g
       aria-label="mod2()"
       transform="matrix(0.26458333,0,0,0.26458333,218.09194,211.81486)"
       style="font-style:normal;font-weight:normal;font-size:40px;line-height:1.25;font-family:sans-serif;letter-spacing:0px;word-spacing:0px;fill:#000000;fill-opacity:1;stroke:none"
       id="flowRoot3358">
      <path
         d="m 64.079609,183.68523 v 2.08 q 1,-1.44 1.96,-2.04 0.96,-0.6 2.24,-0.6 2.56,0 3.88,2.84 2.2,-2.84 4.52,-2.84 1.72,0 2.96,1.28 1.24,1.28 1.24,3.04 v 11.28 h 1.36 q 1.08,0 1.08,0.8 0,0.84 -1.08,0.84 h -2.96 v -12.76 q 0,-1.12 -0.8,-1.96 -0.8,-0.88 -1.84,-0.88 -2,0 -4.16,3.28 v 10.68 h 1.36 q 1.08,0 1.08,0.8 0,0.84 -1.08,0.84 h -2.96 v -12.64 q 0,-1.16 -0.8,-2.04 -0.76,-0.92 -1.8,-0.92 -2,0 -4.2,3.28 v 10.68 h 1.36 q 1.08,0 1.08,0.8 0,0.84 -1.08,0.84 h -4.36 q -1.04,0 -1.04,-0.84 0,-0.8 1.08,-0.8 h 1.36 v -13.4 h -1.36 q -1.08,0 -1.08,-0.84 0,-0.8 1.08,-0.8 z"
         style="font-style:normal;font-variant:normal;font-weight:normal;font-stretch:normal;font-family:'Tlwg Mono';-inkscape-font-specification:'Tlwg Mono'"
         id="path4194" />
      <path
         d="m 95.599548,183.12523 q 3.84,0 6.480002,2.64 2.64,2.6 2.64,6.4 0,3.68 -2.68,6.28 -2.680002,2.56 -6.440002,2.56 -3.8,0 -6.48,-2.6 -2.64,-2.6 -2.64,-6.36 0,-3.68 2.64,-6.28 2.68,-2.64 6.48,-2.64 z m 0,1.64 q -3.12,0 -5.32,2.12 -2.16,2.12 -2.16,5.16 0,3.04 2.16,5.2 2.2,2.12 5.32,2.12 3.08,0 5.280002,-2.12 2.2,-2.12 2.2,-5.08 0,-3.16 -2.16,-5.28 -2.160002,-2.12 -5.320002,-2.12 z"
         style="font-style:normal;font-variant:normal;font-weight:normal;font-stretch:normal;font-family:'Tlwg Mono';-inkscape-font-specification:'Tlwg Mono'"
         id="path4196" />
      <path
         d="m 127.67949,176.20523 v 22.52 h 2.16 q 1.08,0 1.08,0.8 0,0.84 -1.08,0.84 h -3.8 v -3.56 q -2.84,4.2 -7.28,4.2 -3.56,0 -6.12,-2.64 -2.52,-2.64 -2.52,-6.32 0,-3.68 2.52,-6.28 2.56,-2.64 6.12,-2.64 4.4,0 7.28,4.16 v -9.44 h -2.16 q -1.08,0 -1.08,-0.84 0,-0.8 1.08,-0.8 z m -8.8,8.56 q -2.96,0 -5.04,2.12 -2.08,2.12 -2.08,5.16 0,3.08 2.08,5.2 2.08,2.12 5.08,2.12 2.96,0 5.04,-2.12 2.08,-2.12 2.08,-5.12 0,-3.12 -2.08,-5.24 -2.04,-2.12 -5.08,-2.12 z"
         style="font-style:normal;font-variant:normal;font-weight:normal;font-stretch:normal;font-family:'Tlwg Mono';-inkscape-font-specification:'Tlwg Mono'"
         id="path4198" />
      <path
         d="m 136.51943,198.72523 h 12.56 v -1.44 q 0,-1.08 0.84,-1.08 0.8,0 0.8,1.08 v 3.08 h -15.76 v -2.4 l 9.44,-8.88 q 2.8,-2.76 3.64,-4 0.88,-1.24 0.88,-2.6 0,-2.08 -1.72,-3.64 -1.72,-1.56 -4,-1.56 -2.04,0 -3.72,1.2 -1.64,1.2 -2.12,3 -0.24,0.8 -0.84,0.8 -0.28,0 -0.52,-0.2 -0.24,-0.24 -0.24,-0.52 0,-1.28 1.28,-2.88 2.36,-3.04 6.16,-3.04 2.92,0 5.12,2.08 2.24,2.08 2.24,4.8 0,1.76 -1.04,3.24 -1,1.48 -4.72,5.12 -5.12,5.04 -8.28,7.72 z"
         style="font-style:normal;font-variant:normal;font-weight:normal;font-stretch:normal;font-family:'Tlwg Mono';-inkscape-font-specification:'Tlwg Mono'"
         id="path4200" />
      <path
         d="m 173.11937,176.20523 q 0.32,0 0.56,0.24 0.24,0.24 0.24,0.56 0,0.16 -0.12,0.44 -4,7.08 -4,13.32 0,6.12 4,13.32 0.12,0.28 0.12,0.44 0,0.32 -0.28,0.56 -0.24,0.24 -0.56,0.24 -0.52,0 -1.68,-1.88 -4.04,-6.72 -4.04,-12.8 0,-6.28 4.4,-13.08 0.84,-1.36 1.36,-1.36 z"
         style="font-style:normal;font-variant:normal;font-weight:normal;font-stretch:normal;font-family:'Tlwg Mono';-inkscape-font-specification:'Tlwg Mono'"
         id="path4202" />
      <path
         d="m 186.3193,176.20523 q 0.56,0 1.68,1.88 4.04,6.64 4.04,12.8 0,6.28 -4.4,13.08 -0.84,1.36 -1.36,1.36 -0.32,0 -0.56,-0.24 -0.24,-0.24 -0.24,-0.56 0,-0.16 0.12,-0.44 4,-7.08 4,-13.32 0,-6.16 -4,-13.32 -0.12,-0.32 -0.12,-0.44 0,-0.32 0.24,-0.56 0.28,-0.24 0.6,-0.24 z"
         style="font-style:normal;font-variant:normal;font-weight:normal;font-stretch:normal;font-family:'Tlwg Mono';-inkscape-font-specification:'Tlwg Mono'"
         id="path4204" />
    </g>
    <rect
       style="opacity:1;fill:#0acfd3;fill-opacity:1;fill-rule:nonzero;stroke:none;stroke-width:0.5;stroke-linecap:round;stroke-linejoin:round;stroke-miterlimit:11.60000038;stroke-dasharray:2.99999997, 1;stroke-dashoffset:0;stroke-opacity:0.98300967"
       id="rect3388"
       width="53.453903"
       height="13.096207"
       x="230.65359"
       y="126.21478"
       rx="4.99999"
       ry="4.99999" />
    <rect
       ry="4.99999"
       rx="4.99999"
       y="141.95679"
       x="230.65359"
       height="13.096207"
       width="53.453903"
       id="rect3390"
       style="opacity:1;fill:#0acfd3;fill-opacity:1;fill-rule:nonzero;stroke:none;stroke-width:0.5;stroke-linecap:round;stroke-linejoin:round;stroke-miterlimit:11.60000038;stroke-dasharray:2.99999997, 1;stroke-dashoffset:0;stroke-opacity:0.98300967" />
    <g
       aria-label="load()"
       transform="matrix(0.26458333,0,0,0.26458333,218.3592,82.189143)"
       style="font-style:normal;font-weight:normal;font-size:40px;line-height:1.25;font-family:sans-serif;letter-spacing:0px;word-spacing:0px;fill:#000000;fill-opacity:1;stroke:none"
       id="flowRoot3398">
      <path
         d="m 72.399609,176.20523 v 22.52 h 6.4 q 1.12,0 1.12,0.8 0,0.84 -1.12,0.84 h -14.44 q -1.08,0 -1.08,-0.84 0,-0.8 1.08,-0.8 h 6.4 v -20.88 h -4.68 q -1.08,0 -1.08,-0.84 0,-0.8 1.08,-0.8 z"
         style="font-style:normal;font-variant:normal;font-weight:normal;font-stretch:normal;font-family:'Tlwg Mono';-inkscape-font-specification:'Tlwg Mono'"
         id="path4345" />
      <path
         d="m 95.599548,183.12523 q 3.84,0 6.480002,2.64 2.64,2.6 2.64,6.4 0,3.68 -2.68,6.28 -2.680002,2.56 -6.440002,2.56 -3.8,0 -6.48,-2.6 -2.64,-2.6 -2.64,-6.36 0,-3.68 2.64,-6.28 2.68,-2.64 6.48,-2.64 z m 0,1.64 q -3.12,0 -5.32,2.12 -2.16,2.12 -2.16,5.16 0,3.04 2.16,5.2 2.2,2.12 5.32,2.12 3.08,0 5.280002,-2.12 2.2,-2.12 2.2,-5.08 0,-3.16 -2.16,-5.28 -2.160002,-2.12 -5.320002,-2.12 z"
         style="font-style:normal;font-variant:normal;font-weight:normal;font-stretch:normal;font-family:'Tlwg Mono';-inkscape-font-specification:'Tlwg Mono'"
         id="path4347" />
      <path
         d="m 124.35949,200.36523 v -2.68 q -3.56,3.32 -7.64,3.32 -2.8,0 -4.52,-1.4 -1.72,-1.44 -1.72,-3.72 0,-2.6 2.32,-4.2 2.36,-1.64 6.12,-1.64 2.36,0 5.44,0.84 v -2.84 q 0,-1.48 -1.36,-2.36 -1.36,-0.92 -3.56,-0.92 -1.76,0 -5.68,1.2 -0.32,0.08 -0.4,0.08 -0.32,0 -0.56,-0.24 -0.2,-0.24 -0.2,-0.56 0,-0.6 0.68,-0.84 3.72,-1.28 6.28,-1.28 2.8,0 4.6,1.4 1.84,1.4 1.84,3.52 v 10.68 h 2.16 q 1.08,0 1.08,0.8 0,0.84 -1.08,0.84 z m 0,-4.48 v -3.6 q -2.4,-0.6 -5.12,-0.6 -3.16,0 -5.16,1.2 -1.96,1.16 -1.96,3.04 0,1.56 1.24,2.52 1.24,0.92 3.32,0.92 2.12,0 3.88,-0.8 1.8,-0.8 3.8,-2.68 z"
         style="font-style:normal;font-variant:normal;font-weight:normal;font-stretch:normal;font-family:'Tlwg Mono';-inkscape-font-specification:'Tlwg Mono'"
         id="path4349" />
      <path
         d="m 151.67943,176.20523 v 22.52 h 2.16 q 1.08,0 1.08,0.8 0,0.84 -1.08,0.84 h -3.8 v -3.56 q -2.84,4.2 -7.28,4.2 -3.56,0 -6.12,-2.64 -2.52,-2.64 -2.52,-6.32 0,-3.68 2.52,-6.28 2.56,-2.64 6.12,-2.64 4.4,0 7.28,4.16 v -9.44 h -2.16 q -1.08,0 -1.08,-0.84 0,-0.8 1.08,-0.8 z m -8.8,8.56 q -2.96,0 -5.04,2.12 -2.08,2.12 -2.08,5.16 0,3.08 2.08,5.2 2.08,2.12 5.08,2.12 2.96,0 5.04,-2.12 2.08,-2.12 2.08,-5.12 0,-3.12 -2.08,-5.24 -2.04,-2.12 -5.08,-2.12 z"
         style="font-style:normal;font-variant:normal;font-weight:normal;font-stretch:normal;font-family:'Tlwg Mono';-inkscape-font-specification:'Tlwg Mono'"
         id="path4351" />
      <path
         d="m 173.11937,176.20523 q 0.32,0 0.56,0.24 0.24,0.24 0.24,0.56 0,0.16 -0.12,0.44 -4,7.08 -4,13.32 0,6.12 4,13.32 0.12,0.28 0.12,0.44 0,0.32 -0.28,0.56 -0.24,0.24 -0.56,0.24 -0.52,0 -1.68,-1.88 -4.04,-6.72 -4.04,-12.8 0,-6.28 4.4,-13.08 0.84,-1.36 1.36,-1.36 z"
         style="font-style:normal;font-variant:normal;font-weight:normal;font-stretch:normal;font-family:'Tlwg Mono';-inkscape-font-specification:'Tlwg Mono'"
         id="path4353" />
      <path
         d="m 186.3193,176.20523 q 0.56,0 1.68,1.88 4.04,6.64 4.04,12.8 0,6.28 -4.4,13.08 -0.84,1.36 -1.36,1.36 -0.32,0 -0.56,-0.24 -0.24,-0.24 -0.24,-0.56 0,-0.16 0.12,-0.44 4,-7.08 4,-13.32 0,-6.16 -4,-13.32 -0.12,-0.32 -0.12,-0.44 0,-0.32 0.24,-0.56 0.28,-0.24 0.6,-0.24 z"
         style="font-style:normal;font-variant:normal;font-weight:normal;font-stretch:normal;font-family:'Tlwg Mono';-inkscape-font-specification:'Tlwg Mono'"
         id="path4355" />
    </g>
    <g
       aria-label="model()"
       transform="matrix(0.26458333,0,0,0.26458333,218.62647,98.225313)"
       style="font-style:normal;font-weight:normal;font-size:40px;line-height:1.25;font-family:sans-serif;letter-spacing:0px;word-spacing:0px;fill:#000000;fill-opacity:1;stroke:none"
       id="flowRoot3406">
      <path
         d="m 64.079609,183.68523 v 2.08 q 1,-1.44 1.96,-2.04 0.96,-0.6 2.24,-0.6 2.56,0 3.88,2.84 2.2,-2.84 4.52,-2.84 1.72,0 2.96,1.28 1.24,1.28 1.24,3.04 v 11.28 h 1.36 q 1.08,0 1.08,0.8 0,0.84 -1.08,0.84 h -2.96 v -12.76 q 0,-1.12 -0.8,-1.96 -0.8,-0.88 -1.84,-0.88 -2,0 -4.16,3.28 v 10.68 h 1.36 q 1.08,0 1.08,0.8 0,0.84 -1.08,0.84 h -2.96 v -12.64 q 0,-1.16 -0.8,-2.04 -0.76,-0.92 -1.8,-0.92 -2,0 -4.2,3.28 v 10.68 h 1.36 q 1.08,0 1.08,0.8 0,0.84 -1.08,0.84 h -4.36 q -1.04,0 -1.04,-0.84 0,-0.8 1.08,-0.8 h 1.36 v -13.4 h -1.36 q -1.08,0 -1.08,-0.84 0,-0.8 1.08,-0.8 z"
         style="font-style:normal;font-variant:normal;font-weight:normal;font-stretch:normal;font-family:'Tlwg Mono';-inkscape-font-specification:'Tlwg Mono'"
         id="path4330" />
      <path
         d="m 95.599548,183.12523 q 3.84,0 6.480002,2.64 2.64,2.6 2.64,6.4 0,3.68 -2.68,6.28 -2.680002,2.56 -6.440002,2.56 -3.8,0 -6.48,-2.6 -2.64,-2.6 -2.64,-6.36 0,-3.68 2.64,-6.28 2.68,-2.64 6.48,-2.64 z m 0,1.64 q -3.12,0 -5.32,2.12 -2.16,2.12 -2.16,5.16 0,3.04 2.16,5.2 2.2,2.12 5.32,2.12 3.08,0 5.280002,-2.12 2.2,-2.12 2.2,-5.08 0,-3.16 -2.16,-5.28 -2.160002,-2.12 -5.320002,-2.12 z"
         style="font-style:normal;font-variant:normal;font-weight:normal;font-stretch:normal;font-family:'Tlwg Mono';-inkscape-font-specification:'Tlwg Mono'"
         id="path4332" />
      <path
         d="m 127.67949,176.20523 v 22.52 h 2.16 q 1.08,0 1.08,0.8 0,0.84 -1.08,0.84 h -3.8 v -3.56 q -2.84,4.2 -7.28,4.2 -3.56,0 -6.12,-2.64 -2.52,-2.64 -2.52,-6.32 0,-3.68 2.52,-6.28 2.56,-2.64 6.12,-2.64 4.4,0 7.28,4.16 v -9.44 h -2.16 q -1.08,0 -1.08,-0.84 0,-0.8 1.08,-0.8 z m -8.8,8.56 q -2.96,0 -5.04,2.12 -2.08,2.12 -2.08,5.16 0,3.08 2.08,5.2 2.08,2.12 5.08,2.12 2.96,0 5.04,-2.12 2.08,-2.12 2.08,-5.12 0,-3.12 -2.08,-5.24 -2.04,-2.12 -5.08,-2.12 z"
         style="font-style:normal;font-variant:normal;font-weight:normal;font-stretch:normal;font-family:'Tlwg Mono';-inkscape-font-specification:'Tlwg Mono'"
         id="path4334" />
      <path
         d="m 152.39943,192.40523 h -16.64 q 0.44,3.16 2.64,5.08 2.2,1.88 5.44,1.88 1.88,0 3.84,-0.6 1.96,-0.6 3.16,-1.56 0.4,-0.28 0.64,-0.28 0.32,0 0.52,0.24 0.24,0.24 0.24,0.56 0,1.04 -2.88,2.16 -2.84,1.12 -5.56,1.12 -4.04,0 -6.88,-2.72 -2.8,-2.72 -2.8,-6.6 0,-3.64 2.64,-6.08 2.64,-2.48 6.48,-2.48 2.88,0 5.12,1.44 2.28,1.44 3.36,3.92 0.68,1.6 0.68,3.92 z m -16.64,-1.64 h 14.96 q -0.48,-2.72 -2.52,-4.36 -2.04,-1.64 -4.96,-1.64 -2.92,0 -4.92,1.64 -2,1.6 -2.56,4.36 z"
         style="font-style:normal;font-variant:normal;font-weight:normal;font-stretch:normal;font-family:'Tlwg Mono';-inkscape-font-specification:'Tlwg Mono'"
         id="path4336" />
      <path
         d="m 168.39937,176.20523 v 22.52 h 6.4 q 1.12,0 1.12,0.8 0,0.84 -1.12,0.84 h -14.44 q -1.08,0 -1.08,-0.84 0,-0.8 1.08,-0.8 h 6.4 v -20.88 h -4.68 q -1.08,0 -1.08,-0.84 0,-0.8 1.08,-0.8 z"
         style="font-style:normal;font-variant:normal;font-weight:normal;font-stretch:normal;font-family:'Tlwg Mono';-inkscape-font-specification:'Tlwg Mono'"
         id="path4338" />
      <path
         d="m 197.1193,176.20523 q 0.32,0 0.56,0.24 0.24,0.24 0.24,0.56 0,0.16 -0.12,0.44 -4,7.08 -4,13.32 0,6.12 4,13.32 0.12,0.28 0.12,0.44 0,0.32 -0.28,0.56 -0.24,0.24 -0.56,0.24 -0.52,0 -1.68,-1.88 -4.04,-6.72 -4.04,-12.8 0,-6.28 4.4,-13.08 0.84,-1.36 1.36,-1.36 z"
         style="font-style:normal;font-variant:normal;font-weight:normal;font-stretch:normal;font-family:'Tlwg Mono';-inkscape-font-specification:'Tlwg Mono'"
         id="path4340" />
      <path
         d="m 210.31924,176.20523 q 0.56,0 1.68,1.88 4.04,6.64 4.04,12.8 0,6.28 -4.4,13.08 -0.84,1.36 -1.36,1.36 -0.32,0 -0.56,-0.24 -0.24,-0.24 -0.24,-0.56 0,-0.16 0.12,-0.44 4,-7.08 4,-13.32 0,-6.16 -4,-13.32 -0.12,-0.32 -0.12,-0.44 0,-0.32 0.24,-0.56 0.28,-0.24 0.6,-0.24 z"
         style="font-style:normal;font-variant:normal;font-weight:normal;font-stretch:normal;font-family:'Tlwg Mono';-inkscape-font-specification:'Tlwg Mono'"
         id="path4342" />
    </g>
    <flowRoot
       xml:space="preserve"
       id="flowRoot4186"
       style="fill:black;fill-opacity:1;stroke:none;font-family:sans-serif;font-style:normal;font-weight:normal;font-size:40px;line-height:1.25;letter-spacing:0px;word-spacing:0px"><flowRegion
         id="flowRegion4188"><rect
           id="rect4190"
           width="1576.8481"
           height="891.96472"
           x="-167.68532"
           y="-79.070992" /></flowRegion><flowPara
         id="flowPara4192"></flowPara></flowRoot>  </g>
</svg>
