<?xml version="1.0" encoding="UTF-8" standalone="no"?>
<!-- Created with Inkscape (http://www.inkscape.org/) -->

<svg
   xmlns:dc="http://purl.org/dc/elements/1.1/"
   xmlns:cc="http://creativecommons.org/ns#"
   xmlns:rdf="http://www.w3.org/1999/02/22-rdf-syntax-ns#"
   xmlns:svg="http://www.w3.org/2000/svg"
   xmlns="http://www.w3.org/2000/svg"
   xmlns:sodipodi="http://sodipodi.sourceforge.net/DTD/sodipodi-0.dtd"
   xmlns:inkscape="http://www.inkscape.org/namespaces/inkscape"
   width="63.877415mm"
   height="169.18161mm"
   viewBox="0 0 63.877415 169.18161"
   version="1.1"
   id="svg4409"
   inkscape:version="0.92.5 (2060ec1f9f, 2020-04-08)"
   sodipodi:docname="app_arch_1.svg">
  <defs
     id="defs4403" />
  <sodipodi:namedview
     id="base"
     pagecolor="#ffffff"
     bordercolor="#666666"
     borderopacity="1.0"
     inkscape:pageopacity="0.0"
     inkscape:pageshadow="2"
     inkscape:zoom="0.35"
     inkscape:cx="-767.85822"
     inkscape:cy="362.57044"
     inkscape:document-units="mm"
     inkscape:current-layer="layer1"
     showgrid="false"
     inkscape:window-width="3840"
     inkscape:window-height="2032"
     inkscape:window-x="0"
     inkscape:window-y="54"
     inkscape:window-maximized="1" />
  <metadata
     id="metadata4406">
    <rdf:RDF>
      <cc:Work
         rdf:about="">
        <dc:format>image/svg+xml</dc:format>
        <dc:type
           rdf:resource="http://purl.org/dc/dcmitype/StillImage" />
        <dc:title></dc:title>
      </cc:Work>
    </rdf:RDF>
  </metadata>
  <g
     inkscape:label="Layer 1"
     inkscape:groupmode="layer"
     id="layer1"
     transform="translate(-81.454155,-75.581818)">
    <rect
       style="opacity:1;fill:#e66969;fill-opacity:1;fill-rule:nonzero;stroke:none;stroke-width:0.5;stroke-linecap:round;stroke-linejoin:round;stroke-miterlimit:11.60000038;stroke-dasharray:2.99999999, 1;stroke-dashoffset:0;stroke-opacity:0.98300967"
       id="rect3226"
       width="63.877415"
       height="169.18161"
       x="81.454155"
       y="75.581818"
       rx="5"
       ry="5" />
    <g
       aria-label="app.R"
       transform="matrix(0.26458333,0,0,0.26458333,71.03064,33.961607)"
       style="font-style:normal;font-weight:normal;font-size:40px;line-height:1.25;font-family:sans-serif;letter-spacing:0px;word-spacing:0px;fill:#000000;fill-opacity:1;stroke:none"
       id="flowRoot3244">
      <path
         inkscape:connector-curvature="0"
         d="m 76.359609,200.36523 v -2.68 q -3.56,3.32 -7.64,3.32 -2.8,0 -4.52,-1.4 -1.72,-1.44 -1.72,-3.72 0,-2.6 2.32,-4.2 2.36,-1.64 6.12,-1.64 2.36,0 5.44,0.84 v -2.84 q 0,-1.48 -1.36,-2.36 -1.36,-0.92 -3.56,-0.92 -1.76,0 -5.68,1.2 -0.32,0.08 -0.4,0.08 -0.32,0 -0.56,-0.24 -0.2,-0.24 -0.2,-0.56 0,-0.6 0.68,-0.84 3.72,-1.28 6.28,-1.28 2.8,0 4.6,1.4 1.84,1.4 1.84,3.52 v 10.68 h 2.16 q 1.08,0 1.08,0.8 0,0.84 -1.08,0.84 z m 0,-4.48 v -3.6 q -2.4,-0.6 -5.12,-0.6 -3.16,0 -5.16,1.2 -1.96,1.16 -1.96,3.04 0,1.56 1.24,2.52 1.24,0.92 3.32,0.92 2.12,0 3.88,-0.8 1.8,-0.8 3.8,-2.68 z"
         style="font-style:normal;font-variant:normal;font-weight:normal;font-stretch:normal;font-family:'Tlwg Mono';-inkscape-font-specification:'Tlwg Mono'"
         id="path4377" />
      <path
         inkscape:connector-curvature="0"
         d="m 96.479548,184.76523 q -2.96,0 -5.04,2.12 -2.08,2.12 -2.08,5.16 0,3.04 2.08,5.2 2.08,2.12 5.04,2.12 2.92,0 5.000002,-2.12 2.12,-2.12 2.12,-5.08 0,-3.12 -2.08,-5.24 -2.040002,-2.16 -5.040002,-2.16 z m -7.12,12.08 v 9.32 h 3.92 q 1.08,0 1.08,0.8 0,0.84 -1.08,0.84 h -7.72 q -1.08,0 -1.08,-0.84 0,-0.8 1.08,-0.8 h 2.16 v -20.84 h -2.16 q -1.08,0 -1.08,-0.84 0,-0.8 1.08,-0.8 h 3.8 v 3.56 q 2.88,-4.12 7.2,-4.12 3.640002,0 6.160002,2.56 2.52,2.56 2.52,6.28 0,3.76 -2.56,6.4 -2.52,2.64 -6.120002,2.64 -4.36,0 -7.2,-4.16 z"
         style="font-style:normal;font-variant:normal;font-weight:normal;font-stretch:normal;font-family:'Tlwg Mono';-inkscape-font-specification:'Tlwg Mono'"
         id="path4379" />
      <path
         inkscape:connector-curvature="0"
         d="m 120.47949,184.76523 q -2.96,0 -5.04,2.12 -2.08,2.12 -2.08,5.16 0,3.04 2.08,5.2 2.08,2.12 5.04,2.12 2.92,0 5,-2.12 2.12,-2.12 2.12,-5.08 0,-3.12 -2.08,-5.24 -2.04,-2.16 -5.04,-2.16 z m -7.12,12.08 v 9.32 h 3.92 q 1.08,0 1.08,0.8 0,0.84 -1.08,0.84 h -7.72 q -1.08,0 -1.08,-0.84 0,-0.8 1.08,-0.8 h 2.16 v -20.84 h -2.16 q -1.08,0 -1.08,-0.84 0,-0.8 1.08,-0.8 h 3.8 v 3.56 q 2.88,-4.12 7.2,-4.12 3.64,0 6.16,2.56 2.52,2.56 2.52,6.28 0,3.76 -2.56,6.4 -2.52,2.64 -6.12,2.64 -4.36,0 -7.2,-4.16 z"
         style="font-style:normal;font-variant:normal;font-weight:normal;font-stretch:normal;font-family:'Tlwg Mono';-inkscape-font-specification:'Tlwg Mono'"
         id="path4381" />
      <path
         inkscape:connector-curvature="0"
         d="m 143.39943,195.72523 h 0.4 q 1.16,0 1.96,0.76 0.8,0.72 0.8,1.84 0,1.12 -0.8,1.88 -0.8,0.76 -1.96,0.76 h -0.4 q -1.16,0 -1.96,-0.76 -0.8,-0.76 -0.8,-1.88 0,-1.12 0.8,-1.84 0.8,-0.76 1.96,-0.76 z"
         style="font-style:normal;font-variant:normal;font-weight:normal;font-stretch:normal;font-family:'Tlwg Mono';-inkscape-font-specification:'Tlwg Mono'"
         id="path4383" />
      <path
         inkscape:connector-curvature="0"
         d="m 162.19937,190.32523 v 8.4 h 3 q 1.08,0 1.08,0.8 0,0.84 -1.08,0.84 h -6.8 q -1.08,0 -1.08,-0.84 0,-0.8 1.08,-0.8 h 2.16 v -19.24 h -2.16 q -1.08,0 -1.08,-0.84 0,-0.8 1.08,-0.8 h 9.92 q 2.92,0 5.04,1.88 2.16,1.84 2.16,4.36 0,3.88 -5.56,5.8 1.88,1.28 3.16,2.92 1.28,1.64 3.72,5.92 h 1.24 q 1.08,0 1.08,0.8 0,0.84 -1.08,0.84 h -2.28 q -2.64,-4.88 -4.36,-6.92 -1.68,-2.08 -3.96,-3.12 z m 0,-1.64 h 4.56 q 2.96,0 5.04,-1.36 2.08,-1.36 2.08,-3.28 0,-1.8 -1.72,-3.16 -1.68,-1.4 -3.84,-1.4 h -6.12 z"
         style="font-style:normal;font-variant:normal;font-weight:normal;font-stretch:normal;font-family:'Tlwg Mono';-inkscape-font-specification:'Tlwg Mono'"
         id="path4385" />
    </g>
  </g>
</svg>
