<?xml version="1.0" encoding="UTF-8" standalone="no"?>
<!-- Created with Inkscape (http://www.inkscape.org/) -->

<svg
   xmlns:dc="http://purl.org/dc/elements/1.1/"
   xmlns:cc="http://creativecommons.org/ns#"
   xmlns:rdf="http://www.w3.org/1999/02/22-rdf-syntax-ns#"
   xmlns:svg="http://www.w3.org/2000/svg"
   xmlns="http://www.w3.org/2000/svg"
   xmlns:sodipodi="http://sodipodi.sourceforge.net/DTD/sodipodi-0.dtd"
   xmlns:inkscape="http://www.inkscape.org/namespaces/inkscape"
   width="268.26962mm"
   height="114.05521mm"
   viewBox="0 0 268.26962 114.0552"
   version="1.1"
   id="svg7874"
   inkscape:version="0.92.5 (2060ec1f9f, 2020-04-08)"
   sodipodi:docname="workflow.svg"
   inkscape:export-filename="/home/simon/Documents/shinyscholar/paper/workflow.png"
   inkscape:export-xdpi="96"
   inkscape:export-ydpi="96">
  <defs
     id="defs7868">
    <marker
       inkscape:isstock="true"
       style="overflow:visible"
       id="marker1053"
       refX="0"
       refY="0"
       orient="auto"
       inkscape:stockid="Arrow1Lstart">
      <path
         inkscape:connector-curvature="0"
         transform="matrix(0.8,0,0,0.8,10,0)"
         style="fill:#000000;fill-opacity:1;fill-rule:evenodd;stroke:#000000;stroke-width:1.00000003pt;stroke-opacity:1"
         d="M 0,0 5,-5 -12.5,0 5,5 Z"
         id="path1051" />
    </marker>
    <marker
       inkscape:stockid="Arrow1Lstart"
       orient="auto"
       refY="0"
       refX="0"
       id="marker1047"
       style="overflow:visible"
       inkscape:isstock="true"
       inkscape:collect="always">
      <path
         id="path1045"
         d="M 0,0 5,-5 -12.5,0 5,5 Z"
         style="fill:#000000;fill-opacity:1;fill-rule:evenodd;stroke:#000000;stroke-width:1.00000003pt;stroke-opacity:1"
         transform="matrix(0.8,0,0,0.8,10,0)"
         inkscape:connector-curvature="0" />
    </marker>
    <marker
       inkscape:stockid="Arrow1Lstart"
       orient="auto"
       refY="0"
       refX="0"
       id="marker1041"
       style="overflow:visible"
       inkscape:isstock="true">
      <path
         id="path1039"
         d="M 0,0 5,-5 -12.5,0 5,5 Z"
         style="fill:#000000;fill-opacity:1;fill-rule:evenodd;stroke:#000000;stroke-width:1.00000003pt;stroke-opacity:1"
         transform="matrix(0.8,0,0,0.8,10,0)"
         inkscape:connector-curvature="0" />
    </marker>
    <marker
       inkscape:isstock="true"
       style="overflow:visible"
       id="marker1035"
       refX="0"
       refY="0"
       orient="auto"
       inkscape:stockid="Arrow1Lstart"
       inkscape:collect="always">
      <path
         inkscape:connector-curvature="0"
         transform="matrix(0.8,0,0,0.8,10,0)"
         style="fill:#000000;fill-opacity:1;fill-rule:evenodd;stroke:#000000;stroke-width:1.00000003pt;stroke-opacity:1"
         d="M 0,0 5,-5 -12.5,0 5,5 Z"
         id="path1033" />
    </marker>
    <marker
       inkscape:stockid="Arrow1Lstart"
       orient="auto"
       refY="0"
       refX="0"
       id="marker95813"
       style="overflow:visible"
       inkscape:isstock="true">
      <path
         id="path95811"
         d="M 0,0 5,-5 -12.5,0 5,5 Z"
         style="fill:#000000;fill-opacity:1;fill-rule:evenodd;stroke:#000000;stroke-width:1.00000003pt;stroke-opacity:1"
         transform="matrix(0.8,0,0,0.8,10,0)"
         inkscape:connector-curvature="0" />
    </marker>
    <marker
       inkscape:isstock="true"
       style="overflow:visible"
       id="marker77043"
       refX="0"
       refY="0"
       orient="auto"
       inkscape:stockid="Arrow1Lstart">
      <path
         transform="matrix(0.8,0,0,0.8,10,0)"
         style="fill:#000000;fill-opacity:1;fill-rule:evenodd;stroke:#000000;stroke-width:1.00000003pt;stroke-opacity:1"
         d="M 0,0 5,-5 -12.5,0 5,5 Z"
         id="path77041"
         inkscape:connector-curvature="0" />
    </marker>
    <marker
       inkscape:stockid="Arrow1Lstart"
       orient="auto"
       refY="0"
       refX="0"
       id="marker55125"
       style="overflow:visible"
       inkscape:isstock="true"
       inkscape:collect="always">
      <path
         id="path55123"
         d="M 0,0 5,-5 -12.5,0 5,5 Z"
         style="fill:#000000;fill-opacity:1;fill-rule:evenodd;stroke:#000000;stroke-width:1.00000003pt;stroke-opacity:1"
         transform="matrix(0.8,0,0,0.8,10,0)"
         inkscape:connector-curvature="0" />
    </marker>
    <marker
       inkscape:isstock="true"
       style="overflow:visible"
       id="marker37147"
       refX="0"
       refY="0"
       orient="auto"
       inkscape:stockid="Arrow1Lstart">
      <path
         transform="matrix(0.8,0,0,0.8,10,0)"
         style="fill:#000000;fill-opacity:1;fill-rule:evenodd;stroke:#000000;stroke-width:1.00000003pt;stroke-opacity:1"
         d="M 0,0 5,-5 -12.5,0 5,5 Z"
         id="path37145"
         inkscape:connector-curvature="0" />
    </marker>
    <marker
       inkscape:isstock="true"
       style="overflow:visible"
       id="marker1605"
       refX="0"
       refY="0"
       orient="auto"
       inkscape:stockid="Arrow1Lstart">
      <path
         transform="matrix(0.8,0,0,0.8,10,0)"
         style="fill:#000000;fill-opacity:1;fill-rule:evenodd;stroke:#000000;stroke-width:1.00000003pt;stroke-opacity:1"
         d="M 0,0 5,-5 -12.5,0 5,5 Z"
         id="path1603"
         inkscape:connector-curvature="0" />
    </marker>
    <marker
       inkscape:stockid="Arrow1Lend"
       orient="auto"
       refY="0"
       refX="0"
       id="marker1241"
       style="overflow:visible"
       inkscape:isstock="true">
      <path
         id="path939"
         d="M 0,0 5,-5 -12.5,0 5,5 Z"
         style="fill:#000000;fill-opacity:1;fill-rule:evenodd;stroke:#000000;stroke-width:1.00000003pt;stroke-opacity:1"
         transform="matrix(-0.8,0,0,-0.8,-10,0)"
         inkscape:connector-curvature="0" />
    </marker>
    <marker
       inkscape:stockid="Arrow2Lend"
       orient="auto"
       refY="0"
       refX="0"
       id="Arrow2Lend"
       style="overflow:visible"
       inkscape:isstock="true">
      <path
         id="path957"
         style="fill:#000000;fill-opacity:1;fill-rule:evenodd;stroke:#000000;stroke-width:0.625;stroke-linejoin:round;stroke-opacity:1"
         d="M 8.7185878,4.0337352 -2.2072895,0.01601326 8.7185884,-4.0017078 c -1.7454984,2.3720609 -1.7354408,5.6174519 -6e-7,8.035443 z"
         transform="matrix(-1.1,0,0,-1.1,-1.1,0)"
         inkscape:connector-curvature="0" />
    </marker>
    <marker
       inkscape:stockid="Arrow2Lstart"
       orient="auto"
       refY="0"
       refX="0"
       id="Arrow2Lstart"
       style="overflow:visible"
       inkscape:isstock="true">
      <path
         id="path954"
         style="fill:#000000;fill-opacity:1;fill-rule:evenodd;stroke:#000000;stroke-width:0.625;stroke-linejoin:round;stroke-opacity:1"
         d="M 8.7185878,4.0337352 -2.2072895,0.01601326 8.7185884,-4.0017078 c -1.7454984,2.3720609 -1.7354408,5.6174519 -6e-7,8.035443 z"
         transform="matrix(1.1,0,0,1.1,1.1,0)"
         inkscape:connector-curvature="0" />
    </marker>
    <marker
       inkscape:stockid="Arrow1Lstart"
       orient="auto"
       refY="0"
       refX="0"
       id="marker9835"
       style="overflow:visible"
       inkscape:isstock="true">
      <path
         id="path9833"
         d="M 0,0 5,-5 -12.5,0 5,5 Z"
         style="fill:#000000;fill-opacity:1;fill-rule:evenodd;stroke:#000000;stroke-width:1.00000003pt;stroke-opacity:1"
         transform="matrix(0.8,0,0,0.8,10,0)"
         inkscape:connector-curvature="0" />
    </marker>
    <marker
       inkscape:stockid="Arrow1Lend"
       orient="auto"
       refY="0"
       refX="0"
       id="Arrow1Lend"
       style="overflow:visible"
       inkscape:isstock="true">
      <path
         id="path8470"
         d="M 0,0 5,-5 -12.5,0 5,5 Z"
         style="fill:#000000;fill-opacity:1;fill-rule:evenodd;stroke:#000000;stroke-width:1.00000003pt;stroke-opacity:1"
         transform="matrix(-0.8,0,0,-0.8,-10,0)"
         inkscape:connector-curvature="0" />
    </marker>
  </defs>
  <sodipodi:namedview
     id="base"
     pagecolor="#ffffff"
     bordercolor="#666666"
     borderopacity="1.0"
     inkscape:pageopacity="0.0"
     inkscape:pageshadow="2"
     inkscape:zoom="0.98994949"
     inkscape:cx="467.07447"
     inkscape:cy="377.26694"
     inkscape:document-units="mm"
     inkscape:current-layer="layer1"
     showgrid="false"
     inkscape:window-width="3840"
     inkscape:window-height="2032"
     inkscape:window-x="0"
     inkscape:window-y="54"
     inkscape:window-maximized="1" />
  <metadata
     id="metadata7871">
    <rdf:RDF>
      <cc:Work
         rdf:about="">
        <dc:format>image/svg+xml</dc:format>
        <dc:type
           rdf:resource="http://purl.org/dc/dcmitype/StillImage" />
        <dc:title />
      </cc:Work>
    </rdf:RDF>
  </metadata>
  <g
     inkscape:label="Layer 1"
     inkscape:groupmode="layer"
     id="layer1"
     transform="translate(85.759034,-171.15043)">
    <path
       sodipodi:nodetypes="cc"
       inkscape:connector-curvature="0"
       id="path54955"
       d="m 11.037935,191.86932 c -13.6972819,-0.38154 -16.4134767,-0.78741 -29.0444,-0.45566"
       style="fill:none;stroke:#000000;stroke-width:1;stroke-linecap:butt;stroke-linejoin:miter;stroke-miterlimit:0;stroke-dasharray:none;stroke-opacity:1;marker-start:url(#marker55125)" />
    <rect
       style="opacity:1;fill:none;fill-opacity:1;fill-rule:nonzero;stroke:#000000;stroke-width:1;stroke-linecap:round;stroke-linejoin:round;stroke-miterlimit:11.60000038;stroke-dasharray:0.1, 0.1;stroke-dashoffset:0;stroke-opacity:1"
       id="rect983"
       width="65.748306"
       height="39.555889"
       x="-85.258987"
       y="245.1497"
       rx="4.99999"
       ry="4.99999" />
    <g
       aria-label="end-to-end
tests"
       transform="matrix(0.26458333,0,0,0.26458333,-122.35446,240.33324)"
       style="font-style:normal;font-weight:normal;font-size:40px;line-height:1.25;font-family:sans-serif;text-align:center;letter-spacing:0px;word-spacing:0px;text-anchor:middle;fill:#000000;fill-opacity:1;stroke:none"
       id="flowRoot1015">
      <path
         d="m 177.41113,71.03125 v 1.757812 H 160.8877 q 0.23437,3.710938 2.22656,5.664063 2.01172,1.933594 5.58594,1.933594 2.07031,0 4.0039,-0.507813 1.95313,-0.507812 3.86719,-1.523437 v 3.398437 q -1.93359,0.820313 -3.96484,1.25 -2.03125,0.429688 -4.1211,0.429688 -5.23437,0 -8.30078,-3.046875 -3.04687,-3.046875 -3.04687,-8.242188 0,-5.371094 2.89062,-8.515625 2.91016,-3.164062 7.83203,-3.164062 4.41406,0 6.97266,2.851562 2.57812,2.832031 2.57812,7.714844 z m -3.59375,-1.054688 q -0.0391,-2.949218 -1.66015,-4.707031 -1.60157,-1.757812 -4.25782,-1.757812 -3.00781,0 -4.82421,1.699218 -1.79688,1.699219 -2.07032,4.785157 z"
         style=""
         id="path1958" />
      <path
         d="m 201.49316,69.664062 v 13.203125 h -3.59375 V 69.78125 q 0,-3.105469 -1.21093,-4.648438 -1.21094,-1.542968 -3.63282,-1.542968 -2.91015,0 -4.58984,1.855468 -1.67969,1.855469 -1.67969,5.058594 v 12.363281 h -3.61328 v -21.875 h 3.61328 v 3.398438 q 1.28907,-1.972656 3.02735,-2.949219 1.75781,-0.976562 4.04297,-0.976562 3.76953,0 5.70312,2.34375 1.93359,2.324218 1.93359,6.855468 z"
         style=""
         id="path1960" />
      <path
         d="M 223.05566,64.3125 V 52.476562 h 3.59375 v 30.390625 h -3.59375 v -3.28125 q -1.13281,1.953125 -2.87109,2.910157 -1.71875,0.9375 -4.14062,0.9375 -3.96485,0 -6.46485,-3.164063 -2.48047,-3.164062 -2.48047,-8.320312 0,-5.15625 2.48047,-8.320313 2.5,-3.164062 6.46485,-3.164062 2.42187,0 4.14062,0.957031 1.73828,0.9375 2.87109,2.890625 z m -12.24609,7.636719 q 0,3.964843 1.62109,6.230468 1.64063,2.246094 4.49219,2.246094 2.85156,0 4.49219,-2.246094 1.64062,-2.265625 1.64062,-6.230468 0,-3.964844 -1.64062,-6.210938 -1.64063,-2.265625 -4.49219,-2.265625 -2.85156,0 -4.49219,2.265625 -1.62109,2.246094 -1.62109,6.210938 z"
         style=""
         id="path1962" />
      <path
         d="m 232.23535,70.308594 h 10.52735 v 3.203125 h -10.52735 z"
         style=""
         id="path1964" />
      <path
         d="m 252.04004,54.78125 v 6.210937 h 7.40234 v 2.792969 h -7.40234 v 11.875 q 0,2.675781 0.72266,3.4375 0.74218,0.761719 2.98828,0.761719 h 3.6914 v 3.007812 h -3.6914 q -4.16016,0 -5.74219,-1.542968 -1.58203,-1.5625 -1.58203,-5.664063 v -11.875 h -2.63672 v -2.792969 h 2.63672 V 54.78125 Z"
         style=""
         id="path1966" />
      <path
         d="m 272.64551,63.511719 q -2.89063,0 -4.57031,2.265625 -1.67969,2.246093 -1.67969,6.171875 0,3.925781 1.66015,6.191406 1.67969,2.246094 4.58985,2.246094 2.87109,0 4.55078,-2.265625 1.67969,-2.265625 1.67969,-6.171875 0,-3.886719 -1.67969,-6.152344 -1.67969,-2.285156 -4.55078,-2.285156 z m 0,-3.046875 q 4.6875,0 7.36328,3.046875 2.67578,3.046875 2.67578,8.4375 0,5.371093 -2.67578,8.4375 -2.67578,3.046875 -7.36328,3.046875 -4.70703,0 -7.38281,-3.046875 -2.65625,-3.066407 -2.65625,-8.4375 0,-5.390625 2.65625,-8.4375 2.67578,-3.046875 7.38281,-3.046875 z"
         style=""
         id="path1968" />
      <path
         d="m 287.56738,70.308594 h 10.52735 v 3.203125 h -10.52735 z"
         style=""
         id="path1970" />
      <path
         d="m 322.52832,71.03125 v 1.757812 h -16.52344 q 0.23438,3.710938 2.22657,5.664063 2.01171,1.933594 5.58593,1.933594 2.07032,0 4.00391,-0.507813 1.95312,-0.507812 3.86719,-1.523437 v 3.398437 q -1.9336,0.820313 -3.96485,1.25 -2.03125,0.429688 -4.12109,0.429688 -5.23438,0 -8.30078,-3.046875 -3.04688,-3.046875 -3.04688,-8.242188 0,-5.371094 2.89063,-8.515625 2.91015,-3.164062 7.83203,-3.164062 4.41406,0 6.97266,2.851562 2.57812,2.832031 2.57812,7.714844 z m -3.59375,-1.054688 q -0.0391,-2.949218 -1.66016,-4.707031 -1.60156,-1.757812 -4.25781,-1.757812 -3.00781,0 -4.82422,1.699218 -1.79687,1.699219 -2.07031,4.785157 z"
         style=""
         id="path1972" />
      <path
         d="M 346.61035,69.664062 V 82.867187 H 343.0166 V 69.78125 q 0,-3.105469 -1.21094,-4.648438 -1.21093,-1.542968 -3.63281,-1.542968 -2.91015,0 -4.58984,1.855468 -1.67969,1.855469 -1.67969,5.058594 v 12.363281 h -3.61328 v -21.875 h 3.61328 v 3.398438 q 1.28906,-1.972656 3.02734,-2.949219 1.75782,-0.976562 4.04297,-0.976562 3.76953,0 5.70313,2.34375 1.93359,2.324218 1.93359,6.855468 z"
         style=""
         id="path1974" />
      <path
         d="M 368.17285,64.3125 V 52.476562 h 3.59375 v 30.390625 h -3.59375 v -3.28125 q -1.13281,1.953125 -2.87109,2.910157 -1.71875,0.9375 -4.14063,0.9375 -3.96484,0 -6.46484,-3.164063 -2.48047,-3.164062 -2.48047,-8.320312 0,-5.15625 2.48047,-8.320313 2.5,-3.164062 6.46484,-3.164062 2.42188,0 4.14063,0.957031 1.73828,0.9375 2.87109,2.890625 z m -12.24609,7.636719 q 0,3.964843 1.62109,6.230468 1.64063,2.246094 4.49219,2.246094 2.85156,0 4.49219,-2.246094 1.64062,-2.265625 1.64062,-6.230468 0,-3.964844 -1.64062,-6.210938 -1.64063,-2.265625 -4.49219,-2.265625 -2.85156,0 -4.49219,2.265625 -1.62109,2.246094 -1.62109,6.210938 z"
         style=""
         id="path1976" />
      <path
         d="m 223.66113,104.78125 v 6.21094 h 7.40235 v 2.79297 h -7.40235 v 11.875 q 0,2.67578 0.72266,3.4375 0.74219,0.76171 2.98828,0.76171 h 3.69141 v 3.00782 h -3.69141 q -4.16016,0 -5.74219,-1.54297 -1.58203,-1.5625 -1.58203,-5.66406 v -11.875 h -2.63672 v -2.79297 h 2.63672 v -6.21094 z"
         style=""
         id="path1978" />
      <path
         d="m 254.50098,121.03125 v 1.75781 h -16.52344 q 0.23437,3.71094 2.22656,5.66406 2.01172,1.9336 5.58594,1.9336 2.07031,0 4.00391,-0.50781 1.95312,-0.50782 3.86718,-1.52344 v 3.39844 q -1.93359,0.82031 -3.96484,1.25 -2.03125,0.42968 -4.12109,0.42968 -5.23438,0 -8.30079,-3.04687 -3.04687,-3.04688 -3.04687,-8.24219 0,-5.37109 2.89062,-8.51562 2.91016,-3.16407 7.83204,-3.16407 4.41406,0 6.97265,2.85157 2.57813,2.83203 2.57813,7.71484 z m -3.59375,-1.05469 q -0.0391,-2.94922 -1.66016,-4.70703 -1.60156,-1.75781 -4.25781,-1.75781 -3.00781,0 -4.82422,1.69922 -1.79688,1.69922 -2.07031,4.78515 z"
         style=""
         id="path1980" />
      <path
         d="m 274.34473,111.63672 v 3.39844 q -1.52344,-0.78125 -3.16407,-1.17188 -1.64062,-0.39062 -3.39843,-0.39062 -2.67578,0 -4.02344,0.82031 -1.32813,0.82031 -1.32813,2.46094 0,1.25 0.95704,1.97265 0.95703,0.70313 3.84765,1.34766 l 1.23047,0.27344 q 3.82813,0.82031 5.42969,2.32422 1.62109,1.48437 1.62109,4.16015 0,3.04688 -2.42187,4.82422 -2.40235,1.77734 -6.6211,1.77734 -1.75781,0 -3.67187,-0.35156 -1.89453,-0.33203 -4.00391,-1.01562 v -3.71094 q 1.99219,1.03515 3.92578,1.5625 1.9336,0.50781 3.82813,0.50781 2.53906,0 3.90625,-0.85937 1.36719,-0.87891 1.36719,-2.46094 0,-1.46484 -0.9961,-2.24609 -0.97656,-0.78125 -4.3164,-1.50391 l -1.25,-0.29297 q -3.33985,-0.70312 -4.82422,-2.14844 -1.48438,-1.46484 -1.48438,-4.0039 0,-3.08594 2.1875,-4.76563 2.1875,-1.67969 6.21094,-1.67969 1.99219,0 3.75,0.29297 1.75781,0.29297 3.24219,0.87891 z"
         style=""
         id="path1982" />
      <path
         d="m 284.79395,104.78125 v 6.21094 h 7.40234 v 2.79297 h -7.40234 v 11.875 q 0,2.67578 0.72265,3.4375 0.74219,0.76171 2.98828,0.76171 h 3.69141 v 3.00782 h -3.69141 q -4.16015,0 -5.74218,-1.54297 -1.58204,-1.5625 -1.58204,-5.66406 v -11.875 h -2.63671 v -2.79297 h 2.63671 v -6.21094 z"
         style=""
         id="path1984" />
      <path
         d="m 310.86816,111.63672 v 3.39844 q -1.52343,-0.78125 -3.16406,-1.17188 -1.64062,-0.39062 -3.39844,-0.39062 -2.67578,0 -4.02343,0.82031 -1.32813,0.82031 -1.32813,2.46094 0,1.25 0.95703,1.97265 0.95703,0.70313 3.84766,1.34766 l 1.23047,0.27344 q 3.82812,0.82031 5.42969,2.32422 1.62109,1.48437 1.62109,4.16015 0,3.04688 -2.42188,4.82422 -2.40234,1.77734 -6.62109,1.77734 -1.75781,0 -3.67187,-0.35156 -1.89454,-0.33203 -4.00391,-1.01562 v -3.71094 q 1.99219,1.03515 3.92578,1.5625 1.93359,0.50781 3.82813,0.50781 2.53906,0 3.90625,-0.85937 1.36718,-0.87891 1.36718,-2.46094 0,-1.46484 -0.99609,-2.24609 -0.97656,-0.78125 -4.31641,-1.50391 l -1.25,-0.29297 q -3.33984,-0.70312 -4.82422,-2.14844 -1.48437,-1.46484 -1.48437,-4.0039 0,-3.08594 2.1875,-4.76563 2.1875,-1.67969 6.21094,-1.67969 1.99218,0 3.75,0.29297 1.75781,0.29297 3.24218,0.87891 z"
         style=""
         id="path1986" />
    </g>
    <g
       aria-label=".Rmd prototype"
       transform="matrix(0.26458333,0,0,0.26458333,-122.5404,163.95381)"
       style="font-style:normal;font-weight:normal;font-size:40px;line-height:1.25;font-family:sans-serif;text-align:center;letter-spacing:0px;word-spacing:0px;text-anchor:middle;fill:#000000;fill-opacity:1;stroke:none"
       id="flowRoot939">
      <path
         d="m 219.44501,82.715625 h 4.1211 v 4.960938 h -4.1211 z"
         style=""
         id="path1931" />
      <path
         d="m 231.88251,87.676563 h 3.72 v -12.44 h 5.28 l 7.12,12.44 h 4.2 l -7.52,-12.840001 c 4,-0.959999 6.64,-3.679999 6.64,-8.239999 0,-6.120001 -4.28,-8.28 -10.24,-8.28 h -9.2 z m 3.72,-15.44 v -10.88 h 4.92 c 4.6,0 7.12,1.36 7.12,5.24 0,3.8 -2.52,5.64 -7.12,5.64 z"
         style="font-style:normal;font-variant:normal;font-weight:normal;font-stretch:normal;font-family:'Noto Sans CJK HK';-inkscape-font-specification:'Noto Sans CJK HK';text-align:center;text-anchor:middle"
         id="path1933" />
      <path
         d="m 257.0025,87.676563 h 3.64 V 71.916562 c 2,-2.239999 3.84,-3.319999 5.48,-3.319999 2.76,0 4.04,1.72 4.04,5.8 v 13.28 h 3.64 V 71.916562 c 2.04,-2.239999 3.8,-3.319999 5.48,-3.319999 2.76,0 4.04,1.72 4.04,5.8 v 13.28 h 3.64 V 73.916562 c 0,-5.56 -2.12,-8.519999 -6.6,-8.519999 -2.64,0 -4.92,1.719999 -7.16,4.159999 -0.88,-2.559999 -2.68,-4.159999 -6,-4.159999 -2.6,0 -4.88,1.64 -6.76,3.719999 h -0.12 l -0.32,-3.159999 h -3 z"
         style="font-style:normal;font-variant:normal;font-weight:normal;font-stretch:normal;font-family:'Noto Sans CJK HK';-inkscape-font-specification:'Noto Sans CJK HK';text-align:center;text-anchor:middle"
         id="path1935" />
      <path
         d="m 301.44245,88.196562 c 2.6,0 4.88,-1.399999 6.6,-3.08 h 0.12 l 0.32,2.560001 h 2.96 V 55.836562 h -3.6 v 8.36 l 0.16,3.760001 c -1.92,-1.600001 -3.56,-2.56 -6.12,-2.56 -4.96,0 -9.4,4.4 -9.4,11.439999 0,7.240001 3.52,11.36 8.96,11.36 z m 0.8,-3.039999 c -3.84,0 -6,-3.12 -6,-8.36 0,-4.960001 2.76,-8.320001 6.28,-8.320001 1.8,0 3.44,0.64 5.32,2.28 v 11.400001 c -1.84,2 -3.6,3 -5.6,3 z"
         style="font-style:normal;font-variant:normal;font-weight:normal;font-stretch:normal;font-family:'Noto Sans CJK HK';-inkscape-font-specification:'Noto Sans CJK HK';text-align:center;text-anchor:middle"
         id="path1937" />
      <path
         d="m 176.74532,151.64593 h 3.64 v -7.36 l -0.08,-3.8 c 1.96,1.6 4.04,2.52 6,2.52 5,0 9.44,-4.28 9.44,-11.72 0,-6.68 -3.04,-11.08 -8.64,-11.08 -2.52,0 -4.96,1.44 -6.92,3.04 h -0.12 l -0.32,-2.48 h -3 z m 8.96,-11.68 c -1.44,0 -3.36,-0.6 -5.32,-2.28 v -11.4 c 2.12,-1.96 4,-3 5.84,-3 4.12,0 5.72,3.24 5.72,8.04 0,5.4 -2.64,8.64 -6.24,8.64 z"
         style="font-style:normal;font-variant:normal;font-weight:normal;font-stretch:normal;font-family:'Noto Sans CJK HK';-inkscape-font-specification:'Noto Sans CJK HK';text-align:center;text-anchor:middle"
         id="path1939" />
      <path
         d="m 201.54527,142.48593 h 3.64 v -13.96 c 1.44,-3.72 3.68,-5 5.48,-5 0.88,0 1.4,0.08 2.12,0.36 l 0.68,-3.2 c -0.68,-0.36 -1.36,-0.48 -2.32,-0.48 -2.44,0 -4.64,1.76 -6.16,4.52 h -0.12 l -0.32,-3.96 h -3 z"
         style="font-style:normal;font-variant:normal;font-weight:normal;font-stretch:normal;font-family:'Noto Sans CJK HK';-inkscape-font-specification:'Noto Sans CJK HK';text-align:center;text-anchor:middle"
         id="path1941" />
      <path
         d="m 225.06515,143.00593 c 5.32,0 10.08,-4.16 10.08,-11.36 0,-7.24 -4.76,-11.44 -10.08,-11.44 -5.32,0 -10.08,4.2 -10.08,11.44 0,7.2 4.76,11.36 10.08,11.36 z m 0,-3.04 c -3.76,0 -6.28,-3.32 -6.28,-8.32 0,-5 2.52,-8.4 6.28,-8.4 3.76,0 6.32,3.4 6.32,8.4 0,5 -2.56,8.32 -6.32,8.32 z"
         style="font-style:normal;font-variant:normal;font-weight:normal;font-stretch:normal;font-family:'Noto Sans CJK HK';-inkscape-font-specification:'Noto Sans CJK HK';text-align:center;text-anchor:middle"
         id="path1943" />
      <path
         d="m 246.94507,143.00593 c 1.32,0 2.76,-0.4 4,-0.8 l -0.72,-2.72 c -0.72,0.28 -1.72,0.56 -2.48,0.56 -2.52,0 -3.36,-1.52 -3.36,-4.2 v -12.12 h 5.88 v -2.96 h -5.88 v -6.12 h -3.04 l -0.44,6.12 -3.4,0.2 v 2.76 h 3.24 v 12.04 c 0,4.32 1.56,7.24 6.2,7.24 z"
         style="font-style:normal;font-variant:normal;font-weight:normal;font-stretch:normal;font-family:'Noto Sans CJK HK';-inkscape-font-specification:'Noto Sans CJK HK';text-align:center;text-anchor:middle"
         id="path1945" />
      <path
         d="m 263.02498,143.00593 c 5.32,0 10.08,-4.16 10.08,-11.36 0,-7.24 -4.76,-11.44 -10.08,-11.44 -5.32,0 -10.08,4.2 -10.08,11.44 0,7.2 4.76,11.36 10.08,11.36 z m 0,-3.04 c -3.76,0 -6.28,-3.32 -6.28,-8.32 0,-5 2.52,-8.4 6.28,-8.4 3.76,0 6.32,3.4 6.32,8.4 0,5 -2.56,8.32 -6.32,8.32 z"
         style="font-style:normal;font-variant:normal;font-weight:normal;font-stretch:normal;font-family:'Noto Sans CJK HK';-inkscape-font-specification:'Noto Sans CJK HK';text-align:center;text-anchor:middle"
         id="path1947" />
      <path
         d="m 284.9049,143.00593 c 1.32,0 2.76,-0.4 4,-0.8 l -0.72,-2.72 c -0.72,0.28 -1.72,0.56 -2.48,0.56 -2.52,0 -3.36,-1.52 -3.36,-4.2 v -12.12 h 5.88 v -2.96 h -5.88 v -6.12 h -3.04 l -0.44,6.12 -3.4,0.2 v 2.76 h 3.24 v 12.04 c 0,4.32 1.56,7.24 6.2,7.24 z"
         style="font-style:normal;font-variant:normal;font-weight:normal;font-stretch:normal;font-family:'Noto Sans CJK HK';-inkscape-font-specification:'Noto Sans CJK HK';text-align:center;text-anchor:middle"
         id="path1949" />
      <path
         d="m 293.50485,151.84593 c 4.32,0 6.6,-3.28 8.08,-7.56 l 8.2,-23.52 h -3.56 l -3.88,12.08 c -0.6,1.92 -1.24,4.12 -1.84,6.08 h -0.2 c -0.68,-1.96 -1.44,-4.2 -2.08,-6.08 l -4.44,-12.08 h -3.8 l 8.72,21.76 -0.48,1.64 c -0.88,2.68 -2.44,4.68 -4.92,4.68 -0.56,0 -1.2,-0.2 -1.64,-0.36 l -0.72,2.92 c 0.68,0.28 1.52,0.44 2.56,0.44 z"
         style="font-style:normal;font-variant:normal;font-weight:normal;font-stretch:normal;font-family:'Noto Sans CJK HK';-inkscape-font-specification:'Noto Sans CJK HK';text-align:center;text-anchor:middle"
         id="path1951" />
      <path
         d="m 313.98485,151.64593 h 3.64 v -7.36 l -0.08,-3.8 c 1.96,1.6 4.04,2.52 6,2.52 5,0 9.44,-4.28 9.44,-11.72 0,-6.68 -3.04,-11.08 -8.64,-11.08 -2.52,0 -4.96,1.44 -6.92,3.04 h -0.12 l -0.32,-2.48 h -3 z m 8.96,-11.68 c -1.44,0 -3.36,-0.6 -5.32,-2.28 v -11.4 c 2.12,-1.96 4,-3 5.84,-3 4.12,0 5.72,3.24 5.72,8.04 0,5.4 -2.64,8.64 -6.24,8.64 z"
         style="font-style:normal;font-variant:normal;font-weight:normal;font-stretch:normal;font-family:'Noto Sans CJK HK';-inkscape-font-specification:'Noto Sans CJK HK';text-align:center;text-anchor:middle"
         id="path1953" />
      <path
         d="m 347.5448,143.00593 c 2.96,0 5.28,-1 7.2,-2.24 l -1.32,-2.4 c -1.6,1.08 -3.32,1.72 -5.44,1.72 -4.12,0 -6.96,-2.96 -7.2,-7.6 h 14.64 c 0.08,-0.52 0.16,-1.28 0.16,-2.08 0,-6.2 -3.12,-10.2 -8.64,-10.2 -5.04,0 -9.8,4.4 -9.8,11.44 0,7.16 4.64,11.36 10.4,11.36 z m -6.8,-13.16 c 0.44,-4.24 3.16,-6.72 6.24,-6.72 3.4,0 5.4,2.36 5.4,6.72 z"
         style="font-style:normal;font-variant:normal;font-weight:normal;font-stretch:normal;font-family:'Noto Sans CJK HK';-inkscape-font-specification:'Noto Sans CJK HK';text-align:center;text-anchor:middle"
         id="path1955" />
    </g>
    <rect
       ry="4.99999"
       rx="4.99999"
       y="171.65057"
       x="-84.991714"
       height="39.555889"
       width="65.748306"
       id="rect1021"
       style="opacity:1;fill:none;fill-opacity:1;fill-rule:nonzero;stroke:#000000;stroke-width:1;stroke-linecap:round;stroke-linejoin:round;stroke-miterlimit:11.60000038;stroke-dasharray:0.1, 0.1;stroke-dashoffset:0;stroke-opacity:1" />
    <g
       aria-label="module function"
       transform="matrix(0.26458333,0,0,0.26458333,-21.721593,166.83411)"
       style="font-style:normal;font-weight:normal;font-size:40px;line-height:1.25;font-family:sans-serif;text-align:center;letter-spacing:0px;word-spacing:0px;text-anchor:middle;fill:#000000;fill-opacity:1;stroke:none"
       id="flowRoot957">
      <path
         d="m 211.01465,65.191406 q 1.34765,-2.421875 3.22265,-3.574219 1.875,-1.152343 4.41407,-1.152343 3.41797,0 5.27343,2.402343 1.85547,2.382813 1.85547,6.796875 v 13.203125 h -3.61328 V 69.78125 q 0,-3.144531 -1.11328,-4.667969 -1.11328,-1.523437 -3.39844,-1.523437 -2.79297,0 -4.41406,1.855468 -1.62109,1.855469 -1.62109,5.058594 v 12.363281 h -3.61328 V 69.78125 q 0,-3.164063 -1.11329,-4.667969 -1.11328,-1.523437 -3.4375,-1.523437 -2.7539,0 -4.375,1.875 -1.62109,1.855468 -1.62109,5.039062 v 12.363281 h -3.61328 v -21.875 h 3.61328 v 3.398438 q 1.23047,-2.011719 2.94922,-2.96875 1.71875,-0.957031 4.08203,-0.957031 2.38281,0 4.04297,1.210937 1.67969,1.210938 2.48047,3.515625 z"
         style=""
         id="path1902" />
      <path
         d="m 241.4248,63.511719 q -2.89062,0 -4.57031,2.265625 -1.67969,2.246093 -1.67969,6.171875 0,3.925781 1.66016,6.191406 1.67969,2.246094 4.58984,2.246094 2.8711,0 4.55079,-2.265625 1.67968,-2.265625 1.67968,-6.171875 0,-3.886719 -1.67968,-6.152344 -1.67969,-2.285156 -4.55079,-2.285156 z m 0,-3.046875 q 4.6875,0 7.36329,3.046875 2.67578,3.046875 2.67578,8.4375 0,5.371093 -2.67578,8.4375 -2.67579,3.046875 -7.36329,3.046875 -4.70703,0 -7.38281,-3.046875 -2.65625,-3.066407 -2.65625,-8.4375 0,-5.390625 2.65625,-8.4375 2.67578,-3.046875 7.38281,-3.046875 z"
         style=""
         id="path1904" />
      <path
         d="M 271.81543,64.3125 V 52.476562 h 3.59375 v 30.390625 h -3.59375 v -3.28125 q -1.13281,1.953125 -2.87109,2.910157 -1.71875,0.9375 -4.14063,0.9375 -3.96484,0 -6.46484,-3.164063 -2.48047,-3.164062 -2.48047,-8.320312 0,-5.15625 2.48047,-8.320313 2.5,-3.164062 6.46484,-3.164062 2.42188,0 4.14063,0.957031 1.73828,0.9375 2.87109,2.890625 z m -12.24609,7.636719 q 0,3.964843 1.62109,6.230468 1.64062,2.246094 4.49219,2.246094 2.85156,0 4.49218,-2.246094 1.64063,-2.265625 1.64063,-6.230468 0,-3.964844 -1.64063,-6.210938 -1.64062,-2.265625 -4.49218,-2.265625 -2.85157,0 -4.49219,2.265625 -1.62109,2.246094 -1.62109,6.210938 z"
         style=""
         id="path1906" />
      <path
         d="M 282.44043,74.234375 V 60.992187 h 3.59375 v 13.105469 q 0,3.105469 1.21094,4.667969 1.21093,1.542969 3.63281,1.542969 2.91016,0 4.58984,-1.855469 1.69922,-1.855469 1.69922,-5.058594 V 60.992187 h 3.59375 v 21.875 h -3.59375 v -3.359375 q -1.30859,1.992188 -3.04687,2.96875 -1.71875,0.957032 -4.00391,0.957032 -3.76953,0 -5.72266,-2.34375 -1.95312,-2.34375 -1.95312,-6.855469 z m 9.04297,-13.769531 z"
         style=""
         id="path1908" />
      <path
         d="m 308.16309,52.476562 h 3.59375 v 30.390625 h -3.59375 z"
         style=""
         id="path1910" />
      <path
         d="m 337.9873,71.03125 v 1.757812 h -16.52343 q 0.23437,3.710938 2.22656,5.664063 2.01172,1.933594 5.58594,1.933594 2.07031,0 4.0039,-0.507813 1.95313,-0.507812 3.86719,-1.523437 v 3.398437 q -1.93359,0.820313 -3.96484,1.25 -2.03125,0.429688 -4.1211,0.429688 -5.23437,0 -8.30078,-3.046875 -3.04687,-3.046875 -3.04687,-8.242188 0,-5.371094 2.89062,-8.515625 2.91016,-3.164062 7.83203,-3.164062 4.41407,0 6.97266,2.851562 2.57812,2.832031 2.57812,7.714844 z m -3.59375,-1.054688 q -0.0391,-2.949218 -1.66015,-4.707031 -1.60156,-1.757812 -4.25781,-1.757812 -3.00782,0 -4.82422,1.699218 -1.79688,1.699219 -2.07032,4.785157 z"
         style=""
         id="path1912" />
      <path
         d="m 198.30957,102.47656 v 2.98828 h -3.4375 q -1.93359,0 -2.69531,0.78125 -0.74219,0.78125 -0.74219,2.8125 v 1.9336 h 5.91797 v 2.79297 h -5.91797 v 19.08203 h -3.61328 v -19.08203 h -3.4375 v -2.79297 h 3.4375 v -1.52344 q 0,-3.65234 1.69922,-5.3125 1.69922,-1.67969 5.39062,-1.67969 z"
         style=""
         id="path1914" />
      <path
         d="m 200.94629,124.23438 v -13.24219 h 3.59375 v 13.10547 q 0,3.10547 1.21094,4.66796 1.21093,1.54297 3.63281,1.54297 2.91016,0 4.58984,-1.85547 1.69922,-1.85546 1.69922,-5.05859 v -12.40234 h 3.59375 v 21.875 h -3.59375 v -3.35938 q -1.30859,1.99219 -3.04687,2.96875 -1.71875,0.95703 -4.00391,0.95703 -3.76953,0 -5.72266,-2.34375 -1.95312,-2.34375 -1.95312,-6.85546 z m 9.04297,-13.76954 z"
         style=""
         id="path1916" />
      <path
         d="m 244.85254,119.66406 v 13.20313 h -3.59375 v -13.08594 q 0,-3.10547 -1.21094,-4.64844 -1.21094,-1.54297 -3.63281,-1.54297 -2.91016,0 -4.58984,1.85547 -1.67969,1.85547 -1.67969,5.0586 v 12.36328 h -3.61328 v -21.875 h 3.61328 v 3.39844 q 1.28906,-1.97266 3.02734,-2.94922 1.75781,-0.97657 4.04297,-0.97657 3.76953,0 5.70313,2.34375 1.93359,2.32422 1.93359,6.85547 z"
         style=""
         id="path1918" />
      <path
         d="m 267.7627,111.83203 v 3.35938 q -1.52344,-0.83985 -3.06641,-1.25 -1.52344,-0.42969 -3.08594,-0.42969 -3.49609,0 -5.42969,2.22656 -1.93359,2.20703 -1.93359,6.21094 0,4.00391 1.93359,6.23047 1.9336,2.20703 5.42969,2.20703 1.5625,0 3.08594,-0.41016 1.54297,-0.42969 3.06641,-1.26953 v 3.32031 q -1.50391,0.70313 -3.125,1.05469 -1.60157,0.35156 -3.41797,0.35156 -4.94141,0 -7.85157,-3.10547 -2.91015,-3.10546 -2.91015,-8.3789 0,-5.35156 2.92969,-8.41797 2.94921,-3.06641 8.0664,-3.06641 1.66016,0 3.24219,0.35157 1.58203,0.33203 3.06641,1.01562 z"
         style=""
         id="path1920" />
      <path
         d="m 277.56738,104.78125 v 6.21094 h 7.40235 v 2.79297 h -7.40235 v 11.875 q 0,2.67578 0.72266,3.4375 0.74219,0.76171 2.98828,0.76171 h 3.69141 v 3.00782 h -3.69141 q -4.16016,0 -5.74219,-1.54297 -1.58203,-1.5625 -1.58203,-5.66406 v -11.875 h -2.63672 v -2.79297 h 2.63672 v -6.21094 z"
         style=""
         id="path1922" />
      <path
         d="m 289.69629,110.99219 h 3.59375 v 21.875 h -3.59375 z m 0,-8.51563 h 3.59375 v 4.55078 h -3.59375 z"
         style=""
         id="path1924" />
      <path
         d="m 309.28613,113.51172 q -2.89062,0 -4.57031,2.26562 -1.67969,2.2461 -1.67969,6.17188 0,3.92578 1.66016,6.1914 1.67969,2.2461 4.58984,2.2461 2.8711,0 4.55078,-2.26563 1.67969,-2.26562 1.67969,-6.17187 0,-3.88672 -1.67969,-6.15234 -1.67968,-2.28516 -4.55078,-2.28516 z m 0,-3.04688 q 4.6875,0 7.36328,3.04688 2.67579,3.04687 2.67579,8.4375 0,5.37109 -2.67579,8.4375 -2.67578,3.04687 -7.36328,3.04687 -4.70703,0 -7.38281,-3.04687 -2.65625,-3.06641 -2.65625,-8.4375 0,-5.39063 2.65625,-8.4375 2.67578,-3.04688 7.38281,-3.04688 z"
         style=""
         id="path1926" />
      <path
         d="m 343.46582,119.66406 v 13.20313 h -3.59375 v -13.08594 q 0,-3.10547 -1.21094,-4.64844 -1.21093,-1.54297 -3.63281,-1.54297 -2.91016,0 -4.58984,1.85547 -1.67969,1.85547 -1.67969,5.0586 v 12.36328 h -3.61328 v -21.875 h 3.61328 v 3.39844 q 1.28906,-1.97266 3.02734,-2.94922 1.75782,-0.97657 4.04297,-0.97657 3.76953,0 5.70313,2.34375 1.93359,2.32422 1.93359,6.85547 z"
         style=""
         id="path1928" />
    </g>
    <rect
       style="opacity:1;fill:none;fill-opacity:1;fill-rule:nonzero;stroke:#000000;stroke-width:1;stroke-linecap:round;stroke-linejoin:round;stroke-miterlimit:11.60000038;stroke-dasharray:0.1, 0.1;stroke-dashoffset:0;stroke-opacity:1"
       id="rect1023"
       width="65.748306"
       height="39.555889"
       x="15.234358"
       y="171.65057"
       rx="4.99999"
       ry="4.99999" />
    <g
       aria-label="unit 
tests"
       transform="matrix(0.26458333,0,0,0.26458333,79.094414,166.83411)"
       style="font-style:normal;font-weight:normal;font-size:40px;line-height:1.25;font-family:sans-serif;text-align:center;letter-spacing:0px;word-spacing:0px;text-anchor:middle;fill:#000000;fill-opacity:1;stroke:none"
       id="flowRoot965">
      <path
         d="M 229.81348,74.234375 V 60.992187 h 3.59375 v 13.105469 q 0,3.105469 1.21093,4.667969 1.21094,1.542969 3.63282,1.542969 2.91015,0 4.58984,-1.855469 1.69922,-1.855469 1.69922,-5.058594 V 60.992187 h 3.59375 v 21.875 h -3.59375 v -3.359375 q -1.30859,1.992188 -3.04688,2.96875 -1.71875,0.957032 -4.0039,0.957032 -3.76953,0 -5.72266,-2.34375 -1.95312,-2.34375 -1.95312,-6.855469 z m 9.04297,-13.769531 z"
         style=""
         id="path1883" />
      <path
         d="m 273.71973,69.664062 v 13.203125 h -3.59375 V 69.78125 q 0,-3.105469 -1.21094,-4.648438 -1.21094,-1.542968 -3.63281,-1.542968 -2.91016,0 -4.58985,1.855468 -1.67968,1.855469 -1.67968,5.058594 v 12.363281 h -3.61329 v -21.875 h 3.61329 v 3.398438 q 1.28906,-1.972656 3.02734,-2.949219 1.75781,-0.976562 4.04297,-0.976562 3.76953,0 5.70312,2.34375 1.9336,2.324218 1.9336,6.855468 z"
         style=""
         id="path1885" />
      <path
         d="m 280.8877,60.992187 h 3.59375 v 21.875 h -3.59375 z m 0,-8.515625 h 3.59375 v 4.550782 h -3.59375 z"
         style=""
         id="path1887" />
      <path
         d="m 295.55566,54.78125 v 6.210937 h 7.40235 v 2.792969 h -7.40235 v 11.875 q 0,2.675781 0.72266,3.4375 0.74219,0.761719 2.98828,0.761719 h 3.69141 v 3.007812 h -3.69141 q -4.16015,0 -5.74219,-1.542968 -1.58203,-1.5625 -1.58203,-5.664063 v -11.875 h -2.63672 v -2.792969 h 2.63672 V 54.78125 Z"
         style=""
         id="path1889" />
      <path
         d="m 223.66113,104.78125 v 6.21094 h 7.40235 v 2.79297 h -7.40235 v 11.875 q 0,2.67578 0.72266,3.4375 0.74219,0.76171 2.98828,0.76171 h 3.69141 v 3.00782 h -3.69141 q -4.16016,0 -5.74219,-1.54297 -1.58203,-1.5625 -1.58203,-5.66406 v -11.875 h -2.63672 v -2.79297 h 2.63672 v -6.21094 z"
         style=""
         id="path1891" />
      <path
         d="m 254.50098,121.03125 v 1.75781 h -16.52344 q 0.23437,3.71094 2.22656,5.66406 2.01172,1.9336 5.58594,1.9336 2.07031,0 4.00391,-0.50781 1.95312,-0.50782 3.86718,-1.52344 v 3.39844 q -1.93359,0.82031 -3.96484,1.25 -2.03125,0.42968 -4.12109,0.42968 -5.23438,0 -8.30079,-3.04687 -3.04687,-3.04688 -3.04687,-8.24219 0,-5.37109 2.89062,-8.51562 2.91016,-3.16407 7.83204,-3.16407 4.41406,0 6.97265,2.85157 2.57813,2.83203 2.57813,7.71484 z m -3.59375,-1.05469 q -0.0391,-2.94922 -1.66016,-4.70703 -1.60156,-1.75781 -4.25781,-1.75781 -3.00781,0 -4.82422,1.69922 -1.79688,1.69922 -2.07031,4.78515 z"
         style=""
         id="path1893" />
      <path
         d="m 274.34473,111.63672 v 3.39844 q -1.52344,-0.78125 -3.16407,-1.17188 -1.64062,-0.39062 -3.39843,-0.39062 -2.67578,0 -4.02344,0.82031 -1.32813,0.82031 -1.32813,2.46094 0,1.25 0.95704,1.97265 0.95703,0.70313 3.84765,1.34766 l 1.23047,0.27344 q 3.82813,0.82031 5.42969,2.32422 1.62109,1.48437 1.62109,4.16015 0,3.04688 -2.42187,4.82422 -2.40235,1.77734 -6.6211,1.77734 -1.75781,0 -3.67187,-0.35156 -1.89453,-0.33203 -4.00391,-1.01562 v -3.71094 q 1.99219,1.03515 3.92578,1.5625 1.9336,0.50781 3.82813,0.50781 2.53906,0 3.90625,-0.85937 1.36719,-0.87891 1.36719,-2.46094 0,-1.46484 -0.9961,-2.24609 -0.97656,-0.78125 -4.3164,-1.50391 l -1.25,-0.29297 q -3.33985,-0.70312 -4.82422,-2.14844 -1.48438,-1.46484 -1.48438,-4.0039 0,-3.08594 2.1875,-4.76563 2.1875,-1.67969 6.21094,-1.67969 1.99219,0 3.75,0.29297 1.75781,0.29297 3.24219,0.87891 z"
         style=""
         id="path1895" />
      <path
         d="m 284.79395,104.78125 v 6.21094 h 7.40234 v 2.79297 h -7.40234 v 11.875 q 0,2.67578 0.72265,3.4375 0.74219,0.76171 2.98828,0.76171 h 3.69141 v 3.00782 h -3.69141 q -4.16015,0 -5.74218,-1.54297 -1.58204,-1.5625 -1.58204,-5.66406 v -11.875 h -2.63671 v -2.79297 h 2.63671 v -6.21094 z"
         style=""
         id="path1897" />
      <path
         d="m 310.86816,111.63672 v 3.39844 q -1.52343,-0.78125 -3.16406,-1.17188 -1.64062,-0.39062 -3.39844,-0.39062 -2.67578,0 -4.02343,0.82031 -1.32813,0.82031 -1.32813,2.46094 0,1.25 0.95703,1.97265 0.95703,0.70313 3.84766,1.34766 l 1.23047,0.27344 q 3.82812,0.82031 5.42969,2.32422 1.62109,1.48437 1.62109,4.16015 0,3.04688 -2.42188,4.82422 -2.40234,1.77734 -6.62109,1.77734 -1.75781,0 -3.67187,-0.35156 -1.89454,-0.33203 -4.00391,-1.01562 v -3.71094 q 1.99219,1.03515 3.92578,1.5625 1.93359,0.50781 3.82813,0.50781 2.53906,0 3.90625,-0.85937 1.36718,-0.87891 1.36718,-2.46094 0,-1.46484 -0.99609,-2.24609 -0.97656,-0.78125 -4.31641,-1.50391 l -1.25,-0.29297 q -3.33984,-0.70312 -4.82422,-2.14844 -1.48437,-1.46484 -1.48437,-4.0039 0,-3.08594 2.1875,-4.76563 2.1875,-1.67969 6.21094,-1.67969 1.99218,0 3.75,0.29297 1.75781,0.29297 3.24218,0.87891 z"
         style=""
         id="path1899" />
    </g>
    <rect
       ry="4.99999"
       rx="4.99999"
       y="171.65057"
       x="116.26224"
       height="39.555889"
       width="65.748306"
       id="rect1025"
       style="opacity:1;fill:none;fill-opacity:1;fill-rule:nonzero;stroke:#000000;stroke-width:1;stroke-linecap:round;stroke-linejoin:round;stroke-miterlimit:11.60000038;stroke-dasharray:0.1, 0.1;stroke-dashoffset:0;stroke-opacity:1" />
    <g
       aria-label="shiny
module"
       transform="matrix(0.26458333,0,0,0.26458333,78.511917,240.33323)"
       style="font-style:normal;font-weight:normal;font-size:40px;line-height:1.25;font-family:sans-serif;text-align:center;letter-spacing:0px;word-spacing:0px;text-anchor:middle;fill:#000000;fill-opacity:1;stroke:none"
       id="flowRoot993">
      <path
         d="m 229.71582,61.636719 v 3.398437 q -1.52344,-0.78125 -3.16406,-1.171875 -1.64063,-0.390625 -3.39844,-0.390625 -2.67578,0 -4.02344,0.820313 -1.32812,0.820312 -1.32812,2.460937 0,1.25 0.95703,1.972656 0.95703,0.703125 3.84766,1.347657 l 1.23046,0.273437 q 3.82813,0.820313 5.42969,2.324219 1.6211,1.484375 1.6211,4.160156 0,3.046875 -2.42188,4.824219 -2.40234,1.777344 -6.62109,1.777344 -1.75782,0 -3.67188,-0.351563 -1.89453,-0.332031 -4.0039,-1.015625 v -3.710937 q 1.99218,1.035156 3.92578,1.5625 1.93359,0.507812 3.82812,0.507812 2.53906,0 3.90625,-0.859375 1.36719,-0.878906 1.36719,-2.460937 0,-1.464844 -0.99609,-2.246094 -0.97657,-0.78125 -4.31641,-1.503906 l -1.25,-0.292969 q -3.33984,-0.703125 -4.82422,-2.148438 -1.48437,-1.464843 -1.48437,-4.003906 0,-3.085937 2.1875,-4.765625 2.1875,-1.679687 6.21093,-1.679687 1.99219,0 3.75,0.292968 1.75782,0.292969 3.24219,0.878907 z"
         style=""
         id="path1989" />
      <path
         d="M 254.79395,69.664062 V 82.867187 H 251.2002 V 69.78125 q 0,-3.105469 -1.21094,-4.648438 -1.21094,-1.542968 -3.63281,-1.542968 -2.91016,0 -4.58985,1.855468 -1.67969,1.855469 -1.67969,5.058594 v 12.363281 h -3.61328 V 52.476562 h 3.61328 v 11.914063 q 1.28907,-1.972656 3.02735,-2.949219 1.75781,-0.976562 4.04297,-0.976562 3.76953,0 5.70312,2.34375 1.9336,2.324218 1.9336,6.855468 z"
         style=""
         id="path1991" />
      <path
         d="m 261.96191,60.992187 h 3.59375 v 21.875 h -3.59375 z m 0,-8.515625 h 3.59375 v 4.550782 h -3.59375 z"
         style=""
         id="path1993" />
      <path
         d="m 291.25879,69.664062 v 13.203125 h -3.59375 V 69.78125 q 0,-3.105469 -1.21094,-4.648438 -1.21094,-1.542968 -3.63281,-1.542968 -2.91016,0 -4.58984,1.855468 -1.67969,1.855469 -1.67969,5.058594 v 12.363281 h -3.61328 v -21.875 h 3.61328 v 3.398438 q 1.28906,-1.972656 3.02734,-2.949219 1.75781,-0.976562 4.04297,-0.976562 3.76953,0 5.70313,2.34375 1.93359,2.324218 1.93359,6.855468 z"
         style=""
         id="path1995" />
      <path
         d="m 307.52832,84.898437 q -1.52344,3.90625 -2.96875,5.097657 -1.44531,1.191406 -3.86719,1.191406 h -2.87109 v -3.007813 h 2.10937 q 1.48438,0 2.30469,-0.703125 0.82031,-0.703125 1.81641,-3.320312 l 0.64453,-1.640625 -8.84766,-21.523438 h 3.8086 l 6.83593,17.109375 6.83594,-17.109375 h 3.8086 z"
         style=""
         id="path1997" />
      <path
         d="m 211.01465,115.19141 q 1.34765,-2.42188 3.22265,-3.57422 1.875,-1.15235 4.41407,-1.15235 3.41797,0 5.27343,2.40235 1.85547,2.38281 1.85547,6.79687 v 13.20313 h -3.61328 v -13.08594 q 0,-3.14453 -1.11328,-4.66797 -1.11328,-1.52344 -3.39844,-1.52344 -2.79297,0 -4.41406,1.85547 -1.62109,1.85547 -1.62109,5.0586 v 12.36328 h -3.61328 v -13.08594 q 0,-3.16406 -1.11329,-4.66797 -1.11328,-1.52344 -3.4375,-1.52344 -2.7539,0 -4.375,1.875 -1.62109,1.85547 -1.62109,5.03907 v 12.36328 h -3.61328 v -21.875 h 3.61328 v 3.39844 q 1.23047,-2.01172 2.94922,-2.96875 1.71875,-0.95704 4.08203,-0.95704 2.38281,0 4.04297,1.21094 1.67969,1.21094 2.48047,3.51563 z"
         style=""
         id="path1999" />
      <path
         d="m 241.4248,113.51172 q -2.89062,0 -4.57031,2.26562 -1.67969,2.2461 -1.67969,6.17188 0,3.92578 1.66016,6.1914 1.67969,2.2461 4.58984,2.2461 2.8711,0 4.55079,-2.26563 1.67968,-2.26562 1.67968,-6.17187 0,-3.88672 -1.67968,-6.15234 -1.67969,-2.28516 -4.55079,-2.28516 z m 0,-3.04688 q 4.6875,0 7.36329,3.04688 2.67578,3.04687 2.67578,8.4375 0,5.37109 -2.67578,8.4375 -2.67579,3.04687 -7.36329,3.04687 -4.70703,0 -7.38281,-3.04687 -2.65625,-3.06641 -2.65625,-8.4375 0,-5.39063 2.65625,-8.4375 2.67578,-3.04688 7.38281,-3.04688 z"
         style=""
         id="path2001" />
      <path
         d="m 271.81543,114.3125 v -11.83594 h 3.59375 v 30.39063 h -3.59375 v -3.28125 q -1.13281,1.95312 -2.87109,2.91015 -1.71875,0.9375 -4.14063,0.9375 -3.96484,0 -6.46484,-3.16406 -2.48047,-3.16406 -2.48047,-8.32031 0,-5.15625 2.48047,-8.32031 2.5,-3.16407 6.46484,-3.16407 2.42188,0 4.14063,0.95704 1.73828,0.9375 2.87109,2.89062 z m -12.24609,7.63672 q 0,3.96484 1.62109,6.23047 1.64062,2.24609 4.49219,2.24609 2.85156,0 4.49218,-2.24609 1.64063,-2.26563 1.64063,-6.23047 0,-3.96484 -1.64063,-6.21094 -1.64062,-2.26562 -4.49218,-2.26562 -2.85157,0 -4.49219,2.26562 -1.62109,2.2461 -1.62109,6.21094 z"
         style=""
         id="path2003" />
      <path
         d="m 282.44043,124.23438 v -13.24219 h 3.59375 v 13.10547 q 0,3.10547 1.21094,4.66796 1.21093,1.54297 3.63281,1.54297 2.91016,0 4.58984,-1.85547 1.69922,-1.85546 1.69922,-5.05859 v -12.40234 h 3.59375 v 21.875 h -3.59375 v -3.35938 q -1.30859,1.99219 -3.04687,2.96875 -1.71875,0.95703 -4.00391,0.95703 -3.76953,0 -5.72266,-2.34375 -1.95312,-2.34375 -1.95312,-6.85546 z m 9.04297,-13.76954 z"
         style=""
         id="path2005" />
      <path
         d="m 308.16309,102.47656 h 3.59375 v 30.39063 h -3.59375 z"
         style=""
         id="path2007" />
      <path
         d="m 337.9873,121.03125 v 1.75781 h -16.52343 q 0.23437,3.71094 2.22656,5.66406 2.01172,1.9336 5.58594,1.9336 2.07031,0 4.0039,-0.50781 1.95313,-0.50782 3.86719,-1.52344 v 3.39844 q -1.93359,0.82031 -3.96484,1.25 -2.03125,0.42968 -4.1211,0.42968 -5.23437,0 -8.30078,-3.04687 -3.04687,-3.04688 -3.04687,-8.24219 0,-5.37109 2.89062,-8.51562 2.91016,-3.16407 7.83203,-3.16407 4.41407,0 6.97266,2.85157 2.57812,2.83203 2.57812,7.71484 z m -3.59375,-1.05469 q -0.0391,-2.94922 -1.66015,-4.70703 -1.60156,-1.75781 -4.25781,-1.75781 -3.00782,0 -4.82422,1.69922 -1.79688,1.69922 -2.07032,4.78515 z"
         style=""
         id="path2009" />
    </g>
    <rect
       style="opacity:1;fill:none;fill-opacity:1;fill-rule:nonzero;stroke:#000000;stroke-width:1;stroke-linecap:round;stroke-linejoin:round;stroke-miterlimit:11.60000038;stroke-dasharray:0.1, 0.1;stroke-dashoffset:0;stroke-opacity:1"
       id="rect1027"
       width="65.748306"
       height="39.555889"
       x="115.99496"
       y="245.1497"
       rx="4.99999"
       ry="4.99999" />
    <g
       aria-label="
module
markdown"
       transform="matrix(0.26458333,0,0,0.26458333,-22.348013,227.10407)"
       style="font-style:normal;font-weight:normal;font-size:40px;line-height:1.25;font-family:sans-serif;text-align:center;letter-spacing:0px;word-spacing:0px;text-anchor:middle;fill:#000000;fill-opacity:1;stroke:none"
       id="flowRoot1003">
      <path
         d="m 211.01465,115.19141 q 1.34765,-2.42188 3.22265,-3.57422 1.875,-1.15235 4.41407,-1.15235 3.41797,0 5.27343,2.40235 1.85547,2.38281 1.85547,6.79687 v 13.20313 h -3.61328 v -13.08594 q 0,-3.14453 -1.11328,-4.66797 -1.11328,-1.52344 -3.39844,-1.52344 -2.79297,0 -4.41406,1.85547 -1.62109,1.85547 -1.62109,5.0586 v 12.36328 h -3.61328 v -13.08594 q 0,-3.16406 -1.11329,-4.66797 -1.11328,-1.52344 -3.4375,-1.52344 -2.7539,0 -4.375,1.875 -1.62109,1.85547 -1.62109,5.03907 v 12.36328 h -3.61328 v -21.875 h 3.61328 v 3.39844 q 1.23047,-2.01172 2.94922,-2.96875 1.71875,-0.95704 4.08203,-0.95704 2.38281,0 4.04297,1.21094 1.67969,1.21094 2.48047,3.51563 z"
         style=""
         id="path2012" />
      <path
         d="m 241.4248,113.51172 q -2.89062,0 -4.57031,2.26562 -1.67969,2.2461 -1.67969,6.17188 0,3.92578 1.66016,6.1914 1.67969,2.2461 4.58984,2.2461 2.8711,0 4.55079,-2.26563 1.67968,-2.26562 1.67968,-6.17187 0,-3.88672 -1.67968,-6.15234 -1.67969,-2.28516 -4.55079,-2.28516 z m 0,-3.04688 q 4.6875,0 7.36329,3.04688 2.67578,3.04687 2.67578,8.4375 0,5.37109 -2.67578,8.4375 -2.67579,3.04687 -7.36329,3.04687 -4.70703,0 -7.38281,-3.04687 -2.65625,-3.06641 -2.65625,-8.4375 0,-5.39063 2.65625,-8.4375 2.67578,-3.04688 7.38281,-3.04688 z"
         style=""
         id="path2014" />
      <path
         d="m 271.81543,114.3125 v -11.83594 h 3.59375 v 30.39063 h -3.59375 v -3.28125 q -1.13281,1.95312 -2.87109,2.91015 -1.71875,0.9375 -4.14063,0.9375 -3.96484,0 -6.46484,-3.16406 -2.48047,-3.16406 -2.48047,-8.32031 0,-5.15625 2.48047,-8.32031 2.5,-3.16407 6.46484,-3.16407 2.42188,0 4.14063,0.95704 1.73828,0.9375 2.87109,2.89062 z m -12.24609,7.63672 q 0,3.96484 1.62109,6.23047 1.64062,2.24609 4.49219,2.24609 2.85156,0 4.49218,-2.24609 1.64063,-2.26563 1.64063,-6.23047 0,-3.96484 -1.64063,-6.21094 -1.64062,-2.26562 -4.49218,-2.26562 -2.85157,0 -4.49219,2.26562 -1.62109,2.2461 -1.62109,6.21094 z"
         style=""
         id="path2016" />
      <path
         d="m 282.44043,124.23438 v -13.24219 h 3.59375 v 13.10547 q 0,3.10547 1.21094,4.66796 1.21093,1.54297 3.63281,1.54297 2.91016,0 4.58984,-1.85547 1.69922,-1.85546 1.69922,-5.05859 v -12.40234 h 3.59375 v 21.875 h -3.59375 v -3.35938 q -1.30859,1.99219 -3.04687,2.96875 -1.71875,0.95703 -4.00391,0.95703 -3.76953,0 -5.72266,-2.34375 -1.95312,-2.34375 -1.95312,-6.85546 z m 9.04297,-13.76954 z"
         style=""
         id="path2018" />
      <path
         d="m 308.16309,102.47656 h 3.59375 v 30.39063 h -3.59375 z"
         style=""
         id="path2020" />
      <path
         d="m 337.9873,121.03125 v 1.75781 h -16.52343 q 0.23437,3.71094 2.22656,5.66406 2.01172,1.9336 5.58594,1.9336 2.07031,0 4.0039,-0.50781 1.95313,-0.50782 3.86719,-1.52344 v 3.39844 q -1.93359,0.82031 -3.96484,1.25 -2.03125,0.42968 -4.1211,0.42968 -5.23437,0 -8.30078,-3.04687 -3.04687,-3.04688 -3.04687,-8.24219 0,-5.37109 2.89062,-8.51562 2.91016,-3.16407 7.83203,-3.16407 4.41407,0 6.97266,2.85157 2.57812,2.83203 2.57812,7.71484 z m -3.59375,-1.05469 q -0.0391,-2.94922 -1.66015,-4.70703 -1.60156,-1.75781 -4.25781,-1.75781 -3.00782,0 -4.82422,1.69922 -1.79688,1.69922 -2.07032,4.78515 z"
         style=""
         id="path2022" />
      <path
         d="m 180.45801,165.19141 q 1.34765,-2.42188 3.22265,-3.57422 1.875,-1.15235 4.41407,-1.15235 3.41797,0 5.27343,2.40235 1.85547,2.38281 1.85547,6.79687 v 13.20313 h -3.61328 v -13.08594 q 0,-3.14453 -1.11328,-4.66797 -1.11328,-1.52344 -3.39844,-1.52344 -2.79297,0 -4.41406,1.85547 -1.62109,1.85547 -1.62109,5.0586 v 12.36328 h -3.61328 v -13.08594 q 0,-3.16406 -1.11329,-4.66797 -1.11328,-1.52344 -3.4375,-1.52344 -2.7539,0 -4.375,1.875 -1.62109,1.85547 -1.62109,5.03907 v 12.36328 h -3.61328 v -21.875 h 3.61328 v 3.39843 q 1.23047,-2.01171 2.94922,-2.96875 1.71875,-0.95703 4.08203,-0.95703 2.38281,0 4.04297,1.21094 1.67969,1.21094 2.48047,3.51563 z"
         style=""
         id="path2024" />
      <path
         d="m 212.33301,171.87109 q -4.35547,0 -6.03516,0.9961 -1.67969,0.99609 -1.67969,3.39843 0,1.91407 1.25,3.04688 1.26954,1.11328 3.4375,1.11328 2.98829,0 4.78516,-2.10937 1.81641,-2.12891 1.81641,-5.64454 v -0.80078 z m 7.16797,-1.48437 v 12.48047 h -3.59375 v -3.32032 q -1.23047,1.99219 -3.06641,2.94922 -1.83594,0.9375 -4.49219,0.9375 -3.35937,0 -5.35156,-1.875 -1.97266,-1.89453 -1.97266,-5.05859 0,-3.69141 2.46094,-5.56641 2.48047,-1.875 7.38281,-1.875 h 5.03907 v -0.35156 q 0,-2.48047 -1.64063,-3.82812 -1.62109,-1.36719 -4.57031,-1.36719 -1.875,0 -3.65234,0.44922 -1.77735,0.44922 -3.41797,1.34765 v -3.32031 q 1.97265,-0.76172 3.82812,-1.13281 1.85547,-0.39063 3.61328,-0.39063 4.7461,0 7.08985,2.46094 2.34375,2.46094 2.34375,7.46094 z"
         style=""
         id="path2026" />
      <path
         d="m 239.5791,164.35156 q -0.60547,-0.35156 -1.32812,-0.50781 -0.70313,-0.17578 -1.5625,-0.17578 -3.04688,0 -4.6875,1.99219 -1.6211,1.97265 -1.6211,5.68359 v 11.52344 h -3.61328 v -21.875 h 3.61328 v 3.39843 q 1.13282,-1.99218 2.94922,-2.94921 1.81641,-0.97657 4.41406,-0.97657 0.3711,0 0.82032,0.0586 0.44922,0.0391 0.99609,0.13672 z"
         style=""
         id="path2028" />
      <path
         d="m 243.21191,152.47656 h 3.61329 v 17.94922 l 10.72265,-9.43359 h 4.58985 l -11.60157,10.23437 12.08985,11.64063 h -4.6875 l -11.11328,-10.6836 v 10.6836 h -3.61329 z"
         style=""
         id="path2030" />
      <path
         d="m 280.90723,164.3125 v -11.83594 h 3.59375 v 30.39063 h -3.59375 v -3.28125 q -1.13282,1.95312 -2.8711,2.91015 -1.71875,0.9375 -4.14062,0.9375 -3.96485,0 -6.46485,-3.16406 -2.48046,-3.16406 -2.48046,-8.32031 0,-5.15625 2.48046,-8.32031 2.5,-3.16407 6.46485,-3.16407 2.42187,0 4.14062,0.95703 1.73828,0.9375 2.8711,2.89063 z m -12.2461,7.63672 q 0,3.96484 1.6211,6.23047 1.64062,2.24609 4.49218,2.24609 2.85157,0 4.49219,-2.24609 1.64063,-2.26563 1.64063,-6.23047 0,-3.96485 -1.64063,-6.21094 -1.64062,-2.26562 -4.49219,-2.26562 -2.85156,0 -4.49218,2.26562 -1.6211,2.24609 -1.6211,6.21094 z"
         style=""
         id="path2032" />
      <path
         d="m 300.37988,163.51172 q -2.89062,0 -4.57031,2.26562 -1.67969,2.2461 -1.67969,6.17188 0,3.92578 1.66016,6.1914 1.67969,2.2461 4.58984,2.2461 2.8711,0 4.55078,-2.26563 1.67969,-2.26562 1.67969,-6.17187 0,-3.88672 -1.67969,-6.15235 -1.67968,-2.28515 -4.55078,-2.28515 z m 0,-3.04688 q 4.6875,0 7.36328,3.04688 2.67579,3.04687 2.67579,8.4375 0,5.37109 -2.67579,8.4375 -2.67578,3.04687 -7.36328,3.04687 -4.70703,0 -7.38281,-3.04687 -2.65625,-3.06641 -2.65625,-8.4375 0,-5.39063 2.65625,-8.4375 2.67578,-3.04688 7.38281,-3.04688 z"
         style=""
         id="path2034" />
      <path
         d="m 314.28613,160.99219 h 3.59375 l 4.49219,17.07031 4.47266,-17.07031 h 4.23828 l 4.49219,17.07031 4.47265,-17.07031 h 3.59375 l -5.72265,21.875 h -4.23829 l -4.70703,-17.92969 -4.72656,17.92969 h -4.23828 z"
         style=""
         id="path2036" />
      <path
         d="m 367.27441,169.66406 v 13.20313 h -3.59375 v -13.08594 q 0,-3.10547 -1.21093,-4.64844 -1.21094,-1.54297 -3.63282,-1.54297 -2.91015,0 -4.58984,1.85547 -1.67969,1.85547 -1.67969,5.0586 v 12.36328 h -3.61328 v -21.875 h 3.61328 v 3.39843 q 1.28907,-1.97265 3.02735,-2.94921 1.75781,-0.97657 4.04297,-0.97657 3.76953,0 5.70312,2.34375 1.93359,2.32422 1.93359,6.85547 z"
         style=""
         id="path2038" />
    </g>
    <rect
       ry="4.99999"
       rx="4.99999"
       y="245.1497"
       x="14.967089"
       height="39.555889"
       width="65.748306"
       id="rect1029"
       style="opacity:1;fill:none;fill-opacity:1;fill-rule:nonzero;stroke:#000000;stroke-width:1;stroke-linecap:round;stroke-linejoin:round;stroke-miterlimit:11.60000038;stroke-dasharray:0.1, 0.1;stroke-dashoffset:0;stroke-opacity:1" />
    <path
       style="fill:none;stroke:#000000;stroke-width:1;stroke-linecap:butt;stroke-linejoin:miter;stroke-miterlimit:0;stroke-dasharray:none;stroke-opacity:1;marker-start:url(#marker1035)"
       d="M 112.33309,191.86932 C 98.635805,191.48778 95.91961,191.08191 83.288686,191.41366"
       id="path1031"
       inkscape:connector-curvature="0"
       sodipodi:nodetypes="cc" />
    <path
       sodipodi:nodetypes="cc"
       inkscape:connector-curvature="0"
       id="path1037"
       d="m 148.69555,241.63191 c 0.38154,-13.69728 0.78741,-16.41347 0.45566,-29.0444"
       style="fill:none;stroke:#000000;stroke-width:1;stroke-linecap:butt;stroke-linejoin:miter;stroke-miterlimit:0;stroke-dasharray:none;stroke-opacity:1;marker-start:url(#marker1041)" />
    <path
       sodipodi:nodetypes="cc"
       inkscape:connector-curvature="0"
       id="path1043"
       d="m 84.681629,264.48676 c 13.697282,0.38154 16.413481,0.78741 29.044401,0.45566"
       style="fill:none;stroke:#000000;stroke-width:1;stroke-linecap:butt;stroke-linejoin:miter;stroke-miterlimit:0;stroke-dasharray:none;stroke-opacity:1;marker-start:url(#marker1047)" />
    <path
       style="fill:none;stroke:#000000;stroke-width:1;stroke-linecap:butt;stroke-linejoin:miter;stroke-miterlimit:0;stroke-dasharray:none;stroke-opacity:1;marker-start:url(#marker1053)"
       d="m -16.346253,264.48676 c 13.697282,0.38154 16.413479,0.78741 29.044398,0.45566"
       id="path1049"
       inkscape:connector-curvature="0"
       sodipodi:nodetypes="cc" />
  </g>
</svg>
