<?xml version="1.0" encoding="UTF-8" standalone="no"?>
<!-- Created with Inkscape (http://www.inkscape.org/) -->

<svg
   xmlns:dc="http://purl.org/dc/elements/1.1/"
   xmlns:cc="http://creativecommons.org/ns#"
   xmlns:rdf="http://www.w3.org/1999/02/22-rdf-syntax-ns#"
   xmlns:svg="http://www.w3.org/2000/svg"
   xmlns="http://www.w3.org/2000/svg"
   xmlns:sodipodi="http://sodipodi.sourceforge.net/DTD/sodipodi-0.dtd"
   xmlns:inkscape="http://www.inkscape.org/namespaces/inkscape"
   width="63.877415mm"
   height="168.37982mm"
   viewBox="0 0 63.877415 168.37982"
   version="1.1"
   id="svg5156"
   inkscape:version="0.92.5 (2060ec1f9f, 2020-04-08)"
   sodipodi:docname="app_arch_2.svg">
  <defs
     id="defs5150" />
  <sodipodi:namedview
     id="base"
     pagecolor="#ffffff"
     bordercolor="#666666"
     borderopacity="1.0"
     inkscape:pageopacity="0.0"
     inkscape:pageshadow="2"
     inkscape:zoom="0.35"
     inkscape:cx="-770.71536"
     inkscape:cy="321.05524"
     inkscape:document-units="mm"
     inkscape:current-layer="layer1"
     showgrid="false"
     inkscape:window-width="3840"
     inkscape:window-height="2032"
     inkscape:window-x="0"
     inkscape:window-y="54"
     inkscape:window-maximized="1" />
  <metadata
     id="metadata5153">
    <rdf:RDF>
      <cc:Work
         rdf:about="">
        <dc:format>image/svg+xml</dc:format>
        <dc:type
           rdf:resource="http://purl.org/dc/dcmitype/StillImage" />
        <dc:title></dc:title>
      </cc:Work>
    </rdf:RDF>
  </metadata>
  <g
     inkscape:label="Layer 1"
     inkscape:groupmode="layer"
     id="layer1"
     transform="translate(-82.210106,-65.399376)">
    <rect
       ry="5"
       rx="5"
       y="65.399376"
       x="82.210106"
       height="80.180855"
       width="63.877415"
       id="rect3228"
       style="opacity:1;fill:#e66969;fill-opacity:1;fill-rule:nonzero;stroke:none;stroke-width:0.5;stroke-linecap:round;stroke-linejoin:round;stroke-miterlimit:11.60000038;stroke-dasharray:3, 1;stroke-dashoffset:0;stroke-opacity:0.98300967" />
    <rect
       style="opacity:1;fill:#e66969;fill-opacity:1;fill-rule:nonzero;stroke:none;stroke-width:0.5;stroke-linecap:round;stroke-linejoin:round;stroke-miterlimit:11.60000038;stroke-dasharray:3, 1;stroke-dashoffset:0;stroke-opacity:0.98300967"
       id="rect3230"
       width="63.877415"
       height="80.180855"
       x="82.210106"
       y="153.59834"
       rx="5"
       ry="5" />
    <g
       aria-label="ui.R"
       transform="matrix(0.26458333,0,0,0.26458333,71.252054,24.467023)"
       style="font-style:normal;font-weight:normal;font-size:40px;line-height:1.25;font-family:sans-serif;letter-spacing:0px;word-spacing:0px;fill:#000000;fill-opacity:1;stroke:none"
       id="flowRoot3258">
      <path
         inkscape:connector-curvature="0"
         d="m 77.159609,200.36523 v -2.64 q -3.36,3.28 -7.28,3.28 -2.4,0 -3.88,-1.44 -1.44,-1.44 -1.44,-3.8 v -10.44 h -2.16 q -1.08,0 -1.08,-0.84 0,-0.8 1.08,-0.8 h 3.8 v 12.08 q 0,1.52 1.04,2.56 1.08,1.04 2.6,1.04 4,0 7.32,-3.6 v -10.44 h -2.96 q -1.12,0 -1.12,-0.84 0,-0.8 1.12,-0.8 h 4.6 v 15.04 h 1.36 q 1.08,0 1.08,0.8 0,0.84 -1.08,0.84 z"
         style="font-style:normal;font-variant:normal;font-weight:normal;font-stretch:normal;font-family:'Tlwg Mono';-inkscape-font-specification:'Tlwg Mono'"
         id="path4368" />
      <path
         inkscape:connector-curvature="0"
         d="m 96.399548,183.68523 v 15.04 h 6.400002 q 1.12,0 1.12,0.8 0,0.84 -1.12,0.84 H 88.359548 q -1.08,0 -1.08,-0.84 0,-0.8 1.08,-0.8 h 6.4 v -13.4 h -4.72 q -1.08,0 -1.08,-0.84 0,-0.8 1.08,-0.8 z m -0.08,-8.28 v 4.16 h -2.36 v -4.16 z"
         style="font-style:normal;font-variant:normal;font-weight:normal;font-stretch:normal;font-family:'Tlwg Mono';-inkscape-font-specification:'Tlwg Mono'"
         id="path4370" />
      <path
         inkscape:connector-curvature="0"
         d="m 119.39949,195.72523 h 0.4 q 1.16,0 1.96,0.76 0.8,0.72 0.8,1.84 0,1.12 -0.8,1.88 -0.8,0.76 -1.96,0.76 h -0.4 q -1.16,0 -1.96,-0.76 -0.8,-0.76 -0.8,-1.88 0,-1.12 0.8,-1.84 0.8,-0.76 1.96,-0.76 z"
         style="font-style:normal;font-variant:normal;font-weight:normal;font-stretch:normal;font-family:'Tlwg Mono';-inkscape-font-specification:'Tlwg Mono'"
         id="path4372" />
      <path
         inkscape:connector-curvature="0"
         d="m 138.19943,190.32523 v 8.4 h 3 q 1.08,0 1.08,0.8 0,0.84 -1.08,0.84 h -6.8 q -1.08,0 -1.08,-0.84 0,-0.8 1.08,-0.8 h 2.16 v -19.24 h -2.16 q -1.08,0 -1.08,-0.84 0,-0.8 1.08,-0.8 h 9.92 q 2.92,0 5.04,1.88 2.16,1.84 2.16,4.36 0,3.88 -5.56,5.8 1.88,1.28 3.16,2.92 1.28,1.64 3.72,5.92 h 1.24 q 1.08,0 1.08,0.8 0,0.84 -1.08,0.84 h -2.28 q -2.64,-4.88 -4.36,-6.92 -1.68,-2.08 -3.96,-3.12 z m 0,-1.64 h 4.56 q 2.96,0 5.04,-1.36 2.08,-1.36 2.08,-3.28 0,-1.8 -1.72,-3.16 -1.68,-1.4 -3.84,-1.4 h -6.12 z"
         style="font-style:normal;font-variant:normal;font-weight:normal;font-stretch:normal;font-family:'Tlwg Mono';-inkscape-font-specification:'Tlwg Mono'"
         id="path4374" />
    </g>
    <g
       aria-label="server.R"
       transform="matrix(0.26458333,0,0,0.26458333,70.450244,113.04721)"
       style="font-style:normal;font-weight:normal;font-size:40px;line-height:1.25;font-family:sans-serif;letter-spacing:0px;word-spacing:0px;fill:#000000;fill-opacity:1;stroke:none"
       id="flowRoot3266">
      <path
         inkscape:connector-curvature="0"
         d="m 76.879609,184.96523 v -0.16 q 0,-1.12 0.84,-1.12 0.8,0 0.8,1.12 v 2.76 q 0,1.08 -0.8,1.08 -0.72,0 -0.84,-0.92 -0.16,-1.36 -1.6,-2.16 -1.44,-0.8 -3.72,-0.8 -2.24,0 -3.72,0.88 -1.48,0.84 -1.48,2.12 0,1.08 1.28,1.8 0.68,0.44 1.36,0.6 0.68,0.12 3.28,0.4 3.44,0.4 5.2,1.56 2,1.36 2,3.6 0,2.28 -2.24,3.8 -2.2,1.48 -5.6,1.48 -3.84,0 -6.28,-2.16 v 0.44 q 0,1.08 -0.8,1.08 -0.84,0 -0.84,-1.08 v -3.32 q 0,-1.08 0.84,-1.08 0.8,0 0.8,0.88 v 0.28 q 0,1.36 1.8,2.36 1.8,0.96 4.36,0.96 2.64,0 4.4,-1.04 1.76,-1.04 1.76,-2.64 0,-1.56 -1.76,-2.52 -1.4,-0.76 -4.32,-1.08 -3.76,-0.4 -5.2,-1.28 -1.84,-1.2 -1.84,-3.16 0,-1.96 1.92,-3.24 1.96,-1.28 4.92,-1.28 3.4,0 5.48,1.84 z"
         style="font-style:normal;font-variant:normal;font-weight:normal;font-stretch:normal;font-family:'Tlwg Mono';-inkscape-font-specification:'Tlwg Mono'"
         id="path4237" />
      <path
         inkscape:connector-curvature="0"
         d="M 104.39955,192.40523 H 87.759548 q 0.44,3.16 2.64,5.08 2.2,1.88 5.44,1.88 1.88,0 3.84,-0.6 1.960002,-0.6 3.160002,-1.56 0.4,-0.28 0.64,-0.28 0.32,0 0.52,0.24 0.24,0.24 0.24,0.56 0,1.04 -2.88,2.16 -2.840002,1.12 -5.560002,1.12 -4.04,0 -6.88,-2.72 -2.8,-2.72 -2.8,-6.6 0,-3.64 2.64,-6.08 2.64,-2.48 6.48,-2.48 2.88,0 5.120002,1.44 2.28,1.44 3.36,3.92 0.68,1.6 0.68,3.92 z m -16.640002,-1.64 h 14.960002 q -0.48,-2.72 -2.52,-4.36 -2.040002,-1.64 -4.960002,-1.64 -2.92,0 -4.92,1.64 -2,1.6 -2.56,4.36 z"
         style="font-style:normal;font-variant:normal;font-weight:normal;font-stretch:normal;font-family:'Tlwg Mono';-inkscape-font-specification:'Tlwg Mono'"
         id="path4239" />
      <path
         inkscape:connector-curvature="0"
         d="m 117.51949,183.68523 v 4.08 q 2.76,-2.52 4.48,-3.48 1.72,-1 3.24,-1 1.6,0 3.08,1.24 0.92,0.76 0.92,1.24 0,0.36 -0.24,0.6 -0.24,0.24 -0.6,0.24 -0.32,0 -0.64,-0.32 -1.4,-1.36 -2.64,-1.36 -1.36,0 -2.84,0.96 -1.44,0.96 -4.76,4 v 8.84 h 7.16 q 1.08,0 1.08,0.84 0,0.8 -1.08,0.8 h -12.64 q -1.08,0 -1.08,-0.84 0,-0.8 1.08,-0.8 h 3.84 v -13.4 h -3 q -1.08,0 -1.08,-0.84 0,-0.8 1.08,-0.8 z"
         style="font-style:normal;font-variant:normal;font-weight:normal;font-stretch:normal;font-family:'Tlwg Mono';-inkscape-font-specification:'Tlwg Mono'"
         id="path4241" />
      <path
         inkscape:connector-curvature="0"
         d="m 145.03943,200.36523 h -2.8 l -6.72,-15.04 h -1.64 q -1.08,0 -1.08,-0.84 0,-0.8 1.08,-0.8 h 6.04 q 1.12,0 1.12,0.8 0,0.84 -1.12,0.84 h -2.6 l 6,13.4 h 0.76 l 5.88,-13.4 h -2.72 q -1.08,0 -1.08,-0.84 0,-0.8 1.08,-0.8 h 6.08 q 1.08,0 1.08,0.8 0,0.84 -1.08,0.84 h -1.64 z"
         style="font-style:normal;font-variant:normal;font-weight:normal;font-stretch:normal;font-family:'Tlwg Mono';-inkscape-font-specification:'Tlwg Mono'"
         id="path4243" />
      <path
         inkscape:connector-curvature="0"
         d="m 176.39937,192.40523 h -16.64 q 0.44,3.16 2.64,5.08 2.2,1.88 5.44,1.88 1.88,0 3.84,-0.6 1.96,-0.6 3.16,-1.56 0.4,-0.28 0.64,-0.28 0.32,0 0.52,0.24 0.24,0.24 0.24,0.56 0,1.04 -2.88,2.16 -2.84,1.12 -5.56,1.12 -4.04,0 -6.88,-2.72 -2.8,-2.72 -2.8,-6.6 0,-3.64 2.64,-6.08 2.64,-2.48 6.48,-2.48 2.88,0 5.12,1.44 2.28,1.44 3.36,3.92 0.68,1.6 0.68,3.92 z m -16.64,-1.64 h 14.96 q -0.48,-2.72 -2.52,-4.36 -2.04,-1.64 -4.96,-1.64 -2.92,0 -4.92,1.64 -2,1.6 -2.56,4.36 z"
         style="font-style:normal;font-variant:normal;font-weight:normal;font-stretch:normal;font-family:'Tlwg Mono';-inkscape-font-specification:'Tlwg Mono'"
         id="path4245" />
      <path
         inkscape:connector-curvature="0"
         d="m 189.5193,183.68523 v 4.08 q 2.76,-2.52 4.48,-3.48 1.72,-1 3.24,-1 1.6,0 3.08,1.24 0.92,0.76 0.92,1.24 0,0.36 -0.24,0.6 -0.24,0.24 -0.6,0.24 -0.32,0 -0.64,-0.32 -1.4,-1.36 -2.64,-1.36 -1.36,0 -2.84,0.96 -1.44,0.96 -4.76,4 v 8.84 h 7.16 q 1.08,0 1.08,0.84 0,0.8 -1.08,0.8 h -12.64 q -1.08,0 -1.08,-0.84 0,-0.8 1.08,-0.8 h 3.84 v -13.4 h -3 q -1.08,0 -1.08,-0.84 0,-0.8 1.08,-0.8 z"
         style="font-style:normal;font-variant:normal;font-weight:normal;font-stretch:normal;font-family:'Tlwg Mono';-inkscape-font-specification:'Tlwg Mono'"
         id="path4247" />
      <path
         inkscape:connector-curvature="0"
         d="m 215.39924,195.72523 h 0.4 q 1.16,0 1.96,0.76 0.8,0.72 0.8,1.84 0,1.12 -0.8,1.88 -0.8,0.76 -1.96,0.76 h -0.4 q -1.16,0 -1.96,-0.76 -0.8,-0.76 -0.8,-1.88 0,-1.12 0.8,-1.84 0.8,-0.76 1.96,-0.76 z"
         style="font-style:normal;font-variant:normal;font-weight:normal;font-stretch:normal;font-family:'Tlwg Mono';-inkscape-font-specification:'Tlwg Mono'"
         id="path4249" />
      <path
         inkscape:connector-curvature="0"
         d="m 234.19918,190.32523 v 8.4 h 3 q 1.08,0 1.08,0.8 0,0.84 -1.08,0.84 h -6.8 q -1.08,0 -1.08,-0.84 0,-0.8 1.08,-0.8 h 2.16 v -19.24 h -2.16 q -1.08,0 -1.08,-0.84 0,-0.8 1.08,-0.8 h 9.92 q 2.92,0 5.04,1.88 2.16,1.84 2.16,4.36 0,3.88 -5.56,5.8 1.88,1.28 3.16,2.92 1.28,1.64 3.72,5.92 h 1.24 q 1.08,0 1.08,0.8 0,0.84 -1.08,0.84 h -2.28 q -2.64,-4.88 -4.36,-6.92 -1.68,-2.08 -3.96,-3.12 z m 0,-1.64 h 4.56 q 2.96,0 5.04,-1.36 2.08,-1.36 2.08,-3.28 0,-1.8 -1.72,-3.16 -1.68,-1.4 -3.84,-1.4 h -6.12 z"
         style="font-style:normal;font-variant:normal;font-weight:normal;font-stretch:normal;font-family:'Tlwg Mono';-inkscape-font-specification:'Tlwg Mono'"
         id="path4251" />
    </g>
  </g>
</svg>
