<?xml version="1.0" encoding="UTF-8" standalone="no"?>
<!-- Created with Inkscape (http://www.inkscape.org/) -->

<svg
   xmlns:dc="http://purl.org/dc/elements/1.1/"
   xmlns:cc="http://creativecommons.org/ns#"
   xmlns:rdf="http://www.w3.org/1999/02/22-rdf-syntax-ns#"
   xmlns:svg="http://www.w3.org/2000/svg"
   xmlns="http://www.w3.org/2000/svg"
   xmlns:sodipodi="http://sodipodi.sourceforge.net/DTD/sodipodi-0.dtd"
   xmlns:inkscape="http://www.inkscape.org/namespaces/inkscape"
   width="547.72437mm"
   height="229.31725mm"
   viewBox="0 0 547.72437 229.31725"
   version="1.1"
   id="svg7874"
   inkscape:version="0.92.5 (2060ec1f9f, 2020-04-08)"
   sodipodi:docname="data_pipeline.svg">
  <defs
     id="defs7868">
    <marker
       inkscape:stockid="Arrow1Lstart"
       orient="auto"
       refY="0"
       refX="0"
       id="marker95813"
       style="overflow:visible"
       inkscape:isstock="true">
      <path
         id="path95811"
         d="M 0,0 5,-5 -12.5,0 5,5 Z"
         style="fill:#000000;fill-opacity:1;fill-rule:evenodd;stroke:#000000;stroke-width:1.00000003pt;stroke-opacity:1"
         transform="matrix(0.8,0,0,0.8,10,0)"
         inkscape:connector-curvature="0" />
    </marker>
    <marker
       inkscape:isstock="true"
       style="overflow:visible"
       id="marker90329"
       refX="0"
       refY="0"
       orient="auto"
       inkscape:stockid="Arrow1Lstart"
       inkscape:collect="always">
      <path
         transform="matrix(0.8,0,0,0.8,10,0)"
         style="fill:#000000;fill-opacity:1;fill-rule:evenodd;stroke:#000000;stroke-width:1.00000003pt;stroke-opacity:1"
         d="M 0,0 5,-5 -12.5,0 5,5 Z"
         id="path90327"
         inkscape:connector-curvature="0" />
    </marker>
    <marker
       inkscape:isstock="true"
       style="overflow:visible"
       id="marker77043"
       refX="0"
       refY="0"
       orient="auto"
       inkscape:stockid="Arrow1Lstart">
      <path
         transform="matrix(0.8,0,0,0.8,10,0)"
         style="fill:#000000;fill-opacity:1;fill-rule:evenodd;stroke:#000000;stroke-width:1.00000003pt;stroke-opacity:1"
         d="M 0,0 5,-5 -12.5,0 5,5 Z"
         id="path77041"
         inkscape:connector-curvature="0" />
    </marker>
    <marker
       inkscape:stockid="Arrow1Lstart"
       orient="auto"
       refY="0"
       refX="0"
       id="marker55125"
       style="overflow:visible"
       inkscape:isstock="true"
       inkscape:collect="always">
      <path
         id="path55123"
         d="M 0,0 5,-5 -12.5,0 5,5 Z"
         style="fill:#000000;fill-opacity:1;fill-rule:evenodd;stroke:#000000;stroke-width:1.00000003pt;stroke-opacity:1"
         transform="matrix(0.8,0,0,0.8,10,0)"
         inkscape:connector-curvature="0" />
    </marker>
    <marker
       inkscape:isstock="true"
       style="overflow:visible"
       id="marker37147"
       refX="0"
       refY="0"
       orient="auto"
       inkscape:stockid="Arrow1Lstart">
      <path
         transform="matrix(0.8,0,0,0.8,10,0)"
         style="fill:#000000;fill-opacity:1;fill-rule:evenodd;stroke:#000000;stroke-width:1.00000003pt;stroke-opacity:1"
         d="M 0,0 5,-5 -12.5,0 5,5 Z"
         id="path37145"
         inkscape:connector-curvature="0" />
    </marker>
    <marker
       inkscape:stockid="Arrow1Lstart"
       orient="auto"
       refY="0"
       refX="0"
       id="marker29339"
       style="overflow:visible"
       inkscape:isstock="true"
       inkscape:collect="always">
      <path
         id="path29337"
         d="M 0,0 5,-5 -12.5,0 5,5 Z"
         style="fill:#000000;fill-opacity:1;fill-rule:evenodd;stroke:#000000;stroke-width:1.00000003pt;stroke-opacity:1"
         transform="matrix(0.8,0,0,0.8,10,0)"
         inkscape:connector-curvature="0" />
    </marker>
    <marker
       inkscape:isstock="true"
       style="overflow:visible"
       id="marker1605"
       refX="0"
       refY="0"
       orient="auto"
       inkscape:stockid="Arrow1Lstart">
      <path
         transform="matrix(0.8,0,0,0.8,10,0)"
         style="fill:#000000;fill-opacity:1;fill-rule:evenodd;stroke:#000000;stroke-width:1.00000003pt;stroke-opacity:1"
         d="M 0,0 5,-5 -12.5,0 5,5 Z"
         id="path1603"
         inkscape:connector-curvature="0" />
    </marker>
    <marker
       inkscape:isstock="true"
       style="overflow:visible"
       id="marker1429"
       refX="0"
       refY="0"
       orient="auto"
       inkscape:stockid="Arrow1Lstart"
       inkscape:collect="always">
      <path
         transform="matrix(0.8,0,0,0.8,10,0)"
         style="fill:#000000;fill-opacity:1;fill-rule:evenodd;stroke:#000000;stroke-width:1.00000003pt;stroke-opacity:1"
         d="M 0,0 5,-5 -12.5,0 5,5 Z"
         id="path1427"
         inkscape:connector-curvature="0" />
    </marker>
    <marker
       inkscape:stockid="Arrow1Lend"
       orient="auto"
       refY="0"
       refX="0"
       id="marker1241"
       style="overflow:visible"
       inkscape:isstock="true">
      <path
         id="path939"
         d="M 0,0 5,-5 -12.5,0 5,5 Z"
         style="fill:#000000;fill-opacity:1;fill-rule:evenodd;stroke:#000000;stroke-width:1.00000003pt;stroke-opacity:1"
         transform="matrix(-0.8,0,0,-0.8,-10,0)"
         inkscape:connector-curvature="0" />
    </marker>
    <marker
       inkscape:stockid="Arrow2Lend"
       orient="auto"
       refY="0"
       refX="0"
       id="Arrow2Lend"
       style="overflow:visible"
       inkscape:isstock="true">
      <path
         id="path957"
         style="fill:#000000;fill-opacity:1;fill-rule:evenodd;stroke:#000000;stroke-width:0.625;stroke-linejoin:round;stroke-opacity:1"
         d="M 8.7185878,4.0337352 -2.2072895,0.01601326 8.7185884,-4.0017078 c -1.7454984,2.3720609 -1.7354408,5.6174519 -6e-7,8.035443 z"
         transform="matrix(-1.1,0,0,-1.1,-1.1,0)"
         inkscape:connector-curvature="0" />
    </marker>
    <marker
       inkscape:stockid="Arrow2Lstart"
       orient="auto"
       refY="0"
       refX="0"
       id="Arrow2Lstart"
       style="overflow:visible"
       inkscape:isstock="true">
      <path
         id="path954"
         style="fill:#000000;fill-opacity:1;fill-rule:evenodd;stroke:#000000;stroke-width:0.625;stroke-linejoin:round;stroke-opacity:1"
         d="M 8.7185878,4.0337352 -2.2072895,0.01601326 8.7185884,-4.0017078 c -1.7454984,2.3720609 -1.7354408,5.6174519 -6e-7,8.035443 z"
         transform="matrix(1.1,0,0,1.1,1.1,0)"
         inkscape:connector-curvature="0" />
    </marker>
    <marker
       inkscape:stockid="Arrow1Lstart"
       orient="auto"
       refY="0"
       refX="0"
       id="marker9835"
       style="overflow:visible"
       inkscape:isstock="true">
      <path
         id="path9833"
         d="M 0,0 5,-5 -12.5,0 5,5 Z"
         style="fill:#000000;fill-opacity:1;fill-rule:evenodd;stroke:#000000;stroke-width:1.00000003pt;stroke-opacity:1"
         transform="matrix(0.8,0,0,0.8,10,0)"
         inkscape:connector-curvature="0" />
    </marker>
    <marker
       inkscape:stockid="Arrow1Lend"
       orient="auto"
       refY="0"
       refX="0"
       id="Arrow1Lend"
       style="overflow:visible"
       inkscape:isstock="true">
      <path
         id="path8470"
         d="M 0,0 5,-5 -12.5,0 5,5 Z"
         style="fill:#000000;fill-opacity:1;fill-rule:evenodd;stroke:#000000;stroke-width:1.00000003pt;stroke-opacity:1"
         transform="matrix(-0.8,0,0,-0.8,-10,0)"
         inkscape:connector-curvature="0" />
    </marker>
  </defs>
  <sodipodi:namedview
     id="base"
     pagecolor="#ffffff"
     bordercolor="#666666"
     borderopacity="1.0"
     inkscape:pageopacity="0.0"
     inkscape:pageshadow="2"
     inkscape:zoom="0.98994949"
     inkscape:cx="776.31149"
     inkscape:cy="385.47847"
     inkscape:document-units="mm"
     inkscape:current-layer="layer1"
     showgrid="false"
     inkscape:window-width="3840"
     inkscape:window-height="2032"
     inkscape:window-x="0"
     inkscape:window-y="54"
     inkscape:window-maximized="1" />
  <metadata
     id="metadata7871">
    <rdf:RDF>
      <cc:Work
         rdf:about="">
        <dc:format>image/svg+xml</dc:format>
        <dc:type
           rdf:resource="http://purl.org/dc/dcmitype/StillImage" />
        <dc:title />
      </cc:Work>
    </rdf:RDF>
  </metadata>
  <g
     inkscape:label="Layer 1"
     inkscape:groupmode="layer"
     id="layer1"
     transform="translate(87.129868,-58.061035)">
    <rect
       style="opacity:1;fill:#d9b3d7;fill-opacity:1;fill-rule:nonzero;stroke:none;stroke-width:0.76499999;stroke-linecap:round;stroke-linejoin:round;stroke-miterlimit:4;stroke-dasharray:none;stroke-dashoffset:0;stroke-opacity:0.98300967"
       id="rect918"
       width="235.73172"
       height="229.31725"
       x="96.751579"
       y="58.061035"
       rx="4.99999"
       ry="4.99999" />
    <rect
       style="opacity:1;fill:#e66969;fill-opacity:1;fill-rule:nonzero;stroke:none;stroke-width:0.5;stroke-linecap:round;stroke-linejoin:round;stroke-miterlimit:11.60000038;stroke-dasharray:2.99999996, 0.99999999;stroke-dashoffset:0;stroke-opacity:0.98300967"
       id="rect8419"
       width="65.748306"
       height="62.541069"
       x="-87.129868"
       y="153.20901"
       rx="4.99999"
       ry="4.99999" />
    <rect
       ry="4.99999"
       rx="4.99999"
       y="153.20901"
       x="12.739857"
       height="62.541069"
       width="65.748306"
       id="rect8421"
       style="opacity:1;fill:#e66969;fill-opacity:1;fill-rule:nonzero;stroke:none;stroke-width:0.5;stroke-linecap:round;stroke-linejoin:round;stroke-miterlimit:11.60000038;stroke-dasharray:2.99999996, 0.99999999;stroke-dashoffset:0;stroke-opacity:0.98300967" />
    <rect
       style="opacity:1;fill:#e66969;fill-opacity:1;fill-rule:nonzero;stroke:none;stroke-width:0.5;stroke-linecap:round;stroke-linejoin:round;stroke-miterlimit:11.60000038;stroke-dasharray:2.99999996, 0.99999999;stroke-dashoffset:0;stroke-opacity:0.98300967"
       id="rect8423"
       width="65.748306"
       height="62.541069"
       x="113.4114"
       y="153.20901"
       rx="4.99999"
       ry="4.99999" />
    <rect
       ry="4.99999"
       rx="4.99999"
       y="71.424522"
       x="225.04094"
       height="62.541069"
       width="65.748306"
       id="rect8425"
       style="opacity:1;fill:#e66969;fill-opacity:1;fill-rule:nonzero;stroke:none;stroke-width:0.5;stroke-linecap:round;stroke-linejoin:round;stroke-miterlimit:11.60000038;stroke-dasharray:2.99999996, 0.99999999;stroke-dashoffset:0;stroke-opacity:0.98300967" />
    <g
       aria-label="Import"
       transform="matrix(0.26458333,0,0,0.26458333,128.04982,65.277317)"
       style="font-style:normal;font-weight:normal;font-size:40px;line-height:1.25;font-family:sans-serif;letter-spacing:0px;word-spacing:0px;fill:#000000;fill-opacity:1;stroke:none"
       id="flowRoot866">
      <path
         d="m -755.34865,433.70724 v 38.88 h -5.01333 v -38.88 z"
         style="font-style:normal;font-variant:normal;font-weight:normal;font-stretch:normal;font-size:53.33333588px;font-family:FreeSans;-inkscape-font-specification:FreeSans"
         id="path106541" />
      <path
         d="m -747.66865,444.64057 h 4.10667 v 3.94667 q 1.81333,-2.50667 3.78666,-3.62667 2.02667,-1.12 4.8,-1.12 5.17334,0 7.52,4.26667 1.97334,-2.34667 3.89334,-3.30667 1.92,-0.96 4.69333,-0.96 3.89333,0 5.97333,2.02667 2.13334,1.97333 2.13334,5.76 v 20.96 h -4.48 v -19.25333 q 0,-2.66667 -1.38667,-4.10667 -1.33333,-1.49333 -3.78667,-1.49333 -2.72,0 -4.64,2.13333 -1.92,2.13333 -1.92,5.17333 v 17.54667 h -4.48 v -19.25333 q 0,-2.66667 -1.38666,-4.10667 -1.33334,-1.49333 -3.78667,-1.49333 -2.72,0 -4.64,2.13333 -1.92,2.13333 -1.92,5.17333 v 17.54667 h -4.48 z"
         style="font-style:normal;font-variant:normal;font-weight:normal;font-stretch:normal;font-size:53.33333588px;font-family:FreeSans;-inkscape-font-specification:FreeSans"
         id="path106543" />
      <path
         d="m -704.36207,484.21391 v -39.57334 h 4.10667 v 4.21334 q 3.14666,-5.01334 8.90667,-5.01334 5.54666,0 8.74666,4.10667 3.25334,4.10667 3.25334,11.14667 0,6.66666 -3.30667,10.72 -3.25333,4 -8.64,4 -5.17334,0 -8.58667,-4.16 v 14.56 z m 12.26667,-36.21334 q -3.52,0 -5.65334,2.98667 -2.13333,2.93333 -2.13333,7.84 0,4.90667 2.13333,7.89333 2.13334,2.93334 5.65334,2.93334 3.62667,0 5.86667,-2.93334 2.24,-2.98666 2.24,-7.73333 0,-5.01333 -2.24,-8 -2.18667,-2.98667 -5.86667,-2.98667 z"
         style="font-style:normal;font-variant:normal;font-weight:normal;font-stretch:normal;font-size:53.33333588px;font-family:FreeSans;-inkscape-font-specification:FreeSans"
         id="path106545" />
      <path
         d="m -663.56217,443.84057 q 6.02667,0 9.33334,4 3.36,3.94667 3.36,11.2 0,6.88 -3.41333,10.82667 -3.36001,3.94667 -9.22667,3.94667 -5.97334,0 -9.33334,-3.94667 -3.30666,-4 -3.30666,-11.04 0,-7.04 3.36,-10.98667 3.36,-4 9.22666,-4 z m 0.0533,4.10667 q -3.73334,0 -5.86667,2.93333 -2.13333,2.88 -2.13333,7.94667 0,5.06667 2.13333,8 2.13333,2.88 5.86667,2.88 3.68,0 5.81333,-2.88 2.18667,-2.93333 2.18667,-7.84 0,-5.17333 -2.13334,-8.10667 -2.08,-2.93333 -5.86666,-2.93333 z"
         style="font-style:normal;font-variant:normal;font-weight:normal;font-stretch:normal;font-size:53.33333588px;font-family:FreeSans;-inkscape-font-specification:FreeSans"
         id="path106547" />
      <path
         d="m -632.62891,448.53391 q -4.48,0.10666 -6.72,2.08 -2.24,1.97333 -2.24,7.46666 v 14.50667 h -4.48 v -27.94667 h 4.10666 v 5.06667 q 1.92,-3.14667 3.68,-4.48 1.81334,-1.38667 3.94667,-1.38667 0.58667,0 1.70667,0.16 z"
         style="font-style:normal;font-variant:normal;font-weight:normal;font-stretch:normal;font-size:53.33333588px;font-family:FreeSans;-inkscape-font-specification:FreeSans"
         id="path106549" />
      <path
         d="m -617.69563,444.64057 v 3.62667 h -4.58667 v 19.14667 q 0,1.49333 0.48,2.02667 0.53333,0.48 1.97333,0.48 1.33334,0 2.13334,-0.21334 v 3.73334 q -2.08,0.37333 -3.62667,0.37333 -2.61333,0 -4,-1.17333 -1.38667,-1.12 -1.38667,-3.25334 v -21.12 h -3.78666 v -3.62667 h 3.78666 v -7.68 h 4.42667 v 7.68 z"
         style="font-style:normal;font-variant:normal;font-weight:normal;font-stretch:normal;font-size:53.33333588px;font-family:FreeSans;-inkscape-font-specification:FreeSans"
         id="path106551" />
    </g>
    <g
       aria-label="Tidy"
       transform="matrix(0.26458333,0,0,0.26458333,234.72108,63.046232)"
       style="font-style:normal;font-weight:normal;font-size:40px;line-height:1.25;font-family:sans-serif;letter-spacing:0px;word-spacing:0px;fill:#000000;fill-opacity:1;stroke:none"
       id="flowRoot880">
      <path
         d="m -746.33531,438.08057 v 34.50667 h -4.96 v -34.50667 h -12.8 v -4.37333 h 30.50667 v 4.37333 z"
         style="font-style:normal;font-variant:normal;font-weight:normal;font-stretch:normal;font-size:53.33333588px;font-family:FreeSans;-inkscape-font-specification:FreeSans"
         id="path106532" />
      <path
         d="m -723.98865,444.64057 v 27.94667 h -4.42666 v -27.94667 z m 0,-10.93333 v 5.6 h -4.48 v -5.6 z"
         style="font-style:normal;font-variant:normal;font-weight:normal;font-stretch:normal;font-size:53.33333588px;font-family:FreeSans;-inkscape-font-specification:FreeSans"
         id="path106534" />
      <path
         d="m -693.53541,433.70724 v 38.88 h -3.94666 v -3.68 q -1.81334,2.61334 -3.94667,3.73334 -2.08,1.17333 -4.96,1.17333 -5.65334,0 -8.90667,-4.05333 -3.25333,-4.10667 -3.25333,-11.20001 0,-6.66666 3.25333,-10.66666 3.30667,-4.05334 8.74667,-4.05334 5.76,0 8.58667,4.32 v -14.45333 z m -12.26667,14.29333 q -3.62666,0 -5.86666,2.98667 -2.24,2.98667 -2.24,7.84 0,4.90667 2.24,7.89333 2.24,2.93334 5.92,2.93334 3.52,0 5.65333,-2.93334 2.13334,-2.93333 2.13334,-7.78666 0,-5.01334 -2.13334,-7.94667 -2.13333,-2.98667 -5.70667,-2.98667 z"
         style="font-style:normal;font-variant:normal;font-weight:normal;font-stretch:normal;font-size:53.33333588px;font-family:FreeSans;-inkscape-font-specification:FreeSans"
         id="path106536" />
      <path
         d="m -670.17551,444.64057 h 4.8 l -12.42667,33.81334 q -2.18666,5.76 -7.2,5.76 -1.65333,0 -2.98666,-0.69333 v -4 q 1.44,0.32 2.34666,0.32 1.38667,0 2.18667,-0.64 0.8,-0.58667 1.38667,-2.08 l 1.70666,-4.42667 -9.44,-28.05334 h 4.74667 l 7.14667,21.76 z"
         style="font-style:normal;font-variant:normal;font-weight:normal;font-stretch:normal;font-size:53.33333588px;font-family:FreeSans;-inkscape-font-specification:FreeSans"
         id="path106538" />
    </g>
    <g
       aria-label="Transform"
       transform="matrix(0.26458333,0,0,0.26458333,317.37278,64.443232)"
       style="font-style:normal;font-weight:normal;font-size:40px;line-height:1.25;font-family:sans-serif;letter-spacing:0px;word-spacing:0px;fill:#000000;fill-opacity:1;stroke:none"
       id="flowRoot888">
      <path
         d="m -746.33531,438.08057 v 34.50667 h -4.96 v -34.50667 h -12.8 v -4.37333 h 30.50667 v 4.37333 z"
         style="font-style:normal;font-variant:normal;font-weight:normal;font-stretch:normal;font-size:53.33333588px;font-family:FreeSans;-inkscape-font-specification:FreeSans"
         id="path106513" />
      <path
         d="m -715.34865,448.53391 q -4.48,0.10666 -6.72,2.08 -2.24,1.97333 -2.24,7.46666 v 14.50667 h -4.48 v -27.94667 h 4.10667 v 5.06667 q 1.92,-3.14667 3.68,-4.48 1.81333,-1.38667 3.94667,-1.38667 0.58666,0 1.70666,0.16 z"
         style="font-style:normal;font-variant:normal;font-weight:normal;font-stretch:normal;font-size:53.33333588px;font-family:FreeSans;-inkscape-font-specification:FreeSans"
         id="path106515" />
      <path
         d="m -711.45538,452.90724 q 0.32,-9.06667 11.2,-9.06667 5.17334,0 7.84,1.97334 2.66667,1.92 2.66667,5.65333 v 16.42667 q 0,2.18667 2.4,2.18667 0.48,0 0.96,-0.10667 v 3.36 q -1.86667,0.48 -3.04,0.48 -2.13333,0 -3.25333,-1.01333 -1.06667,-0.96 -1.33334,-3.09334 -4.48,4.10667 -9.49333,4.10667 -4.21333,0 -6.72,-2.24 -2.45333,-2.24 -2.45333,-6.02667 0,-1.22667 0.21333,-2.24 0.26667,-1.01333 0.53333,-1.76 0.32,-0.8 1.06667,-1.44 0.74667,-0.69333 1.22667,-1.12 0.53333,-0.42667 1.70666,-0.8 1.22667,-0.42667 1.86667,-0.58667 0.64,-0.21333 2.24,-0.48 1.6,-0.26666 2.34667,-0.37333 0.74666,-0.10667 2.66666,-0.37333 2.61334,-0.32 3.62667,-1.01334 1.01333,-0.69333 1.01333,-2.08 v -1.17333 q 0,-2.02667 -1.65333,-3.09333 -1.6,-1.06667 -4.58667,-1.06667 -3.09333,0 -4.69333,1.22667 -1.6,1.17333 -1.86667,3.73333 z m 8.90667,17.01334 q 3.68,0 6.02667,-1.92 2.34666,-1.97334 2.34666,-4.21334 v -5.01333 q -1.33333,0.64 -4.05333,1.06666 -2.66667,0.42667 -4.64,0.74667 -1.97333,0.32 -3.57333,1.54667 -1.6,1.17333 -1.6,3.30666 0,2.13334 1.44,3.30667 1.44,1.17334 4.05333,1.17334 z"
         style="font-style:normal;font-variant:normal;font-weight:normal;font-stretch:normal;font-size:53.33333588px;font-family:FreeSans;-inkscape-font-specification:FreeSans"
         id="path106517" />
      <path
         d="m -682.12208,444.64057 h 4.10666 v 4.69334 q 1.86667,-2.93334 4,-4.21334 2.18667,-1.28 5.28,-1.28 4.05334,0 6.45334,2.08 2.4,2.08 2.4,5.54667 v 21.12 h -4.42667 v -19.36 q 0,-2.50667 -1.54666,-4 -1.54667,-1.49333 -4.21334,-1.49333 -3.41333,0 -5.49333,2.61333 -2.08,2.56 -2.08,6.82667 v 15.41333 h -4.48 z"
         style="font-style:normal;font-variant:normal;font-weight:normal;font-stretch:normal;font-size:53.33333588px;font-family:FreeSans;-inkscape-font-specification:FreeSans"
         id="path106519" />
      <path
         d="m -650.17548,464.26724 q 0.32,2.50667 1.70667,4 1.44,1.44 5.12,1.44 2.93333,0 4.69333,-1.17333 1.81334,-1.22667 1.81334,-3.2 0,-1.54667 -1.01334,-2.45334 -1.01333,-0.90666 -3.30666,-1.44 l -4.16,-1.01333 q -4.96,-1.17333 -6.93334,-2.93333 -1.92,-1.81334 -1.92,-5.12 0,-3.89334 2.93334,-6.18667 2.93333,-2.34667 7.78666,-2.34667 4.85334,0 7.46667,2.24 2.61333,2.24 2.66667,6.34667 h -4.69334 q -0.16,-4.48 -5.6,-4.48 -2.72,0 -4.32,1.17333 -1.6,1.12 -1.6,3.04 0,1.49334 1.22667,2.45334 1.22667,0.90666 3.94667,1.54666 l 4.26666,1.01334 q 4.16,1.01333 6.02667,2.88 1.86667,1.81333 1.86667,4.90666 0,4.05334 -3.14667,6.45334 -3.09333,2.4 -8.37333,2.4 -10.82667,0 -11.14667,-9.54667 z"
         style="font-style:normal;font-variant:normal;font-weight:normal;font-stretch:normal;font-size:53.33333588px;font-family:FreeSans;-inkscape-font-specification:FreeSans"
         id="path106521" />
      <path
         d="m -616.52225,444.64057 v 3.62667 h -4.64 v 24.32 h -4.42667 v -24.32 h -3.73333 v -3.62667 h 3.73333 v -4.74666 q 0,-2.98667 1.70667,-4.64 1.76,-1.70667 4.85333,-1.70667 1.22667,0 2.50667,0.26667 v 3.68 q -1.01333,-0.0533 -1.54667,-0.0533 -3.09333,0 -3.09333,2.82667 v 4.37333 z"
         style="font-style:normal;font-variant:normal;font-weight:normal;font-stretch:normal;font-size:53.33333588px;font-family:FreeSans;-inkscape-font-specification:FreeSans"
         id="path106523" />
      <path
         d="m -601.26898,443.84057 q 6.02667,0 9.33334,4 3.36,3.94667 3.36,11.2 0,6.88 -3.41333,10.82667 -3.36001,3.94667 -9.22667,3.94667 -5.97334,0 -9.33334,-3.94667 -3.30666,-4 -3.30666,-11.04 0,-7.04 3.36,-10.98667 3.36,-4 9.22666,-4 z m 0.0533,4.10667 q -3.73334,0 -5.86667,2.93333 -2.13333,2.88 -2.13333,7.94667 0,5.06667 2.13333,8 2.13333,2.88 5.86667,2.88 3.68,0 5.81333,-2.88 2.18667,-2.93333 2.18667,-7.84 0,-5.17333 -2.13334,-8.10667 -2.08,-2.93333 -5.86666,-2.93333 z"
         style="font-style:normal;font-variant:normal;font-weight:normal;font-stretch:normal;font-size:53.33333588px;font-family:FreeSans;-inkscape-font-specification:FreeSans"
         id="path106525" />
      <path
         d="m -570.33572,448.53391 q -4.48,0.10666 -6.72,2.08 -2.24,1.97333 -2.24,7.46666 v 14.50667 h -4.48 v -27.94667 h 4.10666 v 5.06667 q 1.92,-3.14667 3.68,-4.48 1.81334,-1.38667 3.94667,-1.38667 0.58667,0 1.70667,0.16 z"
         style="font-style:normal;font-variant:normal;font-weight:normal;font-stretch:normal;font-size:53.33333588px;font-family:FreeSans;-inkscape-font-specification:FreeSans"
         id="path106527" />
      <path
         d="m -566.06912,444.64057 h 4.10667 v 3.94667 q 1.81333,-2.50667 3.78666,-3.62667 2.02667,-1.12 4.8,-1.12 5.17334,0 7.52001,4.26667 1.97333,-2.34667 3.89333,-3.30667 1.92,-0.96 4.69333,-0.96 3.89334,0 5.97334,2.02667 2.13333,1.97333 2.13333,5.76 v 20.96 h -4.48 v -19.25333 q 0,-2.66667 -1.38667,-4.10667 -1.33333,-1.49333 -3.78666,-1.49333 -2.72,0 -4.64,2.13333 -1.92,2.13333 -1.92,5.17333 v 17.54667 h -4.48001 v -19.25333 q 0,-2.66667 -1.38666,-4.10667 -1.33334,-1.49333 -3.78667,-1.49333 -2.72,0 -4.64,2.13333 -1.92,2.13333 -1.92,5.17333 v 17.54667 h -4.48 z"
         style="font-style:normal;font-variant:normal;font-weight:normal;font-stretch:normal;font-size:53.33333588px;font-family:FreeSans;-inkscape-font-specification:FreeSans"
         id="path106529" />
    </g>
    <g
       aria-label="Model"
       transform="matrix(0.26458333,0,0,0.26458333,441.48357,-17.362427)"
       style="font-style:normal;font-weight:normal;font-size:40px;line-height:1.25;font-family:sans-serif;letter-spacing:0px;word-spacing:0px;fill:#000000;fill-opacity:1;stroke:none"
       id="flowRoot896">
      <path
         d="m -740.46864,472.58724 h -5.22667 l -11.04,-32.58667 v 32.58667 h -4.69334 v -38.88 h 6.88 l 11.52001,33.86667 11.30666,-33.86667 h 6.88 v 38.88 h -4.69333 v -32.58667 z"
         style="font-style:normal;font-variant:normal;font-weight:normal;font-stretch:normal;font-size:53.33333588px;font-family:FreeSans;-inkscape-font-specification:FreeSans"
         id="path106460" />
      <path
         d="m -706.38871,443.84057 q 6.02667,0 9.33334,4 3.36,3.94667 3.36,11.2 0,6.88 -3.41334,10.82667 -3.36,3.94667 -9.22666,3.94667 -5.97334,0 -9.33334,-3.94667 -3.30666,-4 -3.30666,-11.04 0,-7.04 3.36,-10.98667 3.36,-4 9.22666,-4 z m 0.0533,4.10667 q -3.73334,0 -5.86667,2.93333 -2.13333,2.88 -2.13333,7.94667 0,5.06667 2.13333,8 2.13333,2.88 5.86667,2.88 3.68,0 5.81333,-2.88 2.18667,-2.93333 2.18667,-7.84 0,-5.17333 -2.13334,-8.10667 -2.08,-2.93333 -5.86666,-2.93333 z"
         style="font-style:normal;font-variant:normal;font-weight:normal;font-stretch:normal;font-size:53.33333588px;font-family:FreeSans;-inkscape-font-specification:FreeSans"
         id="path106462" />
      <path
         d="m -665.48212,433.70724 v 38.88 h -3.94666 v -3.68 q -1.81334,2.61334 -3.94667,3.73334 -2.08,1.17333 -4.96,1.17333 -5.65333,0 -8.90667,-4.05333 -3.25333,-4.10667 -3.25333,-11.20001 0,-6.66666 3.25333,-10.66666 3.30667,-4.05334 8.74667,-4.05334 5.76,0 8.58667,4.32 v -14.45333 z m -12.26666,14.29333 q -3.62667,0 -5.86667,2.98667 -2.24,2.98667 -2.24,7.84 0,4.90667 2.24,7.89333 2.24,2.93334 5.92,2.93334 3.52,0 5.65333,-2.93334 2.13334,-2.93333 2.13334,-7.78666 0,-5.01334 -2.13334,-7.94667 -2.13333,-2.98667 -5.70666,-2.98667 z"
         style="font-style:normal;font-variant:normal;font-weight:normal;font-stretch:normal;font-size:53.33333588px;font-family:FreeSans;-inkscape-font-specification:FreeSans"
         id="path106464" />
      <path
         d="m -635.45555,460.10724 h -20.58667 q 0.10667,4.37333 2.24,6.98667 2.18667,2.61333 5.97334,2.61333 5.44,0 7.30666,-5.6 h 4.48 q -0.85333,4.58667 -4,7.14667 -3.14666,2.56 -7.94666,2.56 -5.86667,0 -9.28001,-3.94667 -3.41333,-4 -3.41333,-10.88 0,-6.88 3.46667,-10.98667 3.52,-4.16 9.33333,-4.16 12.42667,0 12.42667,16.26667 z m -20.48,-3.62667 h 15.73333 q 0,-3.62666 -2.18666,-6.08 -2.18667,-2.45333 -5.54667,-2.45333 -3.36,0 -5.54667,2.34667 -2.18667,2.29333 -2.45333,6.18666 z"
         style="font-style:normal;font-variant:normal;font-weight:normal;font-stretch:normal;font-size:53.33333588px;font-family:FreeSans;-inkscape-font-specification:FreeSans"
         id="path106466" />
      <path
         d="m -626.17561,433.70724 v 38.88 h -4.48 v -38.88 z"
         style="font-style:normal;font-variant:normal;font-weight:normal;font-stretch:normal;font-size:53.33333588px;font-family:FreeSans;-inkscape-font-specification:FreeSans"
         id="path106468" />
    </g>
    <rect
       style="opacity:1;fill:#e66969;fill-opacity:1;fill-rule:nonzero;stroke:none;stroke-width:0.5;stroke-linecap:round;stroke-linejoin:round;stroke-miterlimit:11.60000038;stroke-dasharray:2.99999996, 0.99999999;stroke-dashoffset:0;stroke-opacity:0.98300967"
       id="rect898"
       width="65.748306"
       height="62.541069"
       x="250.43155"
       y="208.53378"
       rx="4.99999"
       ry="4.99999" />
    <g
       aria-label="Visualise"
       transform="matrix(0.26458333,0,0,0.26458333,458.47106,119.74683)"
       style="font-style:normal;font-weight:normal;font-size:40px;line-height:1.25;font-family:sans-serif;letter-spacing:0px;word-spacing:0px;fill:#000000;fill-opacity:1;stroke:none"
       id="flowRoot906">
      <path
         d="m -745.58864,472.58724 h -5.33334 l -13.97333,-38.88 h 5.33333 l 11.41334,32.90667 10.77333,-32.90667 h 5.28 z"
         style="font-style:normal;font-variant:normal;font-weight:normal;font-stretch:normal;font-size:53.33333588px;font-family:FreeSans;-inkscape-font-specification:FreeSans"
         id="path106494" />
      <path
         d="m -723.29539,444.64057 v 27.94667 h -4.42666 v -27.94667 z m 0,-10.93333 v 5.6 h -4.48 v -5.6 z"
         style="font-style:normal;font-variant:normal;font-weight:normal;font-stretch:normal;font-size:53.33333588px;font-family:FreeSans;-inkscape-font-specification:FreeSans"
         id="path106496" />
      <path
         d="m -712.94882,464.26724 q 0.32,2.50667 1.70667,4 1.44,1.44 5.12,1.44 2.93333,0 4.69334,-1.17333 1.81333,-1.22667 1.81333,-3.2 0,-1.54667 -1.01333,-2.45334 -1.01334,-0.90666 -3.30667,-1.44 l -4.16,-1.01333 q -4.96,-1.17333 -6.93334,-2.93333 -1.92,-1.81334 -1.92,-5.12 0,-3.89334 2.93334,-6.18667 2.93333,-2.34667 7.78666,-2.34667 4.85334,0 7.46667,2.24 2.61334,2.24 2.66667,6.34667 h -4.69333 q -0.16,-4.48 -5.60001,-4.48 -2.72,0 -4.32,1.17333 -1.6,1.12 -1.6,3.04 0,1.49334 1.22667,2.45334 1.22667,0.90666 3.94667,1.54666 l 4.26666,1.01334 q 4.16001,1.01333 6.02667,2.88 1.86667,1.81333 1.86667,4.90666 0,4.05334 -3.14667,6.45334 -3.09333,2.4 -8.37333,2.4 -10.82667,0 -11.14667,-9.54667 z"
         style="font-style:normal;font-variant:normal;font-weight:normal;font-stretch:normal;font-size:53.33333588px;font-family:FreeSans;-inkscape-font-specification:FreeSans"
         id="path106498" />
      <path
         d="m -667.72225,472.58724 h -4 v -3.89333 q -1.97333,2.77333 -4.10666,3.94667 -2.13334,1.17333 -5.22667,1.17333 -4.05333,0 -6.50667,-2.08 -2.4,-2.08 -2.4,-5.54667 v -21.54667 h 4.42667 v 19.78667 q 0,2.50667 1.54667,4 1.54666,1.49334 4.21333,1.49334 3.46667,0 5.54667,-2.56 2.08,-2.61334 2.08,-6.88001 v -15.84 h 4.42666 z"
         style="font-style:normal;font-variant:normal;font-weight:normal;font-stretch:normal;font-size:53.33333588px;font-family:FreeSans;-inkscape-font-specification:FreeSans"
         id="path106500" />
      <path
         d="m -661.69565,452.90724 q 0.32,-9.06667 11.2,-9.06667 5.17333,0 7.84,1.97334 2.66667,1.92 2.66667,5.65333 v 16.42667 q 0,2.18667 2.4,2.18667 0.48,0 0.96,-0.10667 v 3.36 q -1.86667,0.48 -3.04,0.48 -2.13333,0 -3.25333,-1.01333 -1.06667,-0.96 -1.33334,-3.09334 -4.48,4.10667 -9.49333,4.10667 -4.21334,0 -6.72,-2.24 -2.45334,-2.24 -2.45334,-6.02667 0,-1.22667 0.21334,-2.24 0.26666,-1.01333 0.53333,-1.76 0.32,-0.8 1.06667,-1.44 0.74666,-0.69333 1.22666,-1.12 0.53334,-0.42667 1.70667,-0.8 1.22667,-0.42667 1.86667,-0.58667 0.64,-0.21333 2.24,-0.48 1.6,-0.26666 2.34666,-0.37333 0.74667,-0.10667 2.66667,-0.37333 2.61333,-0.32 3.62667,-1.01334 1.01333,-0.69333 1.01333,-2.08 v -1.17333 q 0,-2.02667 -1.65333,-3.09333 -1.6,-1.06667 -4.58667,-1.06667 -3.09333,0 -4.69333,1.22667 -1.6,1.17333 -1.86667,3.73333 z m 8.90667,17.01334 q 3.68,0 6.02666,-1.92 2.34667,-1.97334 2.34667,-4.21334 v -5.01333 q -1.33333,0.64 -4.05333,1.06666 -2.66667,0.42667 -4.64,0.74667 -1.97334,0.32 -3.57334,1.54667 -1.6,1.17333 -1.6,3.30666 0,2.13334 1.44,3.30667 1.44,1.17334 4.05334,1.17334 z"
         style="font-style:normal;font-variant:normal;font-weight:normal;font-stretch:normal;font-size:53.33333588px;font-family:FreeSans;-inkscape-font-specification:FreeSans"
         id="path106502" />
      <path
         d="m -627.88235,433.70724 v 38.88 h -4.48 v -38.88 z"
         style="font-style:normal;font-variant:normal;font-weight:normal;font-stretch:normal;font-size:53.33333588px;font-family:FreeSans;-inkscape-font-specification:FreeSans"
         id="path106504" />
      <path
         d="m -616.14908,444.64057 v 27.94667 h -4.42666 v -27.94667 z m 0,-10.93333 v 5.6 h -4.48 v -5.6 z"
         style="font-style:normal;font-variant:normal;font-weight:normal;font-stretch:normal;font-size:53.33333588px;font-family:FreeSans;-inkscape-font-specification:FreeSans"
         id="path106506" />
      <path
         d="m -605.80251,464.26724 q 0.32,2.50667 1.70667,4 1.44,1.44 5.12,1.44 2.93333,0 4.69333,-1.17333 1.81334,-1.22667 1.81334,-3.2 0,-1.54667 -1.01334,-2.45334 -1.01333,-0.90666 -3.30666,-1.44 l -4.16,-1.01333 q -4.96,-1.17333 -6.93334,-2.93333 -1.92,-1.81334 -1.92,-5.12 0,-3.89334 2.93334,-6.18667 2.93333,-2.34667 7.78666,-2.34667 4.85334,0 7.46667,2.24 2.61333,2.24 2.66667,6.34667 h -4.69334 q -0.16,-4.48 -5.6,-4.48 -2.72,0 -4.32,1.17333 -1.6,1.12 -1.6,3.04 0,1.49334 1.22667,2.45334 1.22667,0.90666 3.94667,1.54666 l 4.26666,1.01334 q 4.16,1.01333 6.02667,2.88 1.86667,1.81333 1.86667,4.90666 0,4.05334 -3.14667,6.45334 -3.09333,2.4 -8.37333,2.4 -10.82667,0 -11.14667,-9.54667 z"
         style="font-style:normal;font-variant:normal;font-weight:normal;font-stretch:normal;font-size:53.33333588px;font-family:FreeSans;-inkscape-font-specification:FreeSans"
         id="path106508" />
      <path
         d="m -559.18928,460.10724 h -20.58667 q 0.10667,4.37333 2.24,6.98667 2.18667,2.61333 5.97334,2.61333 5.44,0 7.30667,-5.6 h 4.48 q -0.85334,4.58667 -4,7.14667 -3.14667,2.56 -7.94667,2.56 -5.86667,0 -9.28,-3.94667 -3.41334,-4 -3.41334,-10.88 0,-6.88 3.46667,-10.98667 3.52,-4.16 9.33334,-4.16 12.42666,0 12.42666,16.26667 z m -20.48,-3.62667 h 15.73334 q 0,-3.62666 -2.18667,-6.08 -2.18667,-2.45333 -5.54667,-2.45333 -3.36,0 -5.54667,2.34667 -2.18666,2.29333 -2.45333,6.18666 z"
         style="font-style:normal;font-variant:normal;font-weight:normal;font-stretch:normal;font-size:53.33333588px;font-family:FreeSans;-inkscape-font-specification:FreeSans"
         id="path106510" />
    </g>
    <rect
       ry="4.99999"
       rx="4.99999"
       y="153.20901"
       x="367.31744"
       height="62.541069"
       width="93.277069"
       id="rect908"
       style="opacity:1;fill:#e66969;fill-opacity:1;fill-rule:nonzero;stroke:none;stroke-width:0.5;stroke-linecap:round;stroke-linejoin:round;stroke-miterlimit:11.60000038;stroke-dasharray:2.99999998, 1;stroke-dashoffset:0;stroke-opacity:0.98300967" />
    <g
       aria-label="Communicate"
       transform="matrix(0.26458333,0,0,0.26458333,573.966,64.506732)"
       style="font-style:normal;font-weight:normal;font-size:40px;line-height:1.25;font-family:sans-serif;letter-spacing:0px;word-spacing:0px;fill:#000000;fill-opacity:1;stroke:none"
       id="flowRoot916">
      <path
         d="m -763.56198,453.60057 q 0,-2.66666 0.42667,-5.28 0.48,-2.61333 1.76,-5.44 1.28,-2.82666 3.14666,-4.90666 1.92,-2.13334 5.12,-3.52 3.25334,-1.38667 7.30667,-1.38667 12.69334,0 14.98667,12.69333 h -5.06667 q -0.85333,-4.16 -3.36,-6.24 -2.50666,-2.08 -7.14666,-2.08 -5.65334,0 -8.96001,4.32 -3.25333,4.32 -3.25333,11.78667 0,7.30667 3.41333,11.62667 3.41334,4.26667 9.22667,4.26667 4.8,0 7.36,-2.66667 2.56,-2.72 3.46667,-8.37334 h 5.12 q -1.76,15.41334 -16,15.41334 -4,0 -7.2,-1.33333 -3.14667,-1.38667 -5.06667,-3.46667 -1.86667,-2.08 -3.14667,-4.85334 -1.22666,-2.82666 -1.70666,-5.38666 -0.42667,-2.56 -0.42667,-5.17334 z"
         style="font-style:normal;font-variant:normal;font-weight:normal;font-stretch:normal;font-size:53.33333588px;font-family:FreeSans;-inkscape-font-specification:FreeSans"
         id="path106471" />
      <path
         d="m -713.69533,443.84057 q 6.02667,0 9.33333,4 3.36001,3.94667 3.36001,11.2 0,6.88 -3.41334,10.82667 -3.36,3.94667 -9.22667,3.94667 -5.97333,0 -9.33333,-3.94667 -3.30667,-4 -3.30667,-11.04 0,-7.04 3.36,-10.98667 3.36,-4 9.22667,-4 z m 0.0533,4.10667 q -3.73333,0 -5.86666,2.93333 -2.13334,2.88 -2.13334,7.94667 0,5.06667 2.13334,8 2.13333,2.88 5.86666,2.88 3.68,0 5.81334,-2.88 2.18666,-2.93333 2.18666,-7.84 0,-5.17333 -2.13333,-8.10667 -2.08,-2.93333 -5.86667,-2.93333 z"
         style="font-style:normal;font-variant:normal;font-weight:normal;font-stretch:normal;font-size:53.33333588px;font-family:FreeSans;-inkscape-font-specification:FreeSans"
         id="path106473" />
      <path
         d="m -696.20208,444.64057 h 4.10667 v 3.94667 q 1.81333,-2.50667 3.78667,-3.62667 2.02666,-1.12 4.8,-1.12 5.17333,0 7.52,4.26667 1.97333,-2.34667 3.89333,-3.30667 1.92,-0.96 4.69333,-0.96 3.89334,0 5.97334,2.02667 2.13333,1.97333 2.13333,5.76 v 20.96 h -4.48 v -19.25333 q 0,-2.66667 -1.38667,-4.10667 -1.33333,-1.49333 -3.78666,-1.49333 -2.72,0 -4.64,2.13333 -1.92,2.13333 -1.92,5.17333 v 17.54667 h -4.48 v -19.25333 q 0,-2.66667 -1.38667,-4.10667 -1.33333,-1.49333 -3.78667,-1.49333 -2.72,0 -4.64,2.13333 -1.92,2.13333 -1.92,5.17333 v 17.54667 h -4.48 z"
         style="font-style:normal;font-variant:normal;font-weight:normal;font-stretch:normal;font-size:53.33333588px;font-family:FreeSans;-inkscape-font-specification:FreeSans"
         id="path106475" />
      <path
         d="m -652.89549,444.64057 h 4.10667 v 3.94667 q 1.81333,-2.50667 3.78666,-3.62667 2.02667,-1.12 4.8,-1.12 5.17334,0 7.52,4.26667 1.97334,-2.34667 3.89334,-3.30667 1.92,-0.96 4.69333,-0.96 3.89334,0 5.97334,2.02667 2.13333,1.97333 2.13333,5.76 v 20.96 h -4.48 v -19.25333 q 0,-2.66667 -1.38667,-4.10667 -1.33333,-1.49333 -3.78666,-1.49333 -2.72,0 -4.64,2.13333 -1.92001,2.13333 -1.92001,5.17333 v 17.54667 h -4.48 v -19.25333 q 0,-2.66667 -1.38666,-4.10667 -1.33334,-1.49333 -3.78667,-1.49333 -2.72,0 -4.64,2.13333 -1.92,2.13333 -1.92,5.17333 v 17.54667 h -4.48 z"
         style="font-style:normal;font-variant:normal;font-weight:normal;font-stretch:normal;font-size:53.33333588px;font-family:FreeSans;-inkscape-font-specification:FreeSans"
         id="path106477" />
      <path
         d="m -587.34891,472.58724 h -4 v -3.89333 q -1.97333,2.77333 -4.10667,3.94667 -2.13333,1.17333 -5.22666,1.17333 -4.05334,0 -6.50667,-2.08 -2.4,-2.08 -2.4,-5.54667 v -21.54667 h 4.42667 v 19.78667 q 0,2.50667 1.54666,4 1.54667,1.49334 4.21334,1.49334 3.46666,0 5.54666,-2.56 2.08,-2.61334 2.08,-6.88001 v -15.84 h 4.42667 z"
         style="font-style:normal;font-variant:normal;font-weight:normal;font-stretch:normal;font-size:53.33333588px;font-family:FreeSans;-inkscape-font-specification:FreeSans"
         id="path106479" />
      <path
         d="m -580.94897,444.64057 h 4.10667 v 4.69334 q 1.86666,-2.93334 4,-4.21334 2.18666,-1.28 5.28,-1.28 4.05333,0 6.45333,2.08 2.4,2.08 2.4,5.54667 v 21.12 h -4.42667 v -19.36 q 0,-2.50667 -1.54666,-4 -1.54667,-1.49333 -4.21334,-1.49333 -3.41333,0 -5.49333,2.61333 -2.08,2.56 -2.08,6.82667 v 15.41333 h -4.48 z"
         style="font-style:normal;font-variant:normal;font-weight:normal;font-stretch:normal;font-size:53.33333588px;font-family:FreeSans;-inkscape-font-specification:FreeSans"
         id="path106481" />
      <path
         d="m -547.50903,444.64057 v 27.94667 h -4.42667 v -27.94667 z m 0,-10.93333 v 5.6 h -4.48 v -5.6 z"
         style="font-style:normal;font-variant:normal;font-weight:normal;font-stretch:normal;font-size:53.33333588px;font-family:FreeSans;-inkscape-font-specification:FreeSans"
         id="path106483" />
      <path
         d="m -518.60246,454.02724 h -4.48 q -0.42667,-2.93333 -2.13333,-4.48 -1.70667,-1.6 -4.48,-1.6 -3.62667,0 -5.70667,2.98667 -2.02667,2.93333 -2.02667,8.16 0,4.96 2.08,7.78666 2.08,2.82667 5.76,2.82667 5.70667,0 6.82667,-6.72 h 4.48 q -0.42667,5.12 -3.41333,8 -2.98667,2.82667 -8,2.82667 -5.70667,0 -9.06667,-3.94667 -3.30667,-4 -3.30667,-10.77333 0,-6.93334 3.36,-11.09334 3.41334,-4.16 9.06667,-4.16 4.85333,0 7.73333,2.61334 2.93334,2.61333 3.30667,7.57333 z"
         style="font-style:normal;font-variant:normal;font-weight:normal;font-stretch:normal;font-size:53.33333588px;font-family:FreeSans;-inkscape-font-specification:FreeSans"
         id="path106485" />
      <path
         d="m -513.85587,452.90724 q 0.32,-9.06667 11.2,-9.06667 5.17333,0 7.84,1.97334 2.66666,1.92 2.66666,5.65333 v 16.42667 q 0,2.18667 2.4,2.18667 0.48,0 0.96,-0.10667 v 3.36 q -1.86666,0.48 -3.04,0.48 -2.13333,0 -3.25333,-1.01333 -1.06667,-0.96 -1.33333,-3.09334 -4.48,4.10667 -9.49334,4.10667 -4.21333,0 -6.72,-2.24 -2.45333,-2.24 -2.45333,-6.02667 0,-1.22667 0.21333,-2.24 0.26667,-1.01333 0.53334,-1.76 0.32,-0.8 1.06666,-1.44 0.74667,-0.69333 1.22667,-1.12 0.53333,-0.42667 1.70667,-0.8 1.22666,-0.42667 1.86666,-0.58667 0.64,-0.21333 2.24,-0.48 1.6,-0.26666 2.34667,-0.37333 0.74667,-0.10667 2.66667,-0.37333 2.61333,-0.32 3.62666,-1.01334 1.01334,-0.69333 1.01334,-2.08 v -1.17333 q 0,-2.02667 -1.65334,-3.09333 -1.6,-1.06667 -4.58666,-1.06667 -3.09334,0 -4.69334,1.22667 -1.6,1.17333 -1.86666,3.73333 z m 8.90666,17.01334 q 3.68,0 6.02667,-1.92 2.34667,-1.97334 2.34667,-4.21334 v -5.01333 q -1.33334,0.64 -4.05334,1.06666 -2.66666,0.42667 -4.64,0.74667 -1.97333,0.32 -3.57333,1.54667 -1.6,1.17333 -1.6,3.30666 0,2.13334 1.44,3.30667 1.44,1.17334 4.05333,1.17334 z"
         style="font-style:normal;font-variant:normal;font-weight:normal;font-stretch:normal;font-size:53.33333588px;font-family:FreeSans;-inkscape-font-specification:FreeSans"
         id="path106487" />
      <path
         d="m -473.8559,444.64057 v 3.62667 h -4.58666 v 19.14667 q 0,1.49333 0.48,2.02667 0.53333,0.48 1.97333,0.48 1.33333,0 2.13333,-0.21334 v 3.73334 q -2.08,0.37333 -3.62666,0.37333 -2.61334,0 -4,-1.17333 -1.38667,-1.12 -1.38667,-3.25334 v -21.12 h -3.78667 v -3.62667 h 3.78667 v -7.68 h 4.42667 v 7.68 z"
         style="font-style:normal;font-variant:normal;font-weight:normal;font-stretch:normal;font-size:53.33333588px;font-family:FreeSans;-inkscape-font-specification:FreeSans"
         id="path106489" />
      <path
         d="m -445.96264,460.10724 h -20.58667 q 0.10667,4.37333 2.24,6.98667 2.18667,2.61333 5.97334,2.61333 5.44,0 7.30666,-5.6 h 4.48 q -0.85333,4.58667 -4,7.14667 -3.14666,2.56 -7.94666,2.56 -5.86667,0 -9.28,-3.94667 -3.41334,-4 -3.41334,-10.88 0,-6.88 3.46667,-10.98667 3.52,-4.16 9.33333,-4.16 12.42667,0 12.42667,16.26667 z m -20.48,-3.62667 h 15.73333 q 0,-3.62666 -2.18666,-6.08 -2.18667,-2.45333 -5.54667,-2.45333 -3.36,0 -5.54667,2.34667 -2.18666,2.29333 -2.45333,6.18666 z"
         style="font-style:normal;font-variant:normal;font-weight:normal;font-stretch:normal;font-size:53.33333588px;font-family:FreeSans;-inkscape-font-specification:FreeSans"
         id="path106491" />
    </g>
    <g
       aria-label="Understand"
       transform="matrix(0.26458333,0,0,0.26458333,307.35996,-46.174078)"
       style="font-style:normal;font-weight:normal;font-size:40px;line-height:1.25;font-family:sans-serif;letter-spacing:0px;word-spacing:0px;fill:#000000;fill-opacity:1;stroke:none"
       id="flowRoot926">
      <path
         d="m -736.52198,433.70724 h 4.96 v 27.30667 q 0,5.86666 -4.10666,9.33333 -4.05334,3.46667 -10.88,3.46667 -6.93334,0 -10.93334,-3.41333 -3.94667,-3.46667 -3.94667,-9.38667 v -27.30667 h 4.96 v 27.30667 q 0,4.21333 2.66667,6.34667 2.72,2.08 7.25334,2.08 4.69333,0 7.36,-2.24 2.66666,-2.24001 2.66666,-6.18667 z"
         style="font-style:normal;font-variant:normal;font-weight:normal;font-stretch:normal;font-size:53.33333588px;font-family:FreeSans;-inkscape-font-specification:FreeSans"
         id="path106439" />
      <path
         d="m -724.09535,444.64057 h 4.10667 v 4.69334 q 1.86666,-2.93334 4,-4.21334 2.18666,-1.28 5.28,-1.28 4.05333,0 6.45333,2.08 2.4,2.08 2.4,5.54667 v 21.12 h -4.42666 v -19.36 q 0,-2.50667 -1.54667,-4 -1.54667,-1.49333 -4.21334,-1.49333 -3.41333,0 -5.49333,2.61333 -2.08,2.56 -2.08,6.82667 v 15.41333 h -4.48 z"
         style="font-style:normal;font-variant:normal;font-weight:normal;font-stretch:normal;font-size:53.33333588px;font-family:FreeSans;-inkscape-font-specification:FreeSans"
         id="path106441" />
      <path
         d="m -672.04208,433.70724 v 38.88 h -3.94666 v -3.68 q -1.81334,2.61334 -3.94667,3.73334 -2.08,1.17333 -4.96,1.17333 -5.65333,0 -8.90667,-4.05333 -3.25333,-4.10667 -3.25333,-11.20001 0,-6.66666 3.25333,-10.66666 3.30667,-4.05334 8.74667,-4.05334 5.76,0 8.58667,4.32 v -14.45333 z m -12.26666,14.29333 q -3.62667,0 -5.86667,2.98667 -2.24,2.98667 -2.24,7.84 0,4.90667 2.24,7.89333 2.24,2.93334 5.92,2.93334 3.52,0 5.65333,-2.93334 2.13334,-2.93333 2.13334,-7.78666 0,-5.01334 -2.13334,-7.94667 -2.13333,-2.98667 -5.70666,-2.98667 z"
         style="font-style:normal;font-variant:normal;font-weight:normal;font-stretch:normal;font-size:53.33333588px;font-family:FreeSans;-inkscape-font-specification:FreeSans"
         id="path106443" />
      <path
         d="m -642.01551,460.10724 h -20.58667 q 0.10667,4.37333 2.24,6.98667 2.18667,2.61333 5.97334,2.61333 5.44,0 7.30666,-5.6 h 4.48 q -0.85333,4.58667 -4,7.14667 -3.14666,2.56 -7.94666,2.56 -5.86667,0 -9.28,-3.94667 -3.41334,-4 -3.41334,-10.88 0,-6.88 3.46667,-10.98667 3.52,-4.16 9.33333,-4.16 12.42667,0 12.42667,16.26667 z m -20.48,-3.62667 h 15.73333 q 0,-3.62666 -2.18666,-6.08 -2.18667,-2.45333 -5.54667,-2.45333 -3.36,0 -5.54667,2.34667 -2.18666,2.29333 -2.45333,6.18666 z"
         style="font-style:normal;font-variant:normal;font-weight:normal;font-stretch:normal;font-size:53.33333588px;font-family:FreeSans;-inkscape-font-specification:FreeSans"
         id="path106445" />
      <path
         d="m -623.77556,448.53391 q -4.48,0.10666 -6.72001,2.08 -2.24,1.97333 -2.24,7.46666 v 14.50667 h -4.48 v -27.94667 h 4.10667 v 5.06667 q 1.92,-3.14667 3.68,-4.48 1.81334,-1.38667 3.94667,-1.38667 0.58667,0 1.70667,0.16 z"
         style="font-style:normal;font-variant:normal;font-weight:normal;font-stretch:normal;font-size:53.33333588px;font-family:FreeSans;-inkscape-font-specification:FreeSans"
         id="path106447" />
      <path
         d="m -616.20229,464.26724 q 0.32,2.50667 1.70667,4 1.44,1.44 5.12,1.44 2.93333,0 4.69333,-1.17333 1.81334,-1.22667 1.81334,-3.2 0,-1.54667 -1.01334,-2.45334 -1.01333,-0.90666 -3.30666,-1.44 l -4.16,-1.01333 q -4.96,-1.17333 -6.93334,-2.93333 -1.92,-1.81334 -1.92,-5.12 0,-3.89334 2.93334,-6.18667 2.93333,-2.34667 7.78666,-2.34667 4.85334,0 7.46667,2.24 2.61333,2.24 2.66667,6.34667 h -4.69334 q -0.16,-4.48 -5.6,-4.48 -2.72,0 -4.32,1.17333 -1.6,1.12 -1.6,3.04 0,1.49334 1.22667,2.45334 1.22667,0.90666 3.94667,1.54666 l 4.26666,1.01334 q 4.16,1.01333 6.02667,2.88 1.86667,1.81333 1.86667,4.90666 0,4.05334 -3.14667,6.45334 -3.09333,2.4 -8.37333,2.4 -10.82667,0 -11.14667,-9.54667 z"
         style="font-style:normal;font-variant:normal;font-weight:normal;font-stretch:normal;font-size:53.33333588px;font-family:FreeSans;-inkscape-font-specification:FreeSans"
         id="path106449" />
      <path
         d="m -582.54906,444.64057 v 3.62667 h -4.58667 v 19.14667 q 0,1.49333 0.48,2.02667 0.53334,0.48 1.97334,0.48 1.33333,0 2.13333,-0.21334 v 3.73334 q -2.08,0.37333 -3.62667,0.37333 -2.61333,0 -4,-1.17333 -1.38666,-1.12 -1.38666,-3.25334 v -21.12 h -3.78667 v -3.62667 h 3.78667 v -7.68 h 4.42666 v 7.68 z"
         style="font-style:normal;font-variant:normal;font-weight:normal;font-stretch:normal;font-size:53.33333588px;font-family:FreeSans;-inkscape-font-specification:FreeSans"
         id="path106451" />
      <path
         d="m -578.65579,452.90724 q 0.32,-9.06667 11.2,-9.06667 5.17334,0 7.84001,1.97334 2.66666,1.92 2.66666,5.65333 v 16.42667 q 0,2.18667 2.4,2.18667 0.48,0 0.96,-0.10667 v 3.36 q -1.86666,0.48 -3.04,0.48 -2.13333,0 -3.25333,-1.01333 -1.06667,-0.96 -1.33333,-3.09334 -4.48,4.10667 -9.49334,4.10667 -4.21333,0 -6.72,-2.24 -2.45333,-2.24 -2.45333,-6.02667 0,-1.22667 0.21333,-2.24 0.26667,-1.01333 0.53333,-1.76 0.32,-0.8 1.06667,-1.44 0.74667,-0.69333 1.22667,-1.12 0.53333,-0.42667 1.70666,-0.8 1.22667,-0.42667 1.86667,-0.58667 0.64,-0.21333 2.24,-0.48 1.6,-0.26666 2.34667,-0.37333 0.74666,-0.10667 2.66667,-0.37333 2.61333,-0.32 3.62666,-1.01334 1.01334,-0.69333 1.01334,-2.08 v -1.17333 q 0,-2.02667 -1.65334,-3.09333 -1.6,-1.06667 -4.58667,-1.06667 -3.09333,0 -4.69333,1.22667 -1.6,1.17333 -1.86667,3.73333 z m 8.90667,17.01334 q 3.68,0 6.02667,-1.92 2.34667,-1.97334 2.34667,-4.21334 v -5.01333 q -1.33334,0.64 -4.05334,1.06666 -2.66667,0.42667 -4.64,0.74667 -1.97333,0.32 -3.57333,1.54667 -1.6,1.17333 -1.6,3.30666 0,2.13334 1.44,3.30667 1.44,1.17334 4.05333,1.17334 z"
         style="font-style:normal;font-variant:normal;font-weight:normal;font-stretch:normal;font-size:53.33333588px;font-family:FreeSans;-inkscape-font-specification:FreeSans"
         id="path106453" />
      <path
         d="m -549.32249,444.64057 h 4.10667 v 4.69334 q 1.86666,-2.93334 4,-4.21334 2.18666,-1.28 5.28,-1.28 4.05333,0 6.45333,2.08 2.4,2.08 2.4,5.54667 v 21.12 h -4.42667 v -19.36 q 0,-2.50667 -1.54666,-4 -1.54667,-1.49333 -4.21334,-1.49333 -3.41333,0 -5.49333,2.61333 -2.08,2.56 -2.08,6.82667 v 15.41333 h -4.48 z"
         style="font-style:normal;font-variant:normal;font-weight:normal;font-stretch:normal;font-size:53.33333588px;font-family:FreeSans;-inkscape-font-specification:FreeSans"
         id="path106455" />
      <path
         d="m -497.26922,433.70724 v 38.88 h -3.94667 v -3.68 q -1.81333,2.61334 -3.94666,3.73334 -2.08,1.17333 -4.96,1.17333 -5.65334,0 -8.90667,-4.05333 -3.25333,-4.10667 -3.25333,-11.20001 0,-6.66666 3.25333,-10.66666 3.30667,-4.05334 8.74667,-4.05334 5.76,0 8.58666,4.32 v -14.45333 z m -12.26667,14.29333 q -3.62666,0 -5.86666,2.98667 -2.24,2.98667 -2.24,7.84 0,4.90667 2.24,7.89333 2.24,2.93334 5.92,2.93334 3.52,0 5.65333,-2.93334 2.13333,-2.93333 2.13333,-7.78666 0,-5.01334 -2.13333,-7.94667 -2.13333,-2.98667 -5.70667,-2.98667 z"
         style="font-style:normal;font-variant:normal;font-weight:normal;font-stretch:normal;font-size:53.33333588px;font-family:FreeSans;-inkscape-font-specification:FreeSans"
         id="path106457" />
    </g>
    <path
       style="fill:none;stroke:#000000;stroke-width:1.49999988;stroke-linecap:butt;stroke-linejoin:miter;stroke-miterlimit:4;stroke-dasharray:none;stroke-opacity:1;marker-start:url(#marker1429)"
       d="m 221.974,100.59037 c -45.0466,4.85943 -67.10494,-2.472855 -83.67346,51.41624"
       id="path928"
       inkscape:connector-curvature="0"
       sodipodi:nodetypes="cc" />
    <path
       sodipodi:nodetypes="cc"
       inkscape:connector-curvature="0"
       id="path29169"
       d="m 290.00412,204.66251 c 20.32153,-38.82852 43.84884,-64.47717 2.79559,-103.11889"
       style="fill:none;stroke:#000000;stroke-width:1.49999988;stroke-linecap:butt;stroke-linejoin:miter;stroke-miterlimit:4;stroke-dasharray:none;stroke-opacity:1;marker-start:url(#marker29339)" />
    <path
       style="fill:none;stroke:#000000;stroke-width:1.49999988;stroke-linecap:butt;stroke-linejoin:miter;stroke-miterlimit:4;stroke-dasharray:none;stroke-opacity:1;marker-start:url(#marker37147)"
       d="m 147.71692,219.60353 c 25.1701,37.67329 47.32953,52.60103 100.09139,28.1614"
       id="path36977"
       inkscape:connector-curvature="0"
       sodipodi:nodetypes="cc" />
    <path
       sodipodi:nodetypes="cc"
       inkscape:connector-curvature="0"
       id="path54955"
       d="M 9.1670484,185.21591 C -4.5302336,184.83437 -7.2464284,184.4285 -19.877352,184.76025"
       style="fill:none;stroke:#000000;stroke-width:1.5;stroke-linecap:butt;stroke-linejoin:miter;stroke-miterlimit:4;stroke-dasharray:none;stroke-opacity:1;marker-start:url(#marker55125)" />
    <path
       style="fill:none;stroke:#000000;stroke-width:1.5;stroke-linecap:butt;stroke-linejoin:miter;stroke-miterlimit:4;stroke-dasharray:none;stroke-opacity:1;marker-start:url(#marker90329)"
       d="M 109.92766,185.21591 C 96.230379,184.83437 93.514184,184.4285 80.88326,184.76025"
       id="path90159"
       inkscape:connector-curvature="0"
       sodipodi:nodetypes="cc" />
    <path
       sodipodi:nodetypes="cc"
       inkscape:connector-curvature="0"
       id="path95643"
       d="m 363.0319,183.87956 c -13.69728,-0.38154 -16.41347,-0.78741 -29.0444,-0.45566"
       style="fill:none;stroke:#000000;stroke-width:1.5;stroke-linecap:butt;stroke-linejoin:miter;stroke-miterlimit:4;stroke-dasharray:none;stroke-opacity:1;marker-start:url(#marker95813)" />
  </g>
</svg>
